<?xml version="1.0" standalone="no"?>
<!DOCTYPE svg PUBLIC "-//W3C//DTD SVG 20010904//EN"
 "http://www.w3.org/TR/2001/REC-SVG-20010904/DTD/svg10.dtd">
<svg version="1.0" xmlns="http://www.w3.org/2000/svg"
 width="403.000000pt" height="403.000000pt" viewBox="0 0 403.000000 403.000000"
 preserveAspectRatio="xMidYMid meet">
<metadata>
Created by potrace 1.14, written by Peter Selinger 2001-2017
</metadata>
<g transform="translate(0.000000,403.000000) scale(0.100000,-0.100000)"
fill="#000000" stroke="none">
<path d="M1800 4000 c-365 -45 -715 -187 -1005 -409 -85 -64 -256 -232 -328
-321 -487 -604 -583 -1441 -243 -2135 70 -143 151 -271 243 -385 72 -89 243
-257 328 -321 237 -181 526 -315 820 -380 140 -30 561 -39 718 -15 486 77 952
346 1249 722 426 538 552 1244 337 1889 -234 703 -838 1215 -1579 1340 -112
19 -432 28 -540 15z m-900 -565 c33 -165 136 -279 288 -321 57 -16 74 -16 160
-5 482 63 829 65 1282 9 168 -21 177 -21 239 -5 153 41 257 156 291 322 19 92
24 92 44 0 35 -158 10 -297 -70 -402 -14 -18 -23 -33 -20 -33 3 0 94 -19 203
-41 157 -33 212 -40 265 -37 55 4 70 2 83 -12 41 -46 -2 -111 -149 -222 -145
-110 -337 -186 -531 -210 l-90 -11 3 -81 c5 -112 -16 -193 -92 -355 -36 -75
-80 -181 -99 -236 -58 -169 -124 -470 -143 -656 -6 -62 -5 -67 25 -110 93
-131 15 -319 -132 -319 -28 0 -36 -5 -49 -33 -31 -65 -49 -68 -397 -65 -296 3
-311 4 -338 24 -15 11 -34 33 -41 47 -9 18 -21 27 -37 27 -143 0 -219 210
-118 330 24 29 25 35 18 98 -20 196 -91 516 -150 682 -15 41 -56 136 -91 211
-76 162 -97 243 -92 355 l3 81 -90 11 c-194 24 -386 100 -531 210 -147 111
-190 176 -149 222 13 14 28 16 83 12 53 -3 108 4 265 37 109 22 201 41 204 41
4 0 -3 10 -15 23 -11 12 -35 53 -53 92 -42 90 -50 195 -24 321 20 92 26 92 45
-1z"/>
<path d="M905 3220 c20 -95 91 -198 174 -249 54 -32 138 -61 183 -61 25 0 28
-4 28 -31 l0 -32 -62 7 c-41 4 -88 18 -133 40 -38 19 -84 37 -102 41 -21 4
-100 -8 -234 -35 -112 -23 -228 -42 -258 -42 l-56 -1 72 -66 c75 -70 167 -129
271 -175 130 -57 402 -107 402 -74 0 22 62 138 73 138 6 0 18 -7 28 -16 17
-15 17 -19 -11 -68 -55 -97 -73 -222 -49 -338 6 -29 39 -114 74 -188 123 -263
203 -551 246 -880 l12 -95 467 0 468 0 11 97 c36 293 130 632 240 866 68 143
91 220 91 302 0 77 -25 175 -61 238 -29 51 -29 55 -12 68 10 7 21 14 26 14 12
0 65 -89 72 -122 l7 -30 77 7 c223 21 441 115 594 256 l72 66 -56 1 c-30 0
-146 19 -258 42 -217 44 -237 45 -306 5 -52 -29 -138 -55 -187 -55 -35 0 -38
2 -38 29 0 27 3 29 54 35 61 8 156 50 205 92 46 38 95 118 115 184 9 29 14 55
12 57 -1 2 -16 -15 -31 -37 -57 -82 -194 -159 -299 -167 -34 -3 -132 4 -221
16 -378 48 -781 48 -1159 0 -88 -12 -187 -19 -218 -16 -100 9 -226 80 -294
166 l-36 46 7 -35z"/>
<path d="M1537 1010 c-68 -53 -56 -194 19 -228 35 -17 913 -17 948 0 75 34 87
175 19 228 -25 19 -40 20 -493 20 -453 0 -468 -1 -493 -20z m262 -14 c32 -17
51 -54 51 -99 0 -40 -21 -72 -62 -93 -87 -45 -189 57 -144 144 31 59 94 79
155 48z m579 -2 c57 -40 65 -119 16 -168 -69 -68 -185 -22 -184 74 1 67 43
109 110 110 20 0 46 -7 58 -16z"/>
<path d="M1691 944 c-12 -15 -21 -30 -21 -35 0 -24 26 -59 52 -70 25 -10 33
-9 56 8 35 26 41 74 13 102 -30 30 -75 27 -100 -5z"/>
<path d="M2269 949 c-28 -28 -22 -76 13 -102 23 -17 31 -18 56 -8 33 14 55 52
45 78 -19 54 -76 70 -114 32z"/>
<path d="M1692 698 c4 -10 80 -14 325 -16 276 -2 322 0 333 13 11 13 -25 15
-325 15 -265 0 -336 -3 -333 -12z"/>
</g>
</svg>
