<?xml version="1.0" encoding="utf-8"?>
<!-- Generator: Adobe Illustrator 26.3.0, SVG Export Plug-In . SVG Version: 6.00 Build 0)  -->
<svg version="1.1" id="Calque_1" xmlns="http://www.w3.org/2000/svg" xmlns:xlink="http://www.w3.org/1999/xlink" x="0px" y="0px"
	 viewBox="0 0 200 200" style="enable-background:new 0 0 200 200;" xml:space="preserve">
<style type="text/css">
	.st0{fill:#FFFFFF;}
</style>
<g>
	<path class="st0" d="M26.77,169.47c0-4.38,0-8.77,0-13.15c0.77-0.97,1.73-1.51,2.97-1.07c1.28,0.46,1.34,1.57,1.33,2.72
		c-0.02,3.05,0.05,6.1-0.04,9.15c-0.04,1.37,0.39,1.8,1.78,1.8c19.83-0.04,39.65-0.02,59.48-0.06c0.68,0,1.47-0.3,2.02-0.72
		c3.29-2.51,7.89-2.54,11.19-0.12c0.66,0.48,1.6,0.83,2.41,0.83c19.59,0.05,39.18,0.04,58.76,0.04c2.22,0,2.22,0,2.22-2.16
		c0-28.92,0-57.85,0-86.77c0-0.38,0.1-0.81-0.03-1.13c-0.15-0.37-0.5-0.91-0.79-0.93c-1.36-0.1-2.73-0.04-4.25-0.04
		c0,0.78,0,1.39,0,1.99c0,27.02,0,54.03,0,81.05c0,2.9-0.51,3.41-3.4,3.41c-40.27,0-80.54,0-120.82,0c-3,0-3.48-0.48-3.48-3.46
		c0-27.02,0-54.03,0-81.05c0-0.6,0-1.2,0-1.97c-1.13,0-2.07,0-3.02,0c-2.05,0-2.05,0-2.05,2.05c0,21.16,0,42.31,0.01,63.47
		c0,1.15-0.06,2.24-1.36,2.69c-1.27,0.44-2.2-0.13-2.93-1.14c0-22.49,0-44.98,0-67.47c1.1-2.97,3.29-4.13,6.37-3.89
		c0.71,0.06,1.43,0.06,2.14-0.02c0.3-0.03,0.78-0.3,0.82-0.52c0.27-1.44,1.3-2.04,2.52-2.44c3.43-1.14,6.84-2.33,10.31-3.33
		c1.2-0.34,1.53-0.81,1.52-2.01c-0.05-8.96-0.03-17.91-0.03-26.87c0-2.85,0.92-3.63,3.71-2.89c3.03,0.81,6.01,1.79,9.01,2.7
		c0.47,0.14,0.95,0.3,1.58,0.51c0-3.28-0.03-6.32,0.01-9.36c0.03-1.87,1.12-2.76,2.87-2.37c7.15,1.58,13.59,4.58,19.06,9.53
		c7.45,6.74,11.6,15.32,13.85,24.94c0.62,2.67,1.01,5.41,1.51,8.2c0.3-0.2,0.58-0.37,0.83-0.56c14.56-11.22,31.17-16.4,49.42-16.74
		c2.3-0.04,2.96,0.63,2.97,2.95c0.01,3.91,0.05,7.81-0.03,11.72c-0.02,1.12,0.38,1.57,1.39,1.89c1.81,0.57,3.6,1.24,5.34,2
		c0.65,0.28,1.48,0.87,1.61,1.46c0.27,1.25,0.98,1.31,1.95,1.24c0.52-0.04,1.05-0.01,1.57-0.01c4.28,0,6.1,1.81,6.1,6.06
		c0,29.11-0.02,58.22,0.04,87.33c0.01,3.11-1.07,5.22-4.04,6.27c-21.45,0-42.89,0-64.34,0c-0.46-0.4-0.95-0.77-1.38-1.19
		c-2.03-2.01-4.94-2.01-6.97,0c-0.43,0.43-0.92,0.8-1.38,1.2c-21.45,0-42.89,0-64.34,0C28.86,172.58,27.61,171.25,26.77,169.47z
		 M155.35,72.88c-0.04,0.62-0.08,1.03-0.09,1.44c-0.02,1.48,0.03,2.96-0.05,4.43c-0.07,1.16-0.81,1.81-1.96,1.87
		c-1.16,0.06-1.91-0.53-2.17-1.65c-0.11-0.5-0.1-1.04-0.1-1.56c-0.01-6.38,0-12.77-0.01-19.15c0-0.54-0.05-1.09-0.09-2
		c-4.98,0.69-9.79,1.1-14.48,2.05c-12.34,2.51-23.45,7.72-33.09,15.92c-0.82,0.7-1.19,1.44-1.19,2.56
		c0.03,25.92,0.02,51.84,0.03,77.76c0,0.49,0.05,0.98,0.09,1.72c14.45-11.24,30.73-16.55,48.73-17.21c0-0.74,0-1.35,0-1.97
		c0-14.67,0-29.35,0-44.02c0-0.52-0.03-1.05,0.05-1.57c0.18-1.23,1.11-2.03,2.27-1.9c1.21,0.13,1.88,0.84,1.95,2.07
		c0.03,0.43,0.02,0.86,0.02,1.29c0,15.68,0,31.35,0,47.03c0,2.9-0.47,3.39-3.41,3.42c-9.48,0.09-18.64,1.83-27.49,5.21
		c-0.36,0.14-0.71,0.27-1.06,0.43c-0.34,0.15-0.66,0.33-0.99,0.5c6.24-0.94,12.45-1.19,18.71-0.7c6.26,0.49,12.35,1.85,18.53,3.64
		c0-0.77,0-1.29,0-1.81c0-24.87,0-49.74,0-74.61c0-0.33,0.07-0.69-0.03-0.99c-0.1-0.31-0.32-0.7-0.59-0.82
		C157.81,73.74,156.65,73.35,155.35,72.88z M69.1,31.69c-0.03,0.44-0.07,0.72-0.07,1c0,26.73,0,53.45-0.02,80.18
		c0,0.88,0.28,1.22,1.13,1.46c12.75,3.55,21.63,11.56,27.01,23.57c0.13,0.3,0.33,0.58,0.64,1.12c0.03-0.58,0.06-0.81,0.06-1.04
		c0-21.15,0.06-42.3-0.03-63.46c-0.04-9-2.09-17.56-6.49-25.47C86.41,40.22,79.02,34.46,69.1,31.69z M93.45,154.41
		c-0.18-0.27-0.35-0.56-0.54-0.82c-9.97-13.86-23-23.25-39.75-27.22c-2.5-0.59-2.73-0.88-2.73-3.5c0-16.58,0-33.16,0-49.74
		c0-0.56,0-1.11,0-1.77c-0.5,0.06-0.83,0.05-1.13,0.14c-2.5,0.78-4.97,1.62-7.48,2.35c-1.09,0.32-1.43,0.87-1.43,2.02
		c0.04,24.97,0.03,49.93,0.03,74.9c0,0.5,0,1.01,0,1.7C58.44,147.05,76.05,146.79,93.45,154.41z M54.72,39.76c0,0.93,0,1.49,0,2.05
		c0,16.01,0,32.01,0,48.02c0,10.38,0,20.77-0.01,31.15c0,0.81,0.01,1.37,1.06,1.64c16.68,4.31,29.79,13.82,39.98,27.55
		c0.28,0.38,0.57,0.74,0.86,1.11c0.12-0.06,0.24-0.12,0.36-0.19c-0.91-3-1.65-6.05-2.75-8.98c-4.72-12.54-13.35-20.82-26.55-24.03
		c-2.8-0.68-2.94-0.85-2.94-3.76c0-18.43,0-36.87,0-55.3c0-4.81,0.02-9.62-0.02-14.43c0-0.49-0.23-1.28-0.55-1.4
		C61.11,42.01,58.03,40.94,54.72,39.76z M40.56,159.92c17.74,0,35.38,0,53.02,0c0.05-0.14,0.09-0.28,0.14-0.42
		c-3.16-1.25-6.25-2.71-9.49-3.73c-13.87-4.39-27.71-3.6-41.48,0.53C40.16,157.08,40.17,157.09,40.56,159.92z M106,159.92
		c18.09,0,35.75,0,53.43,0c0.04-0.27,0.09-0.45,0.1-0.64c0.01-0.43-0.03-0.86,0.02-1.29c0.09-0.76-0.26-1.08-0.96-1.3
		c-13.56-4.27-27.23-5.34-41.08-1.5C113.61,156.28,109.88,157.76,106,159.92z"/>
</g>
</svg>
