<?xml version="1.0" encoding="utf-8"?>
<!-- Generator: Adobe Illustrator 26.2.1, SVG Export Plug-In . SVG Version: 6.00 Build 0)  -->
<svg version="1.1" id="Calque_1" xmlns="http://www.w3.org/2000/svg" xmlns:xlink="http://www.w3.org/1999/xlink" x="0px" y="0px"
	 viewBox="0 0 500 500" style="enable-background:new 0 0 500 500;" xml:space="preserve">
<style type="text/css">
	.st0{fill:none;stroke:#FFFFFF;stroke-width:5;stroke-linecap:round;stroke-linejoin:round;stroke-miterlimit:10;}
	.st1{fill:none;stroke:#FFFFFF;stroke-width:4;stroke-linecap:round;stroke-linejoin:round;stroke-miterlimit:10;}
</style>
<g>
	<path class="st0" d="M61.48,422.34h377.05H61.48z"/>
	<path class="st1" d="M386.42,185.86h-58.9c-6.14,0-11.13,4.98-11.13,11.13v225.35h81.15V196.99
		C397.54,190.84,392.56,185.86,386.42,185.86z"/>
	<path class="st1" d="M279.45,77.66h-58.9c-6.14,0-11.13,4.98-11.13,11.13v333.55h81.15V88.79
		C290.57,82.64,285.59,77.66,279.45,77.66z"/>
	<path class="st1" d="M170.43,230.53h-58.9c-6.14,0-11.13,4.98-11.13,11.13v180.68h81.15V241.66
		C181.56,235.51,176.58,230.53,170.43,230.53z"/>
</g>
</svg>
