<?xml version="1.0" encoding="utf-8"?>
<!-- Generator: Adobe Illustrator 26.3.0, SVG Export Plug-In . SVG Version: 6.00 Build 0)  -->
<svg version="1.1" id="Calque_1" xmlns="http://www.w3.org/2000/svg" xmlns:xlink="http://www.w3.org/1999/xlink" x="0px" y="0px"
	 viewBox="0 0 200 200" style="enable-background:new 0 0 200 200;" xml:space="preserve">
<style type="text/css">
	.st0{fill:#FFFFFF;}
	.st1{fill:none;stroke:#FFFFFF;stroke-width:5;stroke-miterlimit:10;}
</style>
<g>
	<path class="st0" d="M106.69,145.23c0.25,3.56-1.16,6.04-4.42,7.49c-0.34,0.15-0.58,0.91-0.58,1.4c-0.05,4-0.04,8-0.02,12.01
		c0,1.06-0.29,1.9-1.45,2.1c-1.11,0.2-1.86-0.65-1.86-2.14c-0.02-3.9-0.03-7.79,0.01-11.69c0.01-0.98-0.16-1.56-1.21-2.02
		c-2.97-1.32-4.45-4.4-3.66-7.58c0.24-0.97-0.02-1.41-0.72-1.95c-6-4.63-11.96-9.31-17.98-13.93c-0.42-0.33-1.21-0.49-1.71-0.34
		c-0.95,0.3-1.81,0.63-1.8,2.11c0.09,11.48,0.05,22.96,0.05,34.44c0,2.32-0.47,3.24-1.71,3.1c-1.94-0.22-1.6-1.77-1.6-3.05
		c-0.01-11.32-0.03-22.65,0.02-33.97c0.01-1.31-0.19-2.18-1.58-2.59c-0.62-0.19-1.14-0.73-1.77-1.16c-6,3.34-12.03,6.67-18.02,10.06
		c-0.37,0.21-0.67,0.91-0.64,1.36c0.18,3.28-1.24,5.52-4.14,6.98c-0.44,0.22-0.85,1.01-0.85,1.53c-0.06,6-0.04,12.01-0.04,18.01
		c0,0.53,0.14,1.18-0.11,1.55c-0.36,0.54-1.03,1.21-1.56,1.2c-0.53,0-1.19-0.68-1.54-1.22c-0.25-0.38-0.1-1.02-0.1-1.55
		c0-5.95-0.02-11.9,0.02-17.85c0.01-0.96-0.24-1.44-1.18-1.88c-3.68-1.7-4.99-6.05-2.96-9.47c2.04-3.43,6.47-4.38,9.72-1.98
		c0.85,0.63,1.39,0.54,2.21,0.08c5.46-3.07,10.92-6.11,16.42-9.1c0.93-0.51,1.19-1.05,1.11-2.1c-0.21-2.79,1.04-4.94,3.47-6.24
		c2.42-1.3,4.89-1.14,7.15,0.49c2.32,1.69,3.15,4.07,2.58,6.82c-0.22,1.07,0.01,1.59,0.81,2.21c5.96,4.59,11.9,9.22,17.83,13.86
		c0.71,0.55,1.2,0.68,2.07,0.22c2.71-1.45,5.25-0.98,7.63,0.92c0.41,0.33,1.26,0.51,1.71,0.31c5.79-2.5,11.55-5.08,17.27-7.63
		c0.11-1.05,0.09-2.07,0.35-3.01c1.09-3.96,5.36-5.97,9.17-4.27c0.9,0.4,1.38,0.24,2.04-0.35c6.2-5.55,12.41-11.08,18.66-16.58
		c0.69-0.61,0.84-1.08,0.54-1.99c-1.13-3.46,0.72-7.07,4.13-8.28c3.33-1.18,7.01,0.41,8.42,3.65c1.44,3.29,0.07,7.16-3.25,8.67
		c-1.08,0.49-1.29,1.08-1.28,2.13c0.03,17.12,0.02,34.23,0.02,51.35c0,1.26,0.2,2.69-1.63,2.86c-1.19,0.11-1.68-0.77-1.68-2.81
		c0-16.96,0.01-33.92-0.02-50.87c0-0.88,0.46-1.88-0.9-2.53c-1.36-0.65-1.92,0.16-2.67,0.83c-6.03,5.35-12.03,10.71-18.09,16.03
		c-0.74,0.65-0.9,1.16-0.59,2.12c1.03,3.16-0.44,6.46-3.53,7.88c-1,0.46-1.23,1.01-1.23,2.02c0.04,8.16,0.02,16.33,0.02,24.49
		c0,0.53,0.14,1.17-0.1,1.55c-0.36,0.54-1.02,1.21-1.55,1.22c-0.53,0-1.19-0.67-1.55-1.21c-0.25-0.37-0.1-1.02-0.1-1.55
		c0-8.16-0.02-16.33,0.02-24.49c0-1.01-0.13-1.74-1.23-2c-0.25-0.06-0.54-0.18-0.68-0.37c-1.36-1.75-2.79-1.04-4.37-0.31
		C117.19,140.6,111.94,142.89,106.69,145.23z"/>
	<path class="st0" d="M129.66,66.82c-3.19,3.19-6.31,6.3-9.43,9.42c-5.72-5.54-8.66-16.4-5.33-26.19
		c3.48-10.23,13.38-17.83,23.73-18.09c0,4.43,0,8.85,0,13.29C127.77,47.09,123.86,58.93,129.66,66.82z"/>
	<path class="st0" d="M122.88,79c3.16-3.13,6.32-6.27,9.51-9.42c8.69,6.09,19.65,1.08,21.47-9.06c4.44,0,8.88,0,13.33,0
		c-0.12,7.63-5.06,18.25-16.25,23.03C140.77,87.88,129.44,85.22,122.88,79z"/>
	<path class="st0" d="M167.23,56.98c-4.54,0-8.95,0-13.41,0c-1.29-6.5-5.22-10.37-11.62-11.65c0-4.51,0-8.91,0-13.31
		C153.33,32.03,166.5,41.97,167.23,56.98z"/>
	<path class="st0" d="M32.64,38.56c-0.03-3.75,2.91-6.77,6.63-6.81c3.72-0.04,6.74,2.94,6.77,6.66c0.03,3.75-2.9,6.77-6.63,6.83
		C35.73,45.3,32.67,42.29,32.64,38.56z"/>
	<path class="st0" d="M46.04,58.67c0.02,3.74-2.95,6.76-6.66,6.79c-3.7,0.03-6.72-2.99-6.74-6.71c-0.02-3.74,2.94-6.76,6.66-6.78
		C43.02,51.96,46.03,54.94,46.04,58.67z"/>
	<path class="st0" d="M46.04,78.96c-0.01,3.73-3.03,6.75-6.73,6.73c-3.71-0.02-6.69-3.04-6.68-6.78c0.01-3.74,3-6.72,6.72-6.71
		C43.08,72.21,46.05,75.22,46.04,78.96z"/>
	<path class="st0" d="M76.33,40.2c-5.21,0-10.42,0-15.63,0c-0.47,0-1.08,0.13-1.39-0.11c-0.56-0.43-1.3-1.1-1.28-1.65
		c0.01-0.55,0.8-1.16,1.36-1.58c0.27-0.21,0.82-0.06,1.24-0.06c10.53,0,21.05,0,31.58,0c0.37,0,0.85-0.14,1.08,0.04
		c0.6,0.46,1.51,1.06,1.52,1.61c0.01,0.56-0.85,1.23-1.46,1.67c-0.32,0.23-0.92,0.08-1.39,0.08C86.75,40.2,81.54,40.2,76.33,40.2z"
		/>
	<path class="st0" d="M76.47,57.03c5.37,0,10.74-0.02,16.1,0.03c0.67,0.01,1.49,0.25,1.96,0.69c0.84,0.77,0.39,2.14-0.75,2.51
		c-0.53,0.17-1.14,0.17-1.71,0.17c-10.42,0.01-20.84,0.01-31.26,0.01c-0.26,0-0.53,0-0.79,0c-1.19-0.03-2.13-0.42-2.07-1.8
		c0.06-1.29,0.97-1.6,2.1-1.6c4.84,0.01,9.68,0,14.53,0C75.2,57.03,75.84,57.03,76.47,57.03z"/>
	<path class="st0" d="M76.45,77.25c5.26,0,10.53,0,15.79,0c0.42,0,0.97-0.14,1.24,0.06c0.56,0.44,1.29,1.03,1.36,1.62
		c0.06,0.48-0.67,1.16-1.2,1.56c-0.32,0.24-0.91,0.14-1.38,0.14c-10.58,0.01-21.16,0-31.74,0c-0.16,0-0.32,0-0.47,0
		c-1.18-0.03-2.14-0.4-2.09-1.78c0.04-1.29,0.95-1.62,2.08-1.61c4,0.01,8,0,12,0C73.5,77.25,74.97,77.25,76.45,77.25z"/>
</g>
<path class="st1" d="M169.85,187.72H31.21c-9.87,0-17.87-8-17.87-17.87V31.21c0-9.87,8-17.87,17.87-17.87h138.64
	c9.87,0,17.87,8,17.87,17.87v138.64C187.72,179.72,179.72,187.72,169.85,187.72z"/>
</svg>
