<?xml version="1.0" encoding="utf-8"?>
<!-- Generator: Adobe Illustrator 26.2.1, SVG Export Plug-In . SVG Version: 6.00 Build 0)  -->
<svg version="1.1" id="Calque_1" xmlns="http://www.w3.org/2000/svg" xmlns:xlink="http://www.w3.org/1999/xlink" x="0px" y="0px"
	 viewBox="0 0 400 400" style="enable-background:new 0 0 400 400;" xml:space="preserve">
<style type="text/css">
	.st0{fill:#303030;}
</style>
<g>
	<path class="st0" d="M188.03,391.97c-6.89-0.96-13.8-1.75-20.66-2.89C92.7,376.58,31.46,319.34,13.78,245.6
		c-21.3-88.81,21.49-180.01,104.5-218.32C185.39-3.69,250.36,3.15,311.61,44.53c6.37,4.31,7.78,11.52,3.8,17.24
		c-3.96,5.69-11.21,6.79-17.48,2.35c-20.56-14.54-43.09-24.46-67.95-28.69c-48.11-8.19-92.06,2.11-130.97,31.5
		C64.77,92.8,42.87,127.22,35.85,169.58c-11.02,66.48,9.86,122.18,63.11,163.53c62.29,48.37,147.16,46.04,208.19-4.22
		c33.9-27.91,53.42-64.27,59.11-107.86c4.52-34.67-1.68-67.51-17.74-98.52c-1.92-3.71-2.91-7.45-1.34-11.47
		c1.8-4.59,5.23-7.31,10.16-7.65c5.21-0.36,9.2,1.89,11.68,6.53c7.19,13.47,13.05,27.52,16.41,42.41
		c2.46,10.91,3.75,22.08,5.57,33.13c0.2,1.2,0.43,2.4,0.65,3.6c0,7.49,0,14.97,0,22.46c-0.22,1.08-0.47,2.16-0.64,3.25
		c-1.55,9.96-2.51,20.05-4.7,29.86c-16.35,73.12-79.17,132.3-152.93,144.34c-7.1,1.16-14.26,2.01-21.39,3
		C204,391.97,196.01,391.97,188.03,391.97z"/>
	<path class="st0" d="M185.46,267.44c0-18.86,0-36.77,0-55.25c-19.08,1.38-35.68-3.64-48.19-18.68
		c-7.86-9.46-11.79-20.46-11.69-32.76c0.12-15.73,6.24-28.82,18.12-39.1c11.92-10.31,26.18-13.23,41.93-12.03
		c0-8.3-0.04-15.99,0.02-23.68c0.02-1.98,0.02-4.04,0.57-5.91c1.47-5.06,6.46-8.5,11.61-8.34c5.22,0.16,9.94,3.82,11.18,8.92
		c0.46,1.91,0.54,3.95,0.55,5.93c0.06,7.47,0.02,14.94,0.02,22.93c2.63,0,4.96-0.03,7.29,0c27.21,0.43,47.61,18.25,51.65,45.16
		c0.29,1.96,0.36,3.98,0.35,5.97c-0.05,6.83-5.03,12.01-11.59,12.15c-6.64,0.14-12.03-4.69-12.26-11.49
		c-0.26-7.72-2.75-14.37-8.2-19.87c-7.44-7.5-16.73-8.69-27.23-7.71c0,9.01,0,18.06,0,27.11c0,8.98,0,17.95,0,27.59
		c20.4-1.44,37.79,4.38,50.21,21.28c7.11,9.68,10.39,20.7,9.69,32.68c-0.9,15.21-7.3,27.81-19.15,37.47
		c-11.75,9.59-25.56,12.29-40.75,11.19c0,8.12,0.04,15.69-0.03,23.26c-0.02,1.98-0.11,4.02-0.6,5.92c-1.4,5.45-7.02,9.26-12.45,8.67
		c-5.91-0.65-10.61-5.24-10.78-11.05c-0.22-7.35-0.08-14.72-0.1-22.08c0-1.34,0-2.69,0-4.64c-3.17,0-5.99,0.07-8.82-0.01
		c-25.06-0.72-44.92-17.48-49.76-42.07c-0.6-3.04-0.92-6.2-0.86-9.29c0.12-6.74,5.08-11.68,11.51-11.86
		c6.73-0.19,11.73,4.44,12.32,11.39c1.25,14.68,8.64,24.32,21.43,27.11C175.87,267.32,180.55,267.1,185.46,267.44z M185.34,133.7
		c-12.91-1.37-24.12,0.94-31.35,12.41c-6.12,9.72-6.11,19.92,0.09,29.6c7.29,11.37,18.49,13.71,31.25,12.33
		C185.34,170,185.34,152,185.34,133.7z M209.73,266.85c14.96,1.79,26.11-2.81,31.97-13.42c5.65-10.23,5.11-20.43-1.69-29.93
		c-6.52-9.11-16.92-12.9-30.28-10.68C209.73,230.75,209.73,248.69,209.73,266.85z"/>
	<path class="st0" d="M336.56,95.6c-6.82-0.04-14.34-7.79-14.3-14.75c0.04-6.52,5.4-11.84,11.94-11.86
		c7.03-0.03,14.63,7.83,14.46,14.96C348.51,90.52,343.2,95.64,336.56,95.6z"/>
</g>
</svg>
