<?xml version="1.0" encoding="utf-8"?>
<!-- Generator: Adobe Illustrator 26.2.1, SVG Export Plug-In . SVG Version: 6.00 Build 0)  -->
<svg version="1.1" xmlns="http://www.w3.org/2000/svg" xmlns:xlink="http://www.w3.org/1999/xlink" x="0px" y="0px"
	 viewBox="0 0 750 500" style="enable-background:new 0 0 750 500;" xml:space="preserve">
<style type="text/css">
	.st0{display:none;}
	.st1{display:inline;fill:#F6EADA;}
	.st2{fill:#FFFFFF;stroke:#000000;stroke-miterlimit:10;}
	.st3{fill:#FFFFFF;}
	.st4{opacity:0.7;fill:#FFFFFF;stroke:#000000;stroke-width:0.5;stroke-miterlimit:10;}
	.st5{opacity:0.8;fill:#FFFFFF;stroke:#000000;stroke-width:0.5;stroke-miterlimit:10;}
	.st6{stroke:#FFFFFF;stroke-width:0.5;stroke-miterlimit:10;}
	.st7{fill:#FFFFFF;stroke:#000000;stroke-width:0.5;stroke-miterlimit:10;}
	.st8{opacity:0.25;fill:#FFFFFF;}
	.st9{opacity:0.34;}
	.st10{fill:#EAEAEA;}
	.st11{fill:#C4C4C4;}
	.st12{opacity:0.41;}
	.st13{stroke:#000000;stroke-width:0.5;stroke-miterlimit:10;}
	.st14{opacity:0.45;stroke:#FFFFFF;stroke-width:0.5;stroke-miterlimit:10;}
	.st15{opacity:0.43;fill:#FFFFFF;stroke:#000000;stroke-width:0.5;stroke-miterlimit:10;}
	.st16{opacity:0.43;fill:#FFFFFF;stroke:#000000;stroke-miterlimit:10;}
	.st17{fill:none;stroke:#B8C9D9;stroke-width:0;stroke-linecap:round;stroke-linejoin:round;}
	.st18{opacity:0.35;}
	.st19{opacity:0.54;}
	.st20{opacity:0.81;}
	.st21{opacity:0.57;}
</style>
<g id="BACKGROUND" class="st0">
	<rect class="st1" width="750" height="500"/>
</g>
<g id="OBJECTS">
	<g>
		<g>
			<g>
				<path class="st2" d="M324.42,365.42c3.57-14.42,4.39-29.68,13.07-43.16c7.1-11.02,15.62-16.84,28.41-18.99
					c6.71-1.13,18.87,2.54,24.39,0.58c8.13-2.89,11.05-20.25,18.77-27.01c15.7-13.75,35.12-13.95,51.87-4.81
					c5.72-18.82,26.44-27.61,45.42-25.82c10.59,1,11.9,7.98,19.05,11.14c3.28,1.45,4.93-1,8.54-0.23
					c11.77,2.5,21.67,8.71,27.08,20.18c1.71,3.62,0.77,15.17,3.09,17.46c2.54,2.51,13.04,2.16,16.43,3.55
					c11.45,4.68,19.65,14.69,23.12,26.52c4.81,16.4,2.96,5.54,19.03,14.3c11.74,6.4,12.52,19.08,20.93,25.67
					c7,5.49,13.85,4.68,16.51,16.5c1.45,6.44,0.39,14.94-0.67,21.17c-55.16,2.71-112.89,2.88-169.03-0.58
					c-40.72-2.51-81.96,0.84-122.43-2.55c-21.77-1.83-43.35-7.03-65.04-6.86C304.72,380.4,312.9,364.66,324.42,365.42z"/>
				<path class="st2" d="M112.36,405.16c0.57-11.53-2.47-38.04,20.13-36.33c-5.59-27.85,18.62-44.33,45.66-43.61
					c0.28-19.05,9.98-41.29,29.44-48.26c10.48-3.76,24.57-8.28,35.04-3.75c7.5,3.24,10.27,11.56,15.34,14.46
					c4.61,2.64,3.35,0.11,9.56,0.4c17.93,0.84,27.49,5.59,34.16,21.25c17.59-6.93,45.06,4.79,51.32,23.4
					c10.69-4.44,22.66-0.25,30.59,8.58c3.97,4.42,11.01,11.23,13.91,15.9c5.56,8.95,8.31,34.22-1.64,39.56
					c-7.57,4.06-22.14,1.93-30.51,2.26c-22.87,0.92-45.55,0.48-68.48-0.47c-40.82-1.69-82.2-2.81-122.81,0
					C157.19,399.71,130.35,397.85,112.36,405.16z"/>
			</g>
			<g>
				<ellipse class="st2" cx="375" cy="404.31" rx="287.88" ry="20.55"/>
			</g>
		</g>
		<g>
			<path class="st3" d="M171.34,175.23h120.67c3.52-10.17-10.23-15.56-18.23-12.7c-1.69-12.11-6.72-23.14-19.52-16.46
				c-3.57-6.67-4.78-13.19-11.87-18.1c-10.97-7.6-19.05-1.51-26.83,6.04c-5.01,4.87-6.35,1.34-13.5,2.32
				c-12,1.64-13.43,12.45-16.94,21.73c-5.08-0.41-8.49-1.01-12.21,3.25C170.09,164.57,168.48,171.24,171.34,175.23z"/>
			<path class="st3" d="M479.71,147.59h105.5c3.08-8.89-8.95-13.6-15.94-11.1c-1.48-10.59-5.88-20.23-17.06-14.39
				c-3.12-5.83-4.18-11.53-10.38-15.82c-9.59-6.64-16.66-1.32-23.45,5.28c-4.38,4.26-5.55,1.18-11.8,2.03
				c-10.5,1.44-11.74,10.89-14.81,19c-4.44-0.35-7.42-0.88-10.67,2.85C478.62,138.27,477.21,144.1,479.71,147.59z"/>
		</g>
	</g>
	<g>
		<path d="M489.54,397.36c0,3.83-18.18,6.94-40.61,6.94c-22.43,0-40.61-3.11-40.61-6.94c0-3.84,18.18-6.94,40.61-6.94
			C471.36,390.42,489.54,393.53,489.54,397.36z"/>
		<g>
			<g>
				<path class="st4" d="M509.38,261.83c0.33,0.6,0.1,1.34-0.53,1.62c-0.49,0.23-1.09,0.31-1.55-0.15c0,0-0.12-0.1-0.29-0.27
					c-0.38-0.38-1.02-1.13-1.02-1.84c0-0.38,0.18-0.74,0.69-1.03c0.18-0.1,1.38-0.19,2.35,1.13
					C509.15,261.44,509.27,261.62,509.38,261.83z"/>
				<path class="st4" d="M507.01,263.03c0.49,1.07-0.87,1.74-0.87,1.74c-0.38,0.27-1.11-0.12-1.76-0.6c-0.69-0.51-1.29-1.1-1.29-1.1
					c-0.97-0.83-1.34-1.53-1.43-2.09c-0.18-1.06,0.7-1.63,0.7-1.63c1.53-0.88,3.63,1.84,3.63,1.84
					C505.99,261.9,506.64,262.65,507.01,263.03z"/>
				<path class="st4" d="M504.38,264.17c0.33,0.57,0.09,1.02-0.29,1.34c-0.8,0.67-1.97,0.59-2.76-0.06
					c-0.2-0.16-0.39-0.33-0.56-0.52c-0.58-0.58-1.01-1.15-1.01-1.15c-1.06-1.24-1.39-2.14-1.4-2.79c-0.01-1.04,0.8-1.43,0.8-1.43
					c1.28-0.73,2.49,1.43,2.49,1.43h0.01c0.09,0.56,0.46,1.26,1.43,2.09C503.09,263.07,503.69,263.67,504.38,264.17z"/>
				<path class="st4" d="M499.76,263.78c0,0,0.43,0.57,1.01,1.15c-1.88,1.88-3.73-1.91-3.73-1.91c-0.13-0.39-0.18-0.71-0.16-0.96
					c0.03-1.27,1.48-1.07,1.48-1.07C498.37,261.64,498.7,262.55,499.76,263.78z"/>
				<path class="st5" d="M507.3,263.84c-0.12,0-0.24-0.04-0.34-0.12c0,0-0.13-0.11-0.33-0.3c-0.54-0.54-1.18-1.36-1.18-2.22
					c0-0.3,0.24-0.54,0.54-0.54c0.3,0,0.54,0.24,0.54,0.54c0,0.37,0.32,0.92,0.86,1.46c0.14,0.14,0.24,0.23,0.25,0.23
					c0.23,0.19,0.26,0.53,0.07,0.75C507.61,263.77,507.46,263.84,507.3,263.84z"/>
				<path class="st5" d="M504.38,264.71c-0.11,0-0.22-0.03-0.32-0.1c-0.71-0.52-1.32-1.12-1.35-1.15c-0.92-0.79-1.46-1.6-1.58-2.39
					c-0.05-0.29,0.16-0.57,0.45-0.61c0.3-0.04,0.57,0.16,0.61,0.45c0.08,0.52,0.51,1.13,1.25,1.76c0.03,0.03,0.61,0.6,1.26,1.07
					c0.24,0.18,0.29,0.51,0.12,0.75C504.71,264.63,504.55,264.71,504.38,264.71z"/>
				<path class="st5" d="M500.77,265.47c-0.14,0-0.27-0.05-0.38-0.16c-0.6-0.6-1.04-1.18-1.06-1.21c-0.99-1.15-1.49-2.17-1.51-3.11
					c-0.01-0.3,0.23-0.54,0.53-0.55c0.33,0.02,0.54,0.23,0.55,0.53c0.01,0.66,0.44,1.49,1.27,2.45c0.03,0.03,0.44,0.58,0.98,1.12
					c0.21,0.21,0.21,0.55,0,0.76C501.04,265.42,500.91,265.47,500.77,265.47z"/>
			</g>
			<g>
				<path class="st6" d="M463.97,352.93c-0.13,0.49-0.21,0.75-0.21,0.75h-12.35l0.7-5.22l2.26-16.85l1.21-9.02
					c0.13-0.96,0.03-1.92-0.28-2.82l-14.5-41.86l-0.21-0.61c-2.61,23.6-6.96,69.99-7.51,75.78c-0.03,0.39-0.05,0.6-0.05,0.6h-11.07
					c-0.43-0.97-0.81-2.22-1.15-3.67c-2.74-11.86-2.4-37.69-2.14-42.87c0.03-0.61-0.01-1.24-0.12-1.85
					c-2.46-14.35-3.78-26.66-4.39-37.04c-0.06-1.11-0.13-2.19-0.17-3.26c12.83-1.43,12.15-19.51,12.15-19.51v-0.01
					c1.16,0.15,2.38,0.26,3.67,0.35c2.25,0.14,4.67,0.18,7.24,0.05c2.11-0.11,4.31-0.31,6.59-0.67v10.07l2.36,0.42l21.21,3.89
					C479.59,293.9,465.87,346.08,463.97,352.93z"/>
				<path class="st6" d="M451.6,191.61l0.83,4.91l-2.44,0.48c0-0.26-0.35-1.96-0.91-4.44c-1.86-8.33-5.91-25.38-5.91-25.38v-0.01
					c1.13,0.08,2.69,0.27,4.46,0.7L451.6,191.61z"/>
				<path class="st6" d="M428.67,194.45l1.13,6.71l-2.44,0.47c0-0.3-0.49-2.61-1.23-5.84c-1.99-8.8-5.7-24.4-5.7-24.4
					c2.15-0.52,3.63-0.64,3.63-0.64s0.27,1.14,1.04,2.55L428.67,194.45z"/>
				<g>
					<path class="st6" d="M457.57,213.77c-0.02,0.06-0.03,0.11-0.05,0.17C457.54,213.88,457.56,213.83,457.57,213.77L457.57,213.77z
						"/>
					<path class="st6" d="M457.34,206.37c-0.96-4.46-3.57-10.25-4.9-13.06h-0.01c-0.49-1.06-0.82-1.69-0.82-1.69h-0.01l0.83,4.91
						l-2.44,0.48c0-0.25-0.35-1.95-0.91-4.43c-7.96,4.6-20.4,1.88-20.4,1.88l1.12,6.7l-2.44,0.48c0-0.3-0.49-2.62-1.22-5.84
						l-1.76,9.72c2.85,7.11,8.49,16.57,19.35,23.55v-12.06l2.22-0.41h0.01c0.01-0.7,0.14-1.41,0.37-2.1
						c-1.11,0.51-2.48,0.79-4.11,0.75c0,0-12.51,1.2-10.91-13.61c0,0,11.95,3.1,19.94-0.98c0,0,0.6,4.06-0.42,7.89
						C452.95,207.15,455.33,206.57,457.34,206.37z M456.12,214.15c-0.05,0.2-0.1,0.41-0.14,0.59l1.42-0.26
						c0.03-0.18,0.07-0.36,0.12-0.53C457.32,214.59,456.12,214.15,456.12,214.15z M440.68,238.21l-12.99-5.46
						c-4.66-2.03-8.21-5.26-10.89-8.96c0,0-0.9,2.84-1.73,8.78c-0.23,1.59-0.45,3.41-0.64,5.45h0.01c0,0,12.54,5.77,29.2,2.88v-1.45
						L440.68,238.21z"/>
				</g>
				<g>
					<path class="st3" d="M443.64,240.91v4.3c-2.28,0.35-4.48,0.56-6.59,0.67c-2.57,0.13-4.99,0.09-7.23-0.05
						c-1.29-0.09-2.52-0.19-3.68-0.34c-7.4-0.88-12.06-2.73-12.06-2.73c0.1-1.69,0.23-3.26,0.35-4.72h0.01
						C414.44,238.03,426.98,243.79,443.64,240.91z"/>
					<path class="st6" d="M426.14,245.49c0,0,0.68,18.08-12.15,19.51c-0.41-8.93-0.28-16.32,0.09-22.25c0,0,4.67,1.85,12.06,2.73
						V245.49z"/>
					<path class="st6" d="M414.08,268.26c1.28-0.09,2.53-0.33,3.71-0.76c0.61-0.16,1.17-0.46,1.74-0.68
						c0.54-0.32,1.11-0.56,1.61-0.93c2.07-1.37,3.74-3.25,4.97-5.39l0.86-1.65c0.26-0.56,0.44-1.17,0.67-1.74l0.34-0.87l0.24-0.91
						c0.15-0.61,0.32-1.21,0.49-1.82c0.26-1.23,0.45-2.48,0.66-3.74c0.14-1.26,0.25-2.53,0.42-3.8c0.07,1.28,0.07,2.56,0.11,3.85
						c-0.11,1.28-0.21,2.57-0.38,3.85c-0.47,2.54-1.16,5.09-2.48,7.38c-1.32,2.26-3.17,4.28-5.48,5.56
						C419.3,267.89,416.63,268.5,414.08,268.26z"/>
					<path d="M414.44,238.03c2.36,0.76,4.75,1.36,7.17,1.83c2.41,0.45,4.84,0.85,7.28,1.05c2.44,0.23,4.89,0.35,7.35,0.33
						c2.46,0.03,4.91-0.18,7.4-0.34c-1.21,0.28-2.42,0.56-3.65,0.76c-1.23,0.16-2.47,0.34-3.72,0.41c-2.49,0.22-4.99,0.12-7.48-0.09
						c-2.49-0.23-4.96-0.67-7.37-1.32c-1.2-0.32-2.39-0.7-3.57-1.11C416.69,239.09,415.53,238.63,414.44,238.03z"/>
					<path d="M414.08,242.75c1.21,0.33,2.42,0.63,3.64,0.86c1.21,0.27,2.43,0.5,3.66,0.69c2.45,0.39,4.91,0.69,7.38,0.88
						c2.46,0.26,4.94,0.3,7.42,0.32c1.24,0.01,2.48-0.03,3.73-0.09c1.25-0.03,2.49-0.13,3.74-0.2c-1.21,0.31-2.45,0.52-3.69,0.72
						c-1.24,0.17-2.49,0.3-3.74,0.39c-2.51,0.18-5.03,0.16-7.54-0.07c-2.51-0.21-5-0.55-7.45-1.14
						C418.77,244.53,416.35,243.82,414.08,242.75z"/>
					<path class="st7" d="M440.68,238.21c-2.42,0.6-4.97,0.37-7.53,0.35c-4.21-0.04-7.77-1.4-11.65-2.8
						c-2.07-0.74-4.85-1.5-6.43-3.19c0.83-5.94,1.73-8.78,1.73-8.78c2.68,3.7,6.23,6.93,10.89,8.96L440.68,238.21z"/>
					<g>
						<g>
							<path class="st3" d="M451.25,200.65c0,0,0.6,4.06-0.42,7.89c-1.78,1.17-3.36,2.92-4.35,5.51c-0.05,0.15-0.11,0.29-0.15,0.44
								c-1.11,0.51-2.47,0.78-4.11,0.74c0,0-12.51,1.2-10.91-13.61C431.31,201.63,443.26,204.74,451.25,200.65z"/>
						</g>
						<g>
							<path class="st3" d="M432.27,203.42c0,0,10.05,2.82,17.87,0"/>
							<path d="M432.27,203.42c5.92,0.9,11.99,1.42,17.87,0C444.54,205.86,437.95,205.33,432.27,203.42L432.27,203.42z"/>
						</g>
					</g>
				</g>
			</g>
			<g>
				<path class="st7" d="M468.19,203.96c-2.02,0.12-4.35,0.71-6.39,2.43c0,0-1.23-0.2-3.02-0.13c-0.45,0.01-0.93,0.04-1.44,0.1
					c-0.96-4.46-3.57-10.25-4.9-13.06l7.97-1.9l4-0.96c0,0,2.97,9.19,3.77,13.38L468.19,203.96z"/>
				<path class="st7" d="M460.41,191.4c-0.09,0.43-0.14,0.84-0.2,1.16c-0.55,2.71-1.01,5.41-1.36,8.15
					c-0.22,1.83-0.16,3.7-0.07,5.55c-0.45,0.01-0.93,0.04-1.44,0.1c-0.96-4.46-3.57-10.25-4.9-13.06L460.41,191.4z"/>
			</g>
			<g>
				<path class="st7" d="M479.23,254.21c-0.18,0.29-0.45,0.5-0.75,0.61l-0.94,0.01c-0.11-0.02-0.2-0.06-0.3-0.11l-8-4.8
					c0.09,0.25,1.32,3.34,3.37,4.98c0.61,0.49,1.3,0.86,2.05,0.98c0.47,0.07,0.72,0.59,0.41,0.95c-0.42,0.51-1.14,1.05-2.31,1.16
					c-1.07,0.11-2.11-0.19-2.99-0.78c-1.47,1.01-2.85,0.71-4.01-0.1h-0.01c-2.38,1.2-4.48-0.02-6.22-2.1
					c-1.93-2.31-3.41-5.71-4.3-8.13c-0.59-1.59-0.93-2.76-0.97-2.93v-0.01c-0.01-0.01-0.01-0.01-0.01-0.01l-7.64-3.21l-2.97-1.25
					v-0.01l-15.95-6.7c-4.66-2.03-8.21-5.26-10.89-8.96c-7.05-9.64-8.31-22.33-8.45-24.1c-0.01-0.11-0.02-0.18-0.02-0.2l13.2-4.09
					c0,0,0.21,1.8,1,4.66c0.43,1.55,1.02,3.4,1.85,5.45c2.85,7.11,8.49,16.57,19.35,23.55c1.81,1.17,3.78,2.27,5.9,3.27
					c3.39,1.62,7.21,3,11.48,4.05c0,0,8.54-1.31,13.45,2.48c0.52,0.4,0.71,1.1,0.45,1.7c-0.22,0.53-0.75,0.85-1.3,0.85
					c-0.1,0-0.22-0.01-0.34-0.04l-4.28-1.08c-1.04-0.27-1.87,0.88-1.28,1.78c0.67,1.03,1.78,2.42,3.21,3.91
					c2.03,2.16,4.73,4.5,7.69,6.18C479.43,252.57,479.67,253.51,479.23,254.21z"/>
				<path class="st7" d="M469.77,257.74c-0.1,0-0.21-0.03-0.3-0.09c-0.45-0.31-0.85-0.67-1.19-1.07c-0.77-0.91-2.2-2.67-3.04-4.15
					c-0.15-0.26-0.06-0.59,0.2-0.73c0.26-0.15,0.59-0.06,0.73,0.2c0.8,1.4,2.18,3.1,2.93,3.99c0.27,0.33,0.6,0.62,0.97,0.87
					c0.25,0.17,0.31,0.5,0.14,0.75C470.11,257.66,469.94,257.74,469.77,257.74z"/>
				<path class="st7" d="M465.75,257.65c-0.11,0-0.21-0.03-0.31-0.1c-2.16-1.5-3.57-4.52-3.63-4.65c-0.12-0.27-0.01-0.59,0.26-0.71
					c0.27-0.13,0.59-0.01,0.71,0.26c0.01,0.03,1.35,2.89,3.27,4.21c0.24,0.17,0.3,0.5,0.14,0.75
					C466.09,257.57,465.92,257.65,465.75,257.65z"/>
				<path class="st7" d="M455.12,241.68c-0.1,0.62-0.4,1.13-0.65,1.71c-0.08,0.18-0.15,0.36-0.21,0.54
					c-0.01-0.01-0.01-0.01-0.01-0.01l-7.64-3.21c1.91-0.08,3.81-0.14,5.75-0.32C453.86,240.26,455.37,239.95,455.12,241.68z"/>
				<path class="st7" d="M422.53,200.07c-0.16-0.02-0.32-0.03-0.48-0.05c-3.44-0.31-6.76,0.15-10.21,0.13
					c-0.46-0.01-2.47-0.02-3.49-0.45c-0.01-0.11-0.02-0.18-0.02-0.2l13.2-4.09C421.53,195.4,421.74,197.21,422.53,200.07z"/>
			</g>
			<g>
				<g>
					<path class="st7" d="M474.86,394.59c1.76,2.62-0.41,4.22-2.72,5.13c-2.42,0.95-5.07,1.14-7.64,0.75
						c-9.85-1.48-12.57-8.55-12.57-8.55c-1.18-0.68-2.63-1.62-3.89-2.47c-1.61-1.1-2.9-2.02-2.9-2.02c-0.74-1.56,0.54-3,0.54-3
						c0.19,0.9,0.76,1.71,1.61,2.19c1.44,0.82,3.3,1.72,4.56,2.32c0.81,0.38,1.48,0.97,1.92,1.73c1.71,2.96,6.43,6.09,6.43,6.09
						c5.25,1.96,10.21,0.97,13.02,0.04C474.23,396.48,474.85,395.56,474.86,394.59z"/>
					<path class="st7" d="M474.86,394.58c-0.01,0.97-0.63,1.9-1.64,2.23c-2.81,0.92-7.77,1.91-13.02-0.04c0,0-4.72-3.14-6.43-6.1
						c-0.44-0.76-1.11-1.35-1.92-1.73c-0.15-0.07-0.3-0.15-0.47-0.22c-1.22-0.59-2.82-1.38-4.09-2.1c-0.85-0.48-1.42-1.29-1.61-2.19
						c-0.13-0.51-0.13-1.05,0.01-1.58c0.89-3.51,2.58-11.05,3.34-20.11c0.25-2.89,0.4-5.94,0.4-9.06h16.6l-4.61,17.41
						c-0.68,2.57-0.45,5.3,0.66,7.71l4.54,9.85l-0.02,0.17c2.37,0.36,5.94,1.41,7.91,4.5C474.76,393.71,474.87,394.15,474.86,394.58
						z"/>
					<path class="st7" d="M466.6,389.37c-0.03,0-0.05,0-0.08-0.01c-1.33-0.19-2.28-0.17-2.29-0.17c-0.25-0.01-0.54-0.22-0.55-0.52
						c-0.01-0.3,0.22-0.54,0.52-0.55c0.04,0,1.05-0.03,2.48,0.18c0.29,0.04,0.5,0.32,0.45,0.61
						C467.09,389.17,466.86,389.37,466.6,389.37z"/>
					<path class="st7" d="M452.2,387.48c-0.19,0.58-0.47,0.99-0.82,1.25c-1.22-0.59-2.82-1.38-4.09-2.1
						c-0.85-0.48-1.42-1.29-1.61-2.19c-0.13-0.51-0.13-1.05,0.01-1.58c0.89-3.51,2.58-11.05,3.34-20.11
						c0.79,1.35,1.44,3.09,1.91,4.35c0.76,2.03,0.83,3.91,0.63,6.02c-0.25,2.85-1.41,5.75-1.28,8.59
						C450.38,383.76,452.84,385.49,452.2,387.48z"/>
				</g>
				<g>
					<path class="st7" d="M447.66,394.84c1.53,3.73-2.96,3.77-4.43,3.69c-0.27-0.01-0.54-0.05-0.81-0.12
						c-4.61-1.14-7.63-0.28-7.63-0.28c-3.04,0.72-5.13,0.86-6.47,0.83c-1.87-0.05-3.16-1.86-2.61-3.64
						c0.13-0.43,0.26-0.72,0.26-0.72c1.67,3.11,6.88,1.4,6.88,1.4c0.68-0.13,1.47-0.25,2.29-0.33c2.74-0.3,5.5-0.13,8.23,0.26
						c1.42,0.19,2.46,0.02,3.2-0.26c0.45-0.16,0.78-0.48,0.99-0.87L447.66,394.84z"/>
					<path class="st7" d="M447.56,394.79c-0.2,0.39-0.54,0.71-0.99,0.87c-0.74,0.28-1.78,0.45-3.2,0.26
						c-2.73-0.39-5.49-0.56-8.23-0.26c-0.82,0.08-1.62,0.2-2.29,0.33c0,0-5.22,1.71-6.88-1.4c-0.2-0.35-0.34-0.77-0.42-1.25
						c0,0-0.37-4.2-0.97-10.86c-0.04-0.56-0.13-1.13-0.25-1.68l-5.52-27.11h17.55c0,0,0.62,9.36,2.07,18.7
						c0.98,6.28,2.32,12.56,4.11,15.96l-0.07,0.29c0.06,0.01,0.11,0.03,0.17,0.04c0.9,0.22,1.81,0.62,2.63,1.24
						c0.92,0.7,1.74,1.69,2.36,3.07C447.89,393.6,447.85,394.26,447.56,394.79z"/>
					<path class="st7" d="M442.64,388.67c-1.42,0.06-2.61-0.7-4.23-0.29c-1.29,0.32-2.54,0.99-3.29-0.51
						c-0.55-1.09-0.15-3.08,0.02-4.21c0.36-2.3,1.44-4.28,2.07-6.52c0.36-1.27,0.88-3,1.22-4.76c0.98,6.28,2.32,12.56,4.11,15.96
						l-0.07,0.29C442.53,388.64,442.58,388.67,442.64,388.67z"/>
					<path class="st7" d="M435.72,389.75c-0.21,0-0.42-0.13-0.5-0.34c-0.11-0.28,0.03-0.59,0.3-0.7c0.14-0.06,3.6-1.4,7.07-0.6
						c0.29,0.07,0.47,0.36,0.4,0.64c-0.07,0.29-0.36,0.47-0.64,0.4c-3.13-0.72-6.4,0.54-6.43,0.56
						C435.85,389.74,435.78,389.75,435.72,389.75z"/>
				</g>
			</g>
			<g>
				<g>
					<path d="M443.81,141.46c0.68-14.23-10.17-12.69-11.93-12.5c-0.14,0.02-0.29,0.04-0.43,0.09
						c-17.81,4.54-11.35,18.83-10.75,20.08c0.03,0.05,0.04,0.09,0.04,0.09c-0.71,0-1.38,0.25-1.89,0.64
						c-10.78-22.72,14.26-24.41,14.26-24.41c16.47-1,10.99,17.56,10.99,17.56c-0.09-0.46-0.19-0.92-0.3-1.4
						C443.8,141.55,443.8,141.51,443.81,141.46z"/>
					<g>
						<path class="st7" d="M461.56,146.1c-0.52,1.18-1.19,2.03-1.34,3.35c-0.06,0.54-0.11,1.09-0.21,1.62l-0.05,0.29
							c-0.22,1.09-0.63,2.1-1.62,2.84c-1.47,1.11-3.28,1.13-4.75,2.09c-0.05,0.03-0.11,0.07-0.16,0.12l-0.21,0.15
							c-0.93,0.77-1.5,1.91-2.48,2.61c-2.06,1.45-5.73,0.5-7.02-1.59c0.06-0.18,0.11-0.36,0.15-0.53c0.72-3,1.41-8.01,0.23-14.05
							c0,0,5.07-17.16-9.19-17.59c-0.13-0.01-0.26-0.01-0.39-0.01c-0.45,0-0.92,0.01-1.41,0.04c0,0-0.16,0.01-0.44,0.04
							c-0.1,0.01-0.21,0.02-0.34,0.04c-4.14,0.52-23.11,4.02-13.48,24.33c-0.72,0.57-1.18,1.44-1.18,2.43c0,1.7,1.37,3.07,3.07,3.07
							c0.42,0,0.83-0.08,1.2-0.25l1.16,8.52l-0.06,0.01c-1.15,0.65-2.55,0.98-3.89,0.86c-0.17-0.02-0.34-0.04-0.51-0.07
							c-0.14-0.02-0.28-0.05-0.41-0.08c-0.75-0.19-1.47-0.52-2.02-1.07c-0.79-0.77-1.09-1.92-1.86-2.69
							c-1.92-1.92-4.6,0.43-6.67-1.36c-0.31-0.27-0.64-0.6-0.93-0.98c-0.07-0.08-0.13-0.17-0.19-0.26
							c-0.47-0.67-0.82-1.44-0.82-2.18c-0.01-1.45,0.74-2.87,0.24-4.31c-0.62-1.82-2.31-3.01-2.93-4.93
							c-0.76-2.36-0.37-4.61,0.62-6.84c0.48-1.09,1.22-1.94,2.01-2.73c0.13-0.14,0.26-0.27,0.4-0.4l0.01-0.01
							c1.42-1.37,2.88-2.65,3.28-4.78c0.63-3.45,1.64-6.64,5.03-8.25c2.3-1.11,4.98-0.38,7.08-1.89c2.42-1.74,4.57-2.37,7.52-1.66
							c1.75,0.43,3.42,1.06,4.77,2.18c1.49-1.08,3.29-2.44,5.18-2.59c1.97-0.16,3.11,1.6,4.88,1.99c1.01,0.22,1.94-0.03,2.94-0.17
							c0.13-0.02,0.27-0.03,0.41-0.04c0.15-0.01,0.3-0.01,0.44-0.01c1.41,0.02,2.85,0.53,4.03,1.24c1.78,1.05,2.99,2.32,3.54,4.34
							c0.35,1.28,0.2,2.51,0.88,3.7c0.84,1.48,2.47,2.25,3.21,3.8c0.7,1.48,0.38,2.5,0.45,4.01
							C459.84,141.21,462.87,143.09,461.56,146.1z"/>
						<path class="st7" d="M431.88,128.96c1.76-0.19,12.61-1.73,11.93,12.5c-0.73-0.26-1.15-0.75-1.49-1.58
							c-0.63-1.57-0.51-2.69-2.1-3.55c-1.25-0.69-1.62-2.5-3.25-2.62c-0.71-0.05-1.17,0.23-1.87-0.05c-0.78-0.32-0.88-0.8-1.4-1.39
							c-0.47-0.55-0.74-0.51-1.34,0c-0.72,0.6-1.16,1.19-2.04,1.58c-0.71,0.31-1.41,0.15-2.11,0.43c-0.82,0.32-1.04,1.04-1.55,1.69
							c-0.9,1.13-2.33,1.05-2.91,2.53c-0.53,1.37-0.55,2.65-1.45,3.89c-0.78,1.06-1.34,1.57-1.2,2.95c0.08,0.7,0.2,1.44,0.13,2.14
							c-0.04,0.4-0.49,1.48-0.42,1.6l-0.11,0.05c-0.6-1.25-7.06-15.54,10.75-20.08C431.59,129,431.74,128.98,431.88,128.96z"/>
						<path class="st7" d="M429.75,123.72c1.17,0.4,2.01,1.02,2.92,1.76c-0.1,0.01-0.21,0.02-0.34,0.04
							c-0.82-0.65-1.61-1.2-2.66-1.56c-2.81-0.96-4.82-0.55-6.53,1.33c-0.77,0.85-1.05,0.89-1.9,1.01c-0.14,0.03-0.31,0.05-0.5,0.08
							c-2.72,0.46-4.34,1.97-5.58,5.22l-0.09,0.25c-0.41,1.09-0.51,1.35-1.42,2.16c-2.07,1.85-2.59,5.78-1.77,8.29
							c0.1,0.31,0.3,0.65,0.51,1.01c0.3,0.52,0.61,1.06,0.65,1.53c0.04,0.36-0.08,0.61-0.21,0.88c-0.06,0.12-0.12,0.25-0.17,0.39
							c-0.81,2.36-0.07,6.08,1.59,7.97c0.24,0.27,0.59,0.54,0.96,0.82c0.61,0.47,1.24,0.96,1.5,1.55c0.16,0.38,0.06,0.83-0.03,1.23
							c-0.04,0.18-0.08,0.35-0.09,0.5c-0.23,2.42,0.5,4.59,2.05,6.24c-0.14-0.02-0.28-0.05-0.41-0.08
							c-1.44-1.67-2.12-3.81-1.89-6.19c0.02-0.16,0.05-0.34,0.1-0.52c0.08-0.38,0.17-0.78,0.04-1.08c-0.23-0.53-0.84-1-1.42-1.45
							c-0.38-0.29-0.74-0.57-1-0.86c-1.74-1.98-2.49-5.74-1.63-8.21c0.05-0.16,0.11-0.29,0.17-0.42c0.13-0.25,0.22-0.46,0.19-0.75
							c-0.04-0.42-0.33-0.93-0.61-1.42c-0.22-0.38-0.43-0.73-0.53-1.06c-0.85-2.58-0.31-6.64,1.84-8.56
							c0.86-0.77,0.93-0.97,1.34-2.06l0.1-0.25c0.89-2.33,2.26-4.79,5.77-5.37c0.19-0.04,0.36-0.06,0.51-0.08
							c0.82-0.12,1.04-0.16,1.75-0.93C424.72,123.19,426.88,122.75,429.75,123.72z"/>
						<path class="st7" d="M453.43,156.41l-0.21,0.15c-0.59-1.57-1.74-2.9-2.97-3.43c-0.05-0.02-0.08-0.08-0.07-0.13
							c0.08-0.56,0.19-1.11,0.3-1.63c0.29-1.39,0.56-2.7,0.25-4.2c-0.29-1.39-0.96-2.77-1.84-3.77c-0.1-0.11-0.21-0.21-0.31-0.3
							c-0.26-0.23-0.5-0.45-0.55-0.84c-0.08-0.66,0.28-1.55,0.62-2.42c0.21-0.52,0.4-1,0.48-1.38c0.36-1.85,0.22-3.77-0.4-5.42
							c-0.51-1.34-1.7-4.5-3.49-4.73c-0.07-0.01-0.11-0.06-0.11-0.12c-0.01-0.29,0.01-0.58,0.04-0.85c0.05-0.63,0.1-1.22-0.21-1.83
							c-0.87-1.65-2.94-1.88-4.66-1.9h-0.1c-2,0-3.8,0.61-5.29,1.8c-0.13-0.01-0.26-0.01-0.39-0.01c1.58-1.34,3.52-2.04,5.68-2.04
							h0.11c1.78,0.02,3.94,0.27,4.87,2.04c0.35,0.67,0.29,1.32,0.24,1.96c-0.02,0.23-0.04,0.48-0.04,0.72
							c1.88,0.35,3.07,3.51,3.58,4.87c0.64,1.69,0.78,3.67,0.41,5.56c-0.08,0.4-0.27,0.89-0.48,1.42c-0.32,0.8-0.69,1.71-0.61,2.3
							c0.03,0.3,0.22,0.47,0.47,0.68c0.11,0.1,0.22,0.2,0.33,0.33c0.9,1.03,1.59,2.45,1.89,3.88c0.32,1.55,0.05,2.89-0.25,4.3
							c-0.1,0.49-0.2,1-0.28,1.52C451.68,153.51,452.82,154.85,453.43,156.41z"/>
						<path class="st7" d="M460.01,151.07l-0.05,0.29c-0.11-0.11-0.22-0.22-0.34-0.33c-0.08-0.07-0.16-0.15-0.24-0.24
							c-0.5-0.49-1.12-1.09-1.75-0.82c-0.03,0.01-0.06,0.01-0.1,0c-0.03-0.02-0.05-0.04-0.06-0.08c-0.19-0.53-0.16-1.14-0.13-1.73
							c0.01-0.21,0.02-0.41,0.02-0.61c-0.01-1.95-0.78-3.74-2.17-5.03c-0.24-0.23-0.45-0.35-0.63-0.46c-0.34-0.2-0.59-0.35-0.69-1
							c-0.09-0.55,0.03-1.17,0.14-1.77c0.08-0.39,0.15-0.75,0.16-1.09c0.05-1.01-0.05-2-0.32-3.04c-0.54-2.08-1.32-3.42-2.69-4.64
							c-0.07-0.06-0.13-0.11-0.18-0.15c-0.35-0.3-0.37-0.35-0.31-0.79c0.02-0.14,0.05-0.33,0.08-0.61c0.14-1.58-0.28-3.29-1.24-5.08
							c-0.64-1.18-1.38-1.92-2.33-2.52c0.15-0.01,0.3-0.01,0.44-0.01c0.84,0.59,1.52,1.32,2.11,2.41c0.98,1.84,1.41,3.59,1.27,5.23
							c-0.03,0.28-0.06,0.47-0.08,0.62c-0.05,0.33-0.05,0.33,0.22,0.56c0.05,0.04,0.11,0.09,0.18,0.16
							c1.42,1.25,2.22,2.63,2.77,4.76c0.28,1.06,0.39,2.08,0.33,3.11c-0.01,0.36-0.09,0.75-0.16,1.13
							c-0.11,0.58-0.23,1.18-0.15,1.68c0.09,0.54,0.25,0.63,0.58,0.83c0.18,0.11,0.41,0.24,0.67,0.49c1.45,1.34,2.24,3.19,2.25,5.21
							c0,0.2-0.01,0.41-0.02,0.62c-0.02,0.52-0.05,1.06,0.07,1.52c0.74-0.21,1.4,0.44,1.89,0.93c0.09,0.08,0.17,0.16,0.24,0.23
							C459.87,150.93,459.94,150.99,460.01,151.07z"/>
						<path class="st7" d="M409.32,153.46c-0.02,0.5-0.51,0.99-0.94,1.43c-0.22,0.22-0.43,0.43-0.55,0.61
							c-0.51,0.79-0.87,1.72-1.08,2.74c-0.07-0.08-0.13-0.17-0.19-0.26c0.21-0.97,0.57-1.86,1.06-2.61c0.14-0.2,0.35-0.42,0.58-0.66
							c0.4-0.4,0.85-0.86,0.87-1.26c0.01-0.19-0.18-0.48-0.33-0.72c-0.08-0.12-0.15-0.23-0.19-0.32c-0.5-1.02-0.82-1.89-1.01-2.76
							c-0.22-1.01-0.07-1.74,0.11-2.58c0.05-0.27,0.11-0.54,0.16-0.83c0.07-0.44,0.05-0.64-0.1-1.03c-0.09-0.25-0.28-0.49-0.46-0.73
							c-0.14-0.2-0.29-0.39-0.4-0.6c-0.43-0.83-0.83-1.88-1.2-3.2c-0.35-1.25-0.35-2.45,0.03-3.69c0.13-0.14,0.26-0.27,0.4-0.4
							c-0.51,1.37-0.57,2.67-0.19,4.02c0.37,1.3,0.76,2.34,1.18,3.16c0.1,0.18,0.24,0.36,0.38,0.56c0.19,0.25,0.39,0.51,0.49,0.79
							c0.17,0.43,0.19,0.67,0.11,1.16c-0.05,0.29-0.1,0.57-0.16,0.84c-0.17,0.82-0.32,1.52-0.11,2.47c0.19,0.85,0.5,1.71,0.99,2.71
							c0.04,0.08,0.1,0.18,0.17,0.29C409.13,152.88,409.33,153.2,409.32,153.46z"/>
					</g>
				</g>
				<g>
					<g>
						<path class="st7" d="M441.24,167.14c2.56,9.16-5.11,11.45-5.11,11.45c-6.41,0.91-9.58-2.67-11.02-5.29
							c-0.77-1.41-1.04-2.55-1.04-2.55l-0.98-7.13l-1.16-8.51c-0.37,0.16-0.77,0.25-1.19,0.25c-1.7,0-3.07-1.38-3.07-3.07
							c0-0.99,0.46-1.86,1.18-2.43c0.52-0.4,1.18-0.64,1.89-0.64c0,0-0.01-0.03-0.04-0.09l0.11-0.05c-0.08-0.12,0.38-1.2,0.42-1.6
							c0.08-0.7-0.05-1.44-0.13-2.14c-0.14-1.38,0.42-1.88,1.2-2.95c0.9-1.24,0.92-2.53,1.45-3.89c0.58-1.47,2.01-1.4,2.91-2.53
							c0.51-0.64,0.73-1.37,1.55-1.69c0.7-0.28,1.4-0.12,2.11-0.43c0.88-0.39,1.32-0.98,2.04-1.58c0.6-0.51,0.87-0.55,1.34,0
							c0.52,0.59,0.61,1.06,1.4,1.39c0.7,0.28,1.16,0,1.87,0.05c1.62,0.12,2,1.93,3.25,2.62c1.59,0.86,1.46,1.98,2.1,3.55
							c0.34,0.83,0.76,1.32,1.49,1.58c-0.01,0.05-0.01,0.1-0.01,0.15c0.11,0.47,0.21,0.94,0.3,1.4c1.18,6.04,0.49,11.05-0.23,14.05
							c-0.04,0.17-0.1,0.35-0.15,0.53c-0.58,1.86-1.81,3.44-3.45,4.4C439.74,162.29,440.99,166.24,441.24,167.14 M440.27,145.37
							c0-0.74-0.59-1.33-1.33-1.33c-0.73,0-1.32,0.59-1.32,1.33c0,0.73,0.59,1.32,1.32,1.32
							C439.68,146.69,440.27,146.1,440.27,145.37z M429.56,145.99c0-0.73-0.6-1.33-1.33-1.33c-0.73,0-1.33,0.6-1.33,1.33
							c0,0.74,0.6,1.33,1.33,1.33C428.95,147.33,429.56,146.74,429.56,145.99z"/>
					</g>
					<g>
						<path d="M438.94,144.04c0.74,0,1.33,0.59,1.33,1.33c0,0.73-0.59,1.32-1.33,1.32c-0.73,0-1.32-0.59-1.32-1.32
							C437.62,144.63,438.21,144.04,438.94,144.04z"/>
						<circle cx="428.22" cy="145.99" r="1.33"/>
						<path d="M429.78,154.8c1.68,0.7,3.34,1.16,4.98,1.02c0.81-0.06,1.63-0.23,2.4-0.57c0.41-0.13,0.77-0.36,1.17-0.55
							c0.39-0.2,0.75-0.46,1.17-0.66c-0.5,0.76-1.14,1.47-1.96,1.96c-0.79,0.54-1.75,0.81-2.71,0.9c-0.97,0.06-1.94-0.09-2.81-0.47
							C431.16,156.06,430.36,155.52,429.78,154.8z"/>
						<path d="M436,141.92c0.14-0.24,0.36-0.42,0.61-0.56c0.23-0.12,0.46-0.24,0.71-0.33c0.49-0.18,1.02-0.26,1.55-0.27
							c1.05,0,2.14,0.32,2.9,1.09c-1.07,0.03-1.97-0.04-2.9-0.02c-0.46-0.01-0.92,0.01-1.4,0.02l-0.73,0.01
							C436.5,141.85,436.27,141.88,436,141.92z"/>
						<path d="M432.81,151.41c0.94-0.3,1.9-0.49,2.86-0.63l-0.33,0.4c-0.17-0.96-0.29-1.92-0.35-2.89
							c-0.07-0.97-0.08-1.94,0.01-2.93c0.32,0.94,0.55,1.89,0.71,2.84c0.17,0.96,0.28,1.92,0.35,2.89l0,0.04
							c0.01,0.19-0.13,0.35-0.32,0.37l-0.01,0C434.77,151.54,433.8,151.53,432.81,151.41z"/>
						<path d="M423.9,143.83c0.31-0.53,0.78-0.93,1.28-1.25c0.51-0.33,1.08-0.54,1.67-0.68c0.6-0.12,1.22-0.16,1.82-0.04
							c0.6,0.09,1.17,0.33,1.66,0.69c-0.61,0.07-1.15,0.07-1.69,0.15c-0.53,0.06-1.05,0.13-1.56,0.25
							C426.04,143.16,425.05,143.49,423.9,143.83z"/>
						<path d="M419.11,151.21c0.66-0.1,1.35,0.19,1.85,0.64c0.5,0.47,0.81,1.12,0.82,1.78c-0.38-0.54-0.72-1.02-1.16-1.42
							C420.19,151.81,419.7,151.5,419.11,151.21z"/>
						<path d="M429.53,149.47c0.08,0.56-0.78,1.16-1.92,1.32c-1.14,0.17-2.14-0.15-2.22-0.72c-0.08-0.56,0.78-1.16,1.92-1.32
							C428.46,148.58,429.45,148.9,429.53,149.47z"/>
						<path d="M443.33,148.27c0.05,0.57-0.85,1.1-2,1.2c-1.15,0.1-2.13-0.29-2.17-0.85c-0.05-0.57,0.85-1.1,2-1.2
							C442.31,147.32,443.28,147.71,443.33,148.27z"/>
					</g>
				</g>
			</g>
			<g>
				<polygon class="st3" points="524.1,250.06 524.1,260.33 492.82,254.64 492.82,244.74 				"/>
				<polygon points="524.1,242.17 524.1,250.06 492.82,244.74 492.82,237.17 				"/>
				<polygon class="st3" points="524.1,234.46 524.1,242.17 492.82,237.17 492.82,228.12 				"/>
				<polygon points="524.1,225.87 524.1,234.46 492.82,228.12 492.82,217.66 				"/>
				<polygon class="st3" points="524.1,219.06 524.1,225.87 492.82,217.66 492.82,207.96 495.03,208.75 505.65,212.51 
					516.11,216.23 516.12,216.23 				"/>
				<path d="M524.1,260.33l-15.06,0.96c-0.98-1.32-2.17-1.23-2.35-1.13c-0.51,0.29-0.69,0.66-0.69,1.03c0,0-2.11-2.72-3.63-1.84
					c0,0-0.88,0.57-0.7,1.63h-0.01c0,0-1.21-2.16-2.49-1.43c0,0-0.81,0.39-0.8,1.43c0,0-1.45-0.19-1.48,1.07h-0.01l-11.93,0.75
					l-17.73-3.24L446,255.7l-2.36-0.43l15.81-0.2l0.08-0.06c1.74,2.09,3.85,3.3,6.22,2.11h0.01c1.16,0.81,2.54,1.11,4.01,0.1
					c0.88,0.59,1.92,0.89,2.99,0.78c1.17-0.12,1.89-0.66,2.31-1.16c0.31-0.37,0.06-0.88-0.41-0.96c-0.75-0.12-1.44-0.48-2.05-0.98
					l4.93-0.06c0.14,0.05,0.28,0.08,0.43,0.08c0.17,0,0.34-0.03,0.51-0.09l14.34-0.18L524.1,260.33z"/>
				<path class="st6" d="M518.19,214.35c-0.08,0.13-0.17,0.26-0.27,0.39c-0.41,0.55-1,1.06-1.8,1.49h-0.01l-10.46-3.72
					c0.23-0.23,0.44-0.47,0.63-0.7c0.25-0.3,0.46-0.61,0.63-0.92c0.7-1.18,0.93-2.38,0.9-3.49c0.02-0.02,0.09-0.09,0.17-0.18
					c3.36-3.4,9.2-1.91,10.53,2.68C518.92,211.32,519.03,212.96,518.19,214.35z"/>
				<path class="st6" d="M507.81,207.4c0.03,1.11-0.2,2.31-0.9,3.49c-0.17,0.31-0.38,0.62-0.63,0.92c-0.19,0.23-0.4,0.47-0.63,0.7
					l-10.62-3.76c0.05-0.5,0.09-0.99,0.13-1.47c0-0.05,0.01-0.09,0.01-0.14c0.09-1.19,0.15-2.31,0.19-3.36c0,0,3.1-4.17,7.46-3.16
					c2.04,0.48,3.66,2.06,4.41,4.03C507.53,205.43,507.78,206.38,507.81,207.4z"/>
				<path class="st6" d="M495.36,203.77c-0.04,1.05-0.1,2.17-0.19,3.36c0,0.05-0.01,0.09-0.01,0.14c-0.04,0.48-0.08,0.97-0.13,1.47
					l-2.21-0.78l-8.91,1.63c0,0-0.23-2.47-0.24-5.77c0-0.99,0.01-2.06,0.06-3.15c0.01-0.25,0.02-0.51,0.04-0.77
					c0.34-5.78,1.66-12.07,5.72-12.54C489.49,187.37,496.06,185.48,495.36,203.77z"/>
				<path class="st3" d="M492.82,244.74v9.9l-11.23,0.14l-3.11,0.04c0.3-0.11,0.57-0.32,0.75-0.61c0.44-0.7,0.2-1.63-0.52-2.04
					c-2.96-1.68-5.66-4.02-7.69-6.18l9.19-0.53L492.82,244.74z"/>
				<path d="M492.82,237.16v7.57l-12.61,0.72l-9.19,0.53c-1.43-1.49-2.54-2.88-3.21-3.91c-0.59-0.9,0.24-2.05,1.28-1.78l4.28,1.08
					c0.12,0.03,0.24,0.04,0.34,0.04c0.55,0,1.08-0.32,1.3-0.85c0.26-0.6,0.07-1.3-0.45-1.7l1.9-0.18L492.82,237.16z"/>
				<path class="st3" d="M492.82,228.12v9.05l-16.36,1.52l-1.9,0.18c-4.91-3.79-13.45-2.48-13.45-2.48
					c-4.27-1.05-8.09-2.43-11.48-4.05l15.89-1.55L492.82,228.12z"/>
				<path d="M492.82,217.65v10.46l-27.3,2.67l-15.89,1.55c-2.12-1-4.09-2.1-5.9-3.27v-4.59l12.96-1.8l0.14-0.02
					c0.28,2.21,0.99,5.45,2.72,5.04c0,0,0.74-1.78,1.02-5.56h0.02l6.04-0.84L492.82,217.65z"/>
				<path class="st3" d="M492.82,207.96v9.69l-26.19,3.64l-6.04,0.84h-0.02c0.07-0.9,0.12-1.91,0.12-3.04c0,0,4.51,3.45,5.05-4.36
					c0-0.01,0-0.01,0-0.01c0.01-0.06,0.02-0.13,0.02-0.19c0,0,4.11,3.27,6.67-2.76c0.02-0.02,0.03-0.05,0.04-0.07l6.98-1.28
					l4.46-0.83L492.82,207.96z"/>
				<path class="st6" d="M483.91,209.6l-4.46,0.83c-0.11-0.09-0.21-0.19-0.32-0.28c-0.27-0.24-0.54-0.48-0.79-0.71
					c-0.29-0.26-0.57-0.52-0.85-0.77c-1.65-1.53-3.03-2.94-4.18-4.23c-8.07-9.02-4.99-12.5-4.33-13.08c0.02,0,0.02-0.01,0.04-0.02
					c0.01-0.01,0.02-0.01,0.03-0.03c0.52-0.52,6.03-4.43,14.07,8.46c0.18,0.29,0.36,0.6,0.55,0.91h0.06
					c-0.05,1.09-0.06,2.16-0.06,3.15C483.68,207.12,483.91,209.6,483.91,209.6z"/>
				<path class="st3" d="M477.54,254.82l-4.93,0.07c-2.05-1.64-3.28-4.73-3.37-4.98l8,4.8C477.34,254.76,477.43,254.8,477.54,254.82
					z"/>
				<path class="st3" d="M459.53,255.01l-0.08,0.06l-15.81,0.21v-7.73l11.59-0.67C456.12,249.29,457.6,252.7,459.53,255.01z"/>
				<path class="st3" d="M456.66,220.71c0,0,0.03,0.85,0.17,1.95l-0.14,0.02l-12.96,1.8v-7.47l2.22-0.41h0.01
					c-0.03,0.73,0.06,1.45,0.3,2.15c0.48,1.47,1.57,2.5,3.92-0.41c0,0,3.84,3.99,5.8-3.59l1.41-0.26h0.01
					C456.99,216.26,456.73,218.32,456.66,220.71z"/>
				<path d="M455.23,246.88l-11.59,0.67v-8.08l10.61,4.46C454.25,243.93,454.59,245.15,455.23,246.88z"/>
				<path class="st6" d="M472.47,211.7c-0.01,0.02-0.02,0.05-0.03,0.08c-2.57,6.03-6.68,2.75-6.68,2.75
					c-0.48,8.07-5.07,4.57-5.07,4.57c0,1.13-0.04,2.14-0.12,3.03c-0.28,3.78-1.02,5.57-1.02,5.57c-1.73,0.41-2.44-2.84-2.72-5.04
					c-0.14-1.11-0.17-1.96-0.17-1.96c0.08-2.39,0.33-4.44,0.74-6.21c0.03-0.18,0.08-0.37,0.12-0.54l0.01-0.01
					c0.92-3.67,2.48-6.03,4.28-7.55c2.03-1.72,4.36-2.31,6.39-2.43c2.78-0.15,4.98,0.6,4.98,0.6l0.14-0.13c1.34,1.5,3,3.17,5.03,5
					c-1.26-0.73-2.91-0.18-4.07,0.39C473.46,210.22,472.84,210.89,472.47,211.7z"/>
				<path class="st6" d="M457.34,206.36c2.54-0.28,4.46,0.03,4.46,0.03c-1.8,1.52-3.35,3.88-4.28,7.55l-0.01,0.01
					c-0.19,0.63-1.4,0.2-1.4,0.2c-0.04,0.2-0.1,0.41-0.14,0.59c-1.96,7.58-5.79,3.59-5.79,3.59c-2.35,2.91-3.44,1.88-3.92,0.41
					c-0.24-0.7-0.33-1.42-0.3-2.15c0.01-0.7,0.14-1.41,0.37-2.1c0.04-0.15,0.1-0.29,0.15-0.44c0.99-2.59,2.57-4.34,4.35-5.51
					C452.95,207.16,455.33,206.58,457.34,206.36z"/>
				<path class="st8" d="M454.25,243.93l-10.61-4.46v15.81l15.81-0.21l0.08-0.06c-1.93-2.31-3.41-5.71-4.3-8.13
					C454.59,245.15,454.25,243.93,454.25,243.93z M469.24,249.91c0.09,0.25,1.32,3.34,3.37,4.98l4.93-0.07
					c-0.11-0.02-0.2-0.06-0.3-0.11L469.24,249.91z M478.48,254.82l3.11-0.04c0.04-2.94-14.14-38.1-15.66-39.85
					c-0.06-0.07-0.12-0.14-0.19-0.19c-0.54,7.81-5.05,4.36-5.05,4.36c0,1.13-0.05,2.14-0.12,3.04c-0.28,3.78-1.02,5.56-1.02,5.56
					c-1.73,0.41-2.44-2.83-2.72-5.04c-0.14-1.1-0.17-1.95-0.17-1.95c0.07-2.39,0.33-4.44,0.74-6.22h-0.01l-1.41,0.26
					c-1.96,7.58-5.8,3.59-5.8,3.59c-2.35,2.91-3.44,1.88-3.92,0.41c-0.24-0.7-0.33-1.42-0.3-2.15h-0.01l-2.22,0.41v12.06
					c1.81,1.17,3.78,2.27,5.9,3.27c3.39,1.62,7.21,3,11.48,4.05c0,0,8.54-1.31,13.45,2.48c0.52,0.4,0.71,1.1,0.45,1.7
					c-0.22,0.53-0.75,0.85-1.3,0.85c-0.1,0-0.22-0.01-0.34-0.04l-4.28-1.08c-1.04-0.27-1.87,0.88-1.28,1.78
					c0.67,1.03,1.78,2.42,3.21,3.91c2.03,2.16,4.73,4.5,7.69,6.18c0.72,0.41,0.96,1.34,0.52,2.04
					C479.05,254.49,478.78,254.71,478.48,254.82z"/>
				<path class="st9" d="M517.92,214.74c-0.41,0.55-1,1.06-1.8,1.49h-0.01l-10.46-3.72l-10.62-3.76l-2.21-0.78l-8.91,1.63
					l-4.46,0.83c-0.11-0.09-0.21-0.19-0.32-0.28c0.07-2.24,1.14-4.9,1.72-6.78c0.43-1.41,1.04-2.88,2.27-3.6
					c0.18-0.11,0.37-0.21,0.58-0.28c0,0.13,0.03,0.27,0.07,0.42c0.33,1.17,1.71,3.01,2.37,3.85c1.32,1.69,3.32,2.64,5.38,3.02
					c1.24,0.22,2.5,0.44,3.65,0.36c0.15-0.01,0.29-0.03,0.44-0.05c1.99-0.3,4.17-0.24,5.92,1.01c0.75,0.53,1.57,1.21,2.24,1.83
					c0.48,0.44,0.8,1.31,1.3,1.68c0.59,0.43,0.65,0.36,1.21,0.2c0.1-0.03,0.22-0.06,0.37-0.1c1.05-0.24,2.16-0.36,3.22-0.56
					c2.75-0.49,5.58,0.11,7.36,2.46C517.53,213.99,517.76,214.38,517.92,214.74z"/>
			</g>
			<g>
				<path class="st7" d="M443.16,167.2v-0.01c-1.2-0.09-1.92-0.05-1.92-0.05c2.56,9.16-5.1,11.45-5.1,11.45
					c-6.41,0.91-9.58-2.67-11.02-5.29l3.56,21.16c0,0,12.44,2.72,20.4-1.88C447.22,184.24,443.16,167.2,443.16,167.2z
					 M425.02,190.93c-2-8.7-4.58-19.53-4.58-19.53c-7.25,1.74-22.13,7.9-13.37,28.48l1.26-0.38l13.2-4.09c0,0,0.02,0.17,0.07,0.49
					c0.2,1.27,0.89,4.94,2.78,9.62l1.76-9.72C425.81,194.32,425.43,192.68,425.02,190.93z M447.63,167.88l2.54,15.22
					c0,0.01,0,0.02,0.01,0.02l1.42,8.5h0.01c0,0,0.33,0.63,0.82,1.69h0.01l4.65-1.11l7.32-1.75l1.3-0.31
					C464.05,174.54,454.31,169.49,447.63,167.88z"/>
				<path class="st10" d="M429.16,188.36c3.6,0.64,6.38-0.38,9.26-2.64c2.54-2,4.1-4.96,6.36-6.89c0.02,4.33-4.22,8.71-7.51,11.1
					C433.56,192.64,431.87,190.55,429.16,188.36z"/>
				<path class="st10" d="M457.09,192.2l-4.65,1.11h-0.01c-0.49-1.06-0.82-1.69-0.82-1.69h-0.01l-1.42-8.5
					c0.12,0.27,0.23,0.54,0.37,0.81c0.77,1.55,1.93,2.72,3.03,4.03C454.73,189.32,456.02,190.71,457.09,192.2z"/>
				<path class="st10" d="M426.14,195.79l-1.76,9.72c-1.89-4.68-2.58-8.35-2.78-9.62c0.19-0.32,0.43-0.65,0.73-0.97
					c0.88-0.95,2.04-2.45,2.69-4C425.43,192.68,425.81,194.32,426.14,195.79z"/>
				<path class="st11" d="M421.53,195.95c-0.24,0-0.46-0.16-0.52-0.41l-4.24-16.67c-0.07-0.29,0.1-0.58,0.39-0.65
					c0.29-0.08,0.58,0.1,0.65,0.39l4.24,16.67c0.07,0.29-0.1,0.58-0.39,0.65C421.62,195.94,421.57,195.95,421.53,195.95z"/>
			</g>
		</g>
	</g>
	<g>
		<path d="M347.21,399.33c0,3.83-21.33,6.94-47.64,6.94c-26.31,0-47.64-3.11-47.64-6.94c0-3.84,21.33-6.94,47.64-6.94
			C325.87,392.39,347.21,395.5,347.21,399.33z"/>
		<g>
			<path class="st6" d="M318.21,111.57c-0.09-2.19-1.8-4.01-4.04-4.19c-1.15-0.09-2.23,0.27-3.07,0.94
				c-1.01-1.77-2.78-3.09-4.96-3.44c-3.66-0.58-7.09,1.8-7.88,5.37c-0.16,0-0.33,0-0.49,0c-13.39,0.24-14.55,11.15-13.83,18.42
				c-1.3,1.12-1.99,2.88-1.66,4.69c0.47,2.58,2.84,4.33,5.4,4.09l0.09,1.64l27.79-1.54c2.95-0.16,5.21-2.69,5.05-5.64l-0.34-6.15
				c2.07-1.26,3.53-3.45,3.73-6.05C324.29,115.89,321.79,112.51,318.21,111.57z"/>
			<g>
				<path class="st7" d="M314,123.63c-1.81-0.14-3.37-1.06-4.4-2.39c-0.71,1.21-1.92,2.11-3.41,2.38c-2.45,0.45-4.81-0.98-5.62-3.26
					c-0.31-0.01-0.62-0.01-0.92,0c-0.69,0.67-1.58,1.15-2.6,1.34c-0.56,0.1-1.12,0.1-1.65,0.02c-1.08,0.81-1.92,1.94-2.32,3.24
					c-0.57,1.86-0.35,3.92-0.42,5.84c-0.03,0.89-0.03,1.77-0.07,2.66c-0.01,0.31,0.07,0.98-0.11,1.26
					c-1.42,2.17-0.32-0.59-2.23-2.98l0.02,0.41l-2.25,0.12c-1.82,0.1-3.21,1.66-3.11,3.48l0.13,2.3c0.1,1.82,1.66,3.21,3.48,3.11
					l2.25-0.12l0.2,3.68c0.06,1.05,0.26,2.06,0.57,3.02v14.05c0,3.79,3.1,6.88,6.88,6.88h6.1c3.79,0,6.88-3.1,6.88-6.88v-6.87
					c4.59-1.89,7.71-6.51,7.42-11.74l-0.15-2.64c0,0,0,0,0,0l-0.91-16.49c-0.02-0.43-0.07-0.86-0.14-1.28
					C316.57,123.41,315.32,123.73,314,123.63z"/>
				<g>
					<circle class="st12" cx="303.06" cy="155.01" r="6.33"/>
					<path class="st6" d="M299.6,156.26l11.06-0.07c4.76-0.03,8.6-3.87,8.57-8.58l-0.7-15.43l-0.44,6.6L294.95,139l-4.23-9.3
						l0.2,18.09C290.95,152.5,294.84,156.29,299.6,156.26z"/>
					<path d="M288.44,137.99c-0.1,0-0.2-0.04-0.27-0.11c-0.15-0.15-0.15-0.39,0-0.54l0.74-0.73l-1.33-1.36
						c-0.15-0.15-0.14-0.39,0.01-0.54c0.15-0.15,0.39-0.14,0.54,0.01l1.86,1.9l-1.29,1.26
						C288.63,137.95,288.53,137.99,288.44,137.99z"/>
					<g>
						<g>
							<path class="st3" d="M302.82,139.88c0,0,2.76,0.54,5.34,0.52c2.59-0.02,1.71,2.88-2.18,3.04
								C302.09,143.61,300.67,139.81,302.82,139.88z"/>
						</g>
					</g>
					<g>
						<path d="M298.96,128.29c0.45,0.08,0.97-0.11,1.47-0.25c0.51-0.16,1.02-0.31,1.47-0.42c0.45-0.11,0.97-0.22,1.5-0.32
							c0.52-0.11,1.06-0.19,1.42-0.47c0.35-0.26,0.39-0.78-0.21-1.25c-0.57-0.46-1.85-0.8-3.34-0.43c-1.49,0.38-2.45,1.27-2.72,1.95
							C298.24,127.78,298.52,128.22,298.96,128.29z"/>
					</g>
					<g>
						<g>
							<path d="M316.11,130.36c-0.34,0.15-0.78,0.12-1.2,0.1c-0.43-0.02-0.86-0.03-1.24-0.02c-0.38,0-0.81,0.03-1.24,0.06
								c-0.43,0.02-0.87,0.07-1.2-0.07c-0.32-0.13-0.46-0.53-0.09-1.02c0.35-0.48,1.28-1.01,2.53-1.03
								c1.24-0.01,2.17,0.49,2.53,0.96C316.57,129.81,316.44,130.21,316.11,130.36z"/>
						</g>
					</g>
					<path d="M304.22,132.97c0.25,0.46,0.08,1.04-0.38,1.29c-0.46,0.25-1.04,0.08-1.29-0.38c-0.25-0.46-0.08-1.04,0.38-1.29
						C303.4,132.33,303.97,132.5,304.22,132.97z"/>
					<path d="M314.89,132.75c0.25,0.46,0.08,1.04-0.38,1.29c-0.46,0.25-1.04,0.08-1.29-0.38c-0.25-0.46-0.08-1.04,0.38-1.29
						C314.06,132.12,314.64,132.29,314.89,132.75z"/>
					<path d="M312.82,134.57c-0.12,0-0.24-0.06-0.31-0.16c-0.12-0.17-0.08-0.41,0.09-0.53c0.05-0.04,1.24-0.87,2.85-0.11
						c0.19,0.09,0.27,0.32,0.18,0.51c-0.09,0.19-0.32,0.27-0.51,0.18c-1.19-0.57-2.05,0.01-2.08,0.04
						C312.97,134.55,312.9,134.57,312.82,134.57z"/>
					<path d="M302.33,134.89c-0.12,0-0.24-0.06-0.31-0.16c-0.12-0.17-0.08-0.41,0.09-0.53c0.05-0.04,1.24-0.87,2.85-0.11
						c0.19,0.09,0.27,0.32,0.18,0.51c-0.09,0.19-0.32,0.27-0.51,0.18c-1.19-0.57-2.05,0.01-2.08,0.04
						C302.48,134.87,302.41,134.89,302.33,134.89z"/>
					<path d="M304.19,137.01h-1.9c-2.49,0-4.52-2.03-4.52-4.52v-0.94c0-0.61,0.49-1.1,1.1-1.1H306c0.58,0,1.05,0.47,1.05,1.05v2.65
						C307.06,135.73,305.77,137.01,304.19,137.01z M298.87,131.21c-0.19,0-0.34,0.15-0.34,0.34v0.94c0,2.07,1.69,3.76,3.76,3.76h1.9
						c1.16,0,2.1-0.94,2.1-2.1v-2.65c0-0.16-0.13-0.29-0.29-0.29H298.87z"/>
					<path d="M315.24,137.01h-1.9c-1.58,0-2.87-1.29-2.87-2.87v-2.65c0-0.58,0.47-1.05,1.05-1.05h7.14c0.61,0,1.1,0.49,1.1,1.1v0.94
						C319.76,134.98,317.74,137.01,315.24,137.01z M311.53,131.21c-0.16,0-0.29,0.13-0.29,0.29v2.65c0,1.16,0.94,2.1,2.1,2.1h1.9
						c2.07,0,3.76-1.69,3.76-3.76v-0.94c0-0.19-0.15-0.34-0.34-0.34H311.53z"/>
					<g>
						<path d="M307.75,137.63c-0.27,0-0.56-0.01-0.86-0.04c-0.21-0.02-0.36-0.21-0.34-0.41c0.02-0.21,0.2-0.36,0.41-0.34
							c0.51,0.05,0.99,0.05,1.41,0.01c0.72-0.07,1.32-0.41,1.6-0.91c0.14-0.24,0.26-0.61,0.06-1.04l-2.25-4.93
							c-0.09-0.19,0-0.42,0.19-0.5c0.19-0.09,0.42,0,0.5,0.19l2.25,4.93c0.26,0.57,0.23,1.18-0.09,1.73
							c-0.41,0.71-1.23,1.19-2.19,1.29C308.23,137.62,307.99,137.63,307.75,137.63z"/>
					</g>
					<path d="M310.66,132.52c-0.04,0-0.09-0.01-0.13-0.02l-0.23-0.09c-1.07-0.4-2.23-0.37-3.27,0.08c-0.19,0.08-0.42-0.01-0.5-0.2
						c-0.08-0.19,0.01-0.42,0.2-0.5c1.23-0.53,2.59-0.56,3.84-0.09l0.23,0.09c0.2,0.07,0.3,0.29,0.22,0.49
						C310.96,132.43,310.81,132.52,310.66,132.52z"/>
					<path d="M298,132.04c-0.01,0-0.02,0-0.02,0l-8.06-0.53c-0.21-0.01-0.37-0.2-0.36-0.4c0.01-0.21,0.18-0.37,0.41-0.36l8.06,0.53
						c0.21,0.01,0.37,0.2,0.36,0.4C298.37,131.89,298.2,132.04,298,132.04z"/>
				</g>
			</g>
		</g>
		<g>
			<g>
				<g>
					<path class="st7" d="M312.8,384.9v15.14h32.48l0,0c0-2.89-1.96-5.4-4.75-6.12l-8.22-2.09c-0.64-0.16-1.23-0.5-1.7-0.97
						l-3.16-6.08L312.8,384.9z"/>
					<path class="st13" d="M326.57,389.84c-0.11,0-0.21-0.06-0.26-0.17c-0.06-0.14,0-0.31,0.14-0.38l2.86-1.29
						c0.14-0.06,0.31,0,0.38,0.14c0.06,0.14,0,0.31-0.14,0.38l-2.86,1.29C326.65,389.83,326.61,389.84,326.57,389.84z"/>
					<path class="st13" d="M327.6,392.33c-0.11,0-0.21-0.06-0.26-0.17c-0.06-0.14,0-0.31,0.14-0.38l2.86-1.29
						c0.14-0.06,0.31,0,0.38,0.14c0.06,0.14,0,0.31-0.14,0.38l-2.86,1.29C327.68,392.32,327.64,392.33,327.6,392.33z"/>
				</g>
				<rect x="312.8" y="399.33" width="32.48" height="1.86"/>
			</g>
			<g>
				<g>
					<path class="st7" d="M292.52,384.9v15.14h-32.48l0,0c0-2.89,1.96-5.4,4.75-6.12l8.22-2.09c0.64-0.16,1.23-0.5,1.7-0.97
						l3.16-6.08L292.52,384.9z"/>
					<path class="st13" d="M278.75,389.84c-0.04,0-0.08-0.01-0.12-0.03l-2.86-1.29c-0.14-0.06-0.21-0.23-0.14-0.38
						c0.07-0.14,0.23-0.21,0.38-0.14l2.86,1.29c0.14,0.06,0.21,0.23,0.14,0.38C278.96,389.78,278.86,389.84,278.75,389.84z"/>
					<path class="st13" d="M277.72,392.33c-0.04,0-0.08-0.01-0.12-0.03l-2.86-1.29c-0.14-0.06-0.21-0.23-0.14-0.38
						c0.06-0.14,0.24-0.21,0.38-0.14l2.86,1.29c0.14,0.06,0.21,0.23,0.14,0.38C277.93,392.27,277.83,392.33,277.72,392.33z"/>
				</g>
				
					<rect x="260.05" y="399.33" transform="matrix(-1 -1.224647e-16 1.224647e-16 -1 552.574 800.5219)" class="st13" width="32.48" height="1.86"/>
			</g>
			<path d="M331.49,256.64l-5.25,0.17v-12.41H277.3v12.39l-4.46-0.15l0.31,126.65c0.02,1.05,0.92,1.9,2.04,1.9l18.81-0.03
				c1.09,0,1.98-0.81,2.03-1.84l5.05-110.25h2.09l4.47,110.19c0.04,1.05,0.94,1.88,2.04,1.88l20.99-0.04c1.11,0,2.02-0.86,2.03-1.94
				L331.49,256.64z"/>
		</g>
		<g>
			<g>
				<g>
					<g>
						<g>
							<polygon class="st3" points="290.04,164.41 290.04,160.97 290.04,160.72 291.33,160.85 301.72,169.35 312.8,161.12 
								314.26,163.99 314.26,164.17 314.26,258.36 314.26,258.37 314.26,258.69 290.04,258.69 290.04,258.34 290.04,258.33 							
								"/>
						</g>
					</g>
				</g>
				<g>
					<g>
						<g>
							<g>
								<path class="st7" d="M332.01,224.03l0.03-5.35l0.64-2.76l0.2-0.02c8.9-0.68,15.38-8.71,14.18-17.56l-3.37-41.74
									c-0.1-1.29-1.13-2.31-2.42-2.41l-0.2-0.01l-14.38-1.08l-0.58-0.04c-1.03-0.08-1.9,0.73-1.92,1.76l-0.11,8.93l-8.96-2.22
									l-3.3-1.05l-0.25,16.73l-1.06,61.44l4.94,45.16c0.34,3.08,3.09,5.32,6.18,5.02l15.99-1.55c3-0.29,6.48-3.41,5.83-6.36
									L332.01,224.03z"/>
								<g>
									<path class="st7" d="M341.52,152.99c2.33-2.51,2.92-7.27,3-10.71l-2.42-0.05c0,0-3.97-8.86-13.22-6.52
										c-2.16,0.54-3.8,13.03-2.29,17.39l0.1,0.01l14.38,1.08L341.52,152.99z"/>
									<path class="st14" d="M341.53,139.5c0,0,2.73,9.25-7.31,9.33C324.18,148.92,327.83,132.63,341.53,139.5z"/>
									<g>
										<g>
											<path class="st7" d="M329.67,156.8L329.67,156.8c2.07,0.45,4.12-0.86,4.57-2.93l5.48-25.03l-7.5-1.64l-5.48,25.03
												C326.29,154.3,327.6,156.34,329.67,156.8z"/>
											<path class="st15" d="M330.07,154.97L330.07,154.97c1.7,0.37,3.42-0.9,3.85-2.84l5.14-23.45l-6.15-1.35l-5.14,23.45
												C327.34,152.73,328.37,154.6,330.07,154.97z"/>
											<path d="M330.37,153.64L330.37,153.64c1.55,0.34,3.08-0.64,3.42-2.19l4.11-18.75l-5.62-1.23l-4.11,18.75
												C327.83,151.76,328.81,153.3,330.37,153.64z"/>
											<path class="st7" d="M332.42,127.7l6.86,1.5c0.83,0.18,1.65-0.34,1.83-1.17l0,0c0.18-0.83-0.34-1.65-1.17-1.83l-6.86-1.5
												c-0.83-0.18-1.65,0.34-1.83,1.17l0,0C331.07,126.7,331.59,127.52,332.42,127.7z"/>
										</g>
										<path class="st16" d="M332.85,137.79c-0.04,0.19,0.08,0.38,0.27,0.42c0.19,0.04,0.38-0.08,0.42-0.27s-0.08-0.38-0.27-0.42
											C333.07,137.49,332.89,137.61,332.85,137.79z"/>
										<path class="st16" d="M333.68,142.59c-0.04,0.19,0.08,0.38,0.27,0.42c0.19,0.04,0.38-0.08,0.42-0.27
											c0.04-0.19-0.08-0.38-0.27-0.42C333.9,142.28,333.72,142.4,333.68,142.59z"/>
										<path class="st16" d="M330.46,143.94c-0.04,0.19,0.08,0.38,0.27,0.42c0.19,0.04,0.38-0.08,0.42-0.27
											c0.04-0.19-0.08-0.38-0.27-0.42C330.69,143.64,330.51,143.76,330.46,143.94z"/>
									</g>
									<g>
										<g>
											<path class="st7" d="M345.09,135.98L345.09,135.98c0.56,0.94,0.25,2.16-0.69,2.72l-5.78,3.44
												c-0.94,0.56-2.16,0.25-2.72-0.69l0,0c-0.56-0.94-0.25-2.16,0.69-2.72l5.78-3.44
												C343.31,134.73,344.53,135.04,345.09,135.98z"/>
											<path class="st7" d="M343.06,132.57L343.06,132.57c0.56,0.94,0.25,2.16-0.69,2.72l-5.78,3.44
												c-0.94,0.56-2.16,0.25-2.72-0.69l0,0c-0.56-0.94-0.25-2.16,0.69-2.72l5.78-3.44
												C341.28,131.32,342.51,131.63,343.06,132.57z"/>
											<path class="st7" d="M345.51,140.28L345.51,140.28c0.56,0.94,0.25,2.16-0.69,2.72l-3.48,2.07
												c-0.94,0.56-2.16,0.25-2.72-0.69l0,0c-0.56-0.94-0.25-2.16,0.69-2.72l3.48-2.07
												C343.73,139.03,344.95,139.34,345.51,140.28z"/>
										</g>
									</g>
									<path class="st7" d="M326.63,145.48c-1.98-2.51-1.28-6.28,1.57-7.72c1.18-0.59,2.54-0.94,4.03-0.7c0,0,2.31,0.65,0.74,2.6
										c-1.57,1.95-4.76,4.87-4.97,6.53c-0.21,1.66-0.28,0.65-0.28,0.65L326.63,145.48z"/>
									<g>
										<path class="st17" d="M344.53,142.28C344.53,142.27,344.53,142.27,344.53,142.28"/>
									</g>
								</g>
								<polygon class="st18" points="323.96,163.76 324.35,197.7 321.84,163.23 								"/>
								<path class="st18" d="M332.68,215.92c0,0-3.71,1.72-7.54-2.24l6.87,8.85l0.02-3.95L332.68,215.92z"/>
								<path class="st19" d="M311.84,206.44c-0.04,0-0.07-0.01-0.11-0.02c-0.2-0.06-0.32-0.27-0.25-0.47l9.1-30.16
									c0.03-0.08,0.01-0.13,0-0.16c-0.01-0.03-0.04-0.07-0.11-0.09l-4.12-1.39l4.57-4.1l-0.01-0.1l-4.95-2.82
									c-0.18-0.1-0.25-0.34-0.14-0.52c0.1-0.18,0.34-0.25,0.52-0.14l4.95,2.82c0.23,0.13,0.38,0.36,0.41,0.63
									c0.03,0.26-0.07,0.52-0.27,0.7l-3.6,3.23l2.89,0.98c0.24,0.08,0.44,0.25,0.55,0.48c0.11,0.23,0.12,0.49,0.04,0.73
									l-9.09,30.14C312.16,206.33,312,206.44,311.84,206.44z"/>
								<g class="st20">
									<g>
										<path d="M327.68,240.75l-9.79,1.74c-0.37,0.07-0.72-0.18-0.78-0.55l-0.07-0.39c-0.07-0.37,0.18-0.72,0.55-0.78l9.79-1.74
											c0.37-0.07,0.72,0.18,0.78,0.55l0.07,0.39C328.3,240.34,328.05,240.69,327.68,240.75z"/>
									</g>
								</g>
							</g>
						</g>
					</g>
					<g>
						<g>
							<g>
								<path class="st7" d="M291.28,198.13l-1.36-38.03l-21.4,8.1l0.01,0.12l-0.88,0.32c-5.79,2.09-10.16,6.93-11.66,12.9
									l-6.94,29.37l0.12,0.06c-0.82,2.61-0.51,5.35,1.56,7.82c3.2,3.81,8.78,5.47,14.2,4.24l8.6-4.45l0.17,1.84l-12.51,60.76
									c-0.65,2.95,1.42,5.8,4.42,6.09l15.99,1.55c3.09,0.3,5.84-1.94,6.18-5.02l4.94-45.16l-1.27-35.43c0,0,3.09-6.31,2.95-6.34
									c-0.77,0.54-1.65,1.14-1.93,1.16C292.08,198.07,291.69,198.1,291.28,198.13z M271.66,199.47l0.13-0.27l0.02,0.26
									C271.76,199.47,271.71,199.47,271.66,199.47z"/>
								<path class="st7" d="M295.69,196.04c-0.07,0-0.41,0.23-0.85,0.53C295.48,196.34,296.4,196.07,295.69,196.04z"/>
								<path class="st7" d="M294.41,196.88c0.15-0.11,0.3-0.21,0.43-0.3C294.48,196.71,294.2,196.83,294.41,196.88z"/>
							</g>
							<g class="st20">
								<g>
									<path d="M286.17,242.34l-9.86-1.25c-0.37-0.05-0.63-0.39-0.59-0.76l0.05-0.39c0.05-0.37,0.39-0.63,0.76-0.59l9.86,1.25
										c0.37,0.05,0.63,0.39,0.59,0.76l-0.05,0.39C286.88,242.13,286.54,242.39,286.17,242.34z"/>
								</g>
							</g>
							<path class="st19" d="M289.23,207.51c-0.17,0-0.32-0.11-0.37-0.29l-7.92-30.49c-0.07-0.22-0.05-0.48,0.07-0.71
								c0.12-0.23,0.32-0.39,0.57-0.46l2.92-0.86l-3.47-3.37c-0.19-0.18-0.28-0.45-0.24-0.71c0.04-0.26,0.2-0.49,0.44-0.61
								l5.05-2.63c0.18-0.1,0.42-0.02,0.51,0.16c0.1,0.19,0.02,0.42-0.16,0.51l-5.05,2.63l-0.01,0.1l4.41,4.27l-4.17,1.23
								c-0.06,0.02-0.1,0.06-0.11,0.09c-0.01,0.02-0.03,0.08-0.01,0.14l7.92,30.51c0.05,0.2-0.07,0.41-0.27,0.46
								C289.29,207.51,289.26,207.51,289.23,207.51z"/>
							<g>
								<polygon class="st18" points="287.3,198.17 274.56,197.44 272.71,191.36 271.98,199.35 								"/>
								<polygon class="st18" points="273.46,218.57 289.22,212.32 273.28,222.1 273.54,220.07 								"/>
								<g>
									<g>
										
											<rect x="298.82" y="188.93" transform="matrix(0.9947 -0.1032 0.1032 0.9947 -18.5086 32.1906)" class="st7" width="6.3" height="12.21"/>
										<path class="st7" d="M299.46,197l-7.21,16.14c-0.93,2.09,0.74,4.41,3.02,4.17l17.58-1.82c2.28-0.24,3.44-2.85,2.1-4.7
											l-10.37-14.32C303.24,194.62,300.39,194.91,299.46,197z"/>
										<path class="st15" d="M313.63,210.86l-8.87-12.25l-0.99-9.53l-4.73,0.49l0.97,9.4l-6.23,13.95
											c-0.82,1.83,0.65,3.85,2.64,3.65l15.38-1.59C313.78,214.77,314.8,212.48,313.63,210.86z"/>
										<path d="M305.47,204.76c0.93-0.48,2.07-0.23,2.71,0.6l1.11,1.43l2.35,3.31c1.28,1.8,0.13,4.3-2.06,4.51l-11.35,1.07
											c-2.19,0.21-3.79-2.04-2.87-4.04l2.01-4.42c0.81-1.76,3.11-2.2,4.98-1.69C303.26,205.78,304.33,205.35,305.47,204.76z"/>
										<path class="st7" d="M304.27,189.03l-5.74,0.6c-0.69,0.07-1.31-0.43-1.38-1.12l0,0c-0.07-0.69,0.43-1.31,1.12-1.38
											l5.74-0.6c0.69-0.07,1.31,0.43,1.38,1.12l0,0C305.46,188.34,304.96,188.96,304.27,189.03z"/>
									</g>
									<g>
										<path class="st7" d="M285.37,203.03l2.77-7.2c0.49-1.28,1.59-2.23,2.93-2.53l7.9-1.79c1.59-0.36,3.17,0.69,3.44,2.3
											l0.29,1.67l-5.33-0.43l7.61,0.61c0.85,0.07,1.39,0.95,1.05,1.74l0,0c-0.3,0.7-0.94,1.2-1.69,1.32l-7.92,1.21l9.13-0.19
											c0.65-0.01,1,0.76,0.56,1.24l0,0c-1.68,1.84-3.94,3.04-6.4,3.41l-2.14,0.32c0,0,1.99,6.03-2.62,11.3
											C294.94,216.01,282.89,217.84,285.37,203.03z"/>
										<g class="st21">
											<path class="st6" d="M302.62,194.98c-0.05-0.11-0.16-0.19-0.29-0.2l-5.56-0.22c-0.18-0.01-0.34,0.13-0.34,0.32
												c-0.01,0.18,0.13,0.34,0.32,0.34l5.56,0.22c0.18,0.01,0.34-0.13,0.34-0.32C302.65,195.08,302.64,195.03,302.62,194.98z"
												/>
											<path class="st6" d="M297.22,198.85c-0.06-0.13-0.19-0.21-0.34-0.2c-0.18,0.02-0.31,0.18-0.3,0.36
												c0,0,0.07,0.67,0.16,1.42c0.02,0.18,0.19,0.31,0.37,0.29c0.18-0.02,0.31-0.19,0.29-0.37c-0.09-0.74-0.16-1.4-0.16-1.4
												C297.24,198.92,297.23,198.88,297.22,198.85z"/>
											<path class="st6" d="M296.76,194.18c-0.06-0.13-0.19-0.21-0.34-0.2c-0.18,0.02-0.31,0.18-0.3,0.36
												c0,0,0.07,0.67,0.16,1.42c0.02,0.18,0.19,0.31,0.37,0.29c0.18-0.02,0.31-0.19,0.29-0.37c-0.09-0.74-0.16-1.4-0.16-1.4
												C296.78,194.24,296.77,194.21,296.76,194.18z"/>
											<path class="st6" d="M298.19,204.33c-0.06-0.14-0.21-0.22-0.36-0.19c-0.51,0.09-1.19-0.01-1.2-0.01
												c-0.18-0.03-0.35,0.1-0.37,0.28c-0.03,0.18,0.1,0.35,0.28,0.37c0.03,0,0.79,0.11,1.4,0c0.18-0.03,0.3-0.2,0.27-0.38
												C298.21,204.38,298.2,204.36,298.19,204.33z"/>
										</g>
									</g>
								</g>
							</g>
						</g>
					</g>
				</g>
			</g>
			<g>
				<path class="st7" d="M313.87,160.27l0.88,6.44l-4.97,8.44c-0.46,0.78-1.56,0.89-2.16,0.2l-5.72-6.53l9.62-9.37
					C312.33,158.66,313.71,159.14,313.87,160.27z"/>
				<path class="st7" d="M290.85,159.04l11.03,9.78l-6.11,6.69c-0.58,0.63-1.59,0.6-2.12-0.08l-6.67-8.46l2.78-7.66
					C289.94,158.87,290.5,158.73,290.85,159.04z"/>
				<g>
					<g>
						<path class="st7" d="M314.74,166.71l-4.97,8.44c-0.46,0.78-1.56,0.89-2.16,0.2l-5.72-6.53"/>
						<path class="st7" d="M308.61,176.19c-0.49,0-0.96-0.21-1.29-0.59l-5.72-6.53c-0.14-0.16-0.12-0.4,0.03-0.54
							c0.16-0.14,0.4-0.12,0.54,0.04l5.72,6.53c0.2,0.23,0.5,0.35,0.81,0.32c0.31-0.03,0.58-0.2,0.74-0.47l4.97-8.44
							c0.11-0.18,0.34-0.24,0.52-0.13c0.18,0.11,0.24,0.34,0.13,0.52l-4.97,8.44c-0.28,0.48-0.76,0.79-1.32,0.84
							C308.72,176.19,308.67,176.19,308.61,176.19z"/>
					</g>
					<g>
						<path class="st7" d="M301.89,168.83l-6.11,6.69c-0.58,0.63-1.59,0.6-2.12-0.08l-6.67-8.46"/>
						<path class="st7" d="M294.75,176.35c-0.02,0-0.04,0-0.06,0c-0.52-0.02-1-0.26-1.33-0.67l-6.67-8.46
							c-0.13-0.17-0.1-0.4,0.06-0.53c0.16-0.13,0.4-0.1,0.53,0.06l6.67,8.46c0.18,0.23,0.46,0.37,0.76,0.38
							c0.3,0.02,0.58-0.11,0.78-0.33l6.11-6.69c0.14-0.16,0.38-0.17,0.54-0.02c0.16,0.14,0.17,0.38,0.02,0.54l-6.11,6.69
							C295.72,176.14,295.25,176.35,294.75,176.35z"/>
					</g>
				</g>
			</g>
		</g>
	</g>
</g>
</svg>
