<?xml version="1.0" encoding="utf-8"?>
<!-- Generator: Adobe Illustrator 26.2.1, SVG Export Plug-In . SVG Version: 6.00 Build 0)  -->
<svg version="1.1" xmlns="http://www.w3.org/2000/svg" xmlns:xlink="http://www.w3.org/1999/xlink" x="0px" y="0px"
	 viewBox="0 0 750 500" style="enable-background:new 0 0 750 500;" xml:space="preserve">
<style type="text/css">
	.st0{display:none;}
	.st1{display:inline;fill:#F6EADA;}
	.st2{fill:#FFFFFF;stroke:#000000;stroke-miterlimit:10;}
	.st3{fill:#FFFFFF;}
	.st4{opacity:0.7;fill:#FFFFFF;stroke:#000000;stroke-width:0.5;stroke-miterlimit:10;enable-background:new    ;}
	.st5{opacity:0.8;fill:#FFFFFF;stroke:#000000;stroke-width:0.5;stroke-miterlimit:10;enable-background:new    ;}
	.st6{stroke:#FFFFFF;stroke-width:0.5;stroke-miterlimit:10;}
	.st7{fill:#FFFFFF;stroke:#000000;stroke-width:0.5;stroke-miterlimit:10;}
	.st8{opacity:0.25;fill:#FFFFFF;enable-background:new    ;}
	.st9{opacity:0.34;enable-background:new    ;}
	.st10{fill:#EAEAEA;}
	.st11{fill:#C4C4C4;}
	.st12{opacity:0.41;enable-background:new    ;}
	.st13{stroke:#000000;stroke-width:0.5;stroke-miterlimit:10;}
	.st14{opacity:0.45;stroke:#FFFFFF;stroke-width:0.5;stroke-miterlimit:10;enable-background:new    ;}
	.st15{opacity:0.43;fill:#FFFFFF;stroke:#000000;stroke-width:0.5;stroke-miterlimit:10;enable-background:new    ;}
	.st16{opacity:0.43;fill:#FFFFFF;stroke:#000000;stroke-miterlimit:10;enable-background:new    ;}
	.st17{fill:none;}
	.st18{opacity:0.35;enable-background:new    ;}
	.st19{opacity:0.54;enable-background:new    ;}
	.st20{opacity:0.81;}
	.st21{fill:#FFFFFF;stroke:#000000;stroke-width:0.5;stroke-miterlimit:10.0004;}
	.st22{opacity:0.57;}
	.st23{fill:url(#SVGID_1_);}
	.st24{fill:#727272;}
	.st25{fill:url(#SVGID_00000017480803512280053020000004302652866403955618_);}
</style>
<g id="Calque_1">
	<g id="BACKGROUND" class="st0">
		<rect class="st1" width="750" height="500"/>
	</g>
	<path class="st2" d="M324.4,365.4c3.6-14.4,4.4-29.7,13.1-43.2c7.1-11,15.6-16.8,28.4-19c6.7-1.1,18.9,2.5,24.4,0.6
		c8.1-2.9,11-20.2,18.8-27c15.7-13.8,35.1-14,51.9-4.8c5.7-18.8,26.4-27.6,45.4-25.8c10.6,1,11.9,8,19,11.1c3.3,1.5,4.9-1,8.5-0.2
		c11.8,2.5,21.7,8.7,27.1,20.2c1.7,3.6,0.8,15.2,3.1,17.5c2.5,2.5,13,2.2,16.4,3.5c11.5,4.7,19.7,14.7,23.1,26.5
		c4.8,16.4,3,5.5,19,14.3c11.7,6.4,12.5,19.1,20.9,25.7c7,5.5,13.8,4.7,16.5,16.5c1.5,6.4,0.4,14.9-0.7,21.2
		c-55.2,2.7-112.9,2.9-169-0.6c-40.7-2.5-82,0.8-122.4-2.5c-21.8-1.8-43.4-7-65-6.9C304.7,380.4,312.9,364.7,324.4,365.4z"/>
	<path class="st2" d="M112.4,405.2c0.6-11.5-2.5-38,20.1-36.3c-5.6-27.9,18.6-44.3,45.7-43.6c0.3-19,10-41.3,29.4-48.3
		c10.5-3.8,24.6-8.3,35-3.8c7.5,3.2,10.3,11.6,15.3,14.5c4.6,2.6,3.4,0.1,9.6,0.4c17.9,0.8,27.5,5.6,34.2,21.2
		c17.6-6.9,45.1,4.8,51.3,23.4c10.7-4.4,22.7-0.2,30.6,8.6c4,4.4,11,11.2,13.9,15.9c5.6,9,8.3,34.2-1.6,39.6
		c-7.6,4.1-22.1,1.9-30.5,2.3c-22.9,0.9-45.5,0.5-68.5-0.5c-40.8-1.7-82.2-2.8-122.8,0C157.2,399.7,130.4,397.9,112.4,405.2z"/>
	<g>
		<ellipse class="st2" cx="375" cy="404.3" rx="287.9" ry="20.5"/>
	</g>
	<g>
		<path class="st3" d="M171.3,175.2H292c3.5-10.2-10.2-15.6-18.2-12.7c-1.7-12.1-6.7-23.1-19.5-16.5c-3.6-6.7-4.8-13.2-11.9-18.1
			c-11-7.6-19.1-1.5-26.8,6c-5,4.9-6.4,1.3-13.5,2.3c-12,1.6-13.4,12.4-16.9,21.7c-5.1-0.4-8.5-1-12.2,3.2
			C170.1,164.6,168.5,171.2,171.3,175.2z"/>
		<path class="st3" d="M479.7,147.6h105.5c3.1-8.9-9-13.6-15.9-11.1c-1.5-10.6-5.9-20.2-17.1-14.4c-3.1-5.8-4.2-11.5-10.4-15.8
			c-9.6-6.6-16.7-1.3-23.5,5.3c-4.4,4.3-5.5,1.2-11.8,2c-10.5,1.4-11.7,10.9-14.8,19c-4.4-0.4-7.4-0.9-10.7,2.9
			C478.6,138.3,477.2,144.1,479.7,147.6z"/>
	</g>
	<path d="M489.5,397.4c0,3.8-18.2,6.9-40.6,6.9c-22.4,0-40.6-3.1-40.6-6.9c0-3.8,18.2-6.9,40.6-6.9
		C471.4,390.4,489.5,393.5,489.5,397.4z"/>
	<g>
		<g>
			<path class="st4" d="M509.4,261.8c0.3,0.6,0.1,1.3-0.5,1.6c-0.5,0.2-1.1,0.3-1.5-0.1c0,0-0.1-0.1-0.3-0.3c-0.4-0.4-1-1.1-1-1.8
				c0-0.4,0.2-0.7,0.7-1c0.2-0.1,1.4-0.2,2.4,1.1C509.1,261.4,509.3,261.6,509.4,261.8z"/>
			<path class="st4" d="M507,263c0.5,1.1-0.9,1.7-0.9,1.7c-0.4,0.3-1.1-0.1-1.8-0.6c-0.7-0.5-1.3-1.1-1.3-1.1
				c-1-0.8-1.3-1.5-1.4-2.1c-0.2-1.1,0.7-1.6,0.7-1.6c1.5-0.9,3.6,1.8,3.6,1.8C506,261.9,506.6,262.6,507,263z"/>
			<path class="st4" d="M504.4,264.2c0.3,0.6,0.1,1-0.3,1.3c-0.8,0.7-2,0.6-2.8-0.1c-0.2-0.2-0.4-0.3-0.6-0.5c-0.6-0.6-1-1.1-1-1.1
				c-1.1-1.2-1.4-2.1-1.4-2.8c0-1,0.8-1.4,0.8-1.4c1.3-0.7,2.5,1.4,2.5,1.4h0c0.1,0.6,0.5,1.3,1.4,2.1
				C503.1,263.1,503.7,263.7,504.4,264.2z"/>
			<path class="st4" d="M499.8,263.8c0,0,0.4,0.6,1,1.1c-1.9,1.9-3.7-1.9-3.7-1.9c-0.1-0.4-0.2-0.7-0.2-1c0-1.3,1.5-1.1,1.5-1.1
				C498.4,261.6,498.7,262.5,499.8,263.8z"/>
			<path class="st5" d="M507.3,263.8c-0.1,0-0.2,0-0.3-0.1c0,0-0.1-0.1-0.3-0.3c-0.5-0.5-1.2-1.4-1.2-2.2c0-0.3,0.2-0.5,0.5-0.5
				c0.3,0,0.5,0.2,0.5,0.5c0,0.4,0.3,0.9,0.9,1.5c0.1,0.1,0.2,0.2,0.2,0.2c0.2,0.2,0.3,0.5,0.1,0.8
				C507.6,263.8,507.5,263.8,507.3,263.8z"/>
			<path class="st5" d="M504.4,264.7c-0.1,0-0.2,0-0.3-0.1c-0.7-0.5-1.3-1.1-1.4-1.1c-0.9-0.8-1.5-1.6-1.6-2.4
				c0-0.3,0.2-0.6,0.5-0.6c0.3,0,0.6,0.2,0.6,0.5c0.1,0.5,0.5,1.1,1.2,1.8c0,0,0.6,0.6,1.3,1.1c0.2,0.2,0.3,0.5,0.1,0.8
				C504.7,264.6,504.5,264.7,504.4,264.7z"/>
			<path class="st5" d="M500.8,265.5c-0.1,0-0.3,0-0.4-0.2c-0.6-0.6-1-1.2-1.1-1.2c-1-1.1-1.5-2.2-1.5-3.1c0-0.3,0.2-0.5,0.5-0.5
				c0.3,0,0.5,0.2,0.5,0.5c0,0.7,0.4,1.5,1.3,2.5c0,0,0.4,0.6,1,1.1c0.2,0.2,0.2,0.5,0,0.8C501,265.4,500.9,265.5,500.8,265.5z"/>
		</g>
		<g>
			<path class="st6" d="M464,352.9c-0.1,0.5-0.2,0.8-0.2,0.8h-12.4l0.7-5.2l2.3-16.9l1.2-9c0.1-1,0-1.9-0.3-2.8l-14.5-41.9l-0.2-0.6
				c-2.6,23.6-7,70-7.5,75.8c0,0.4,0,0.6,0,0.6H422c-0.4-1-0.8-2.2-1.1-3.7c-2.7-11.9-2.4-37.7-2.1-42.9c0-0.6,0-1.2-0.1-1.9
				c-2.5-14.4-3.8-26.7-4.4-37c-0.1-1.1-0.1-2.2-0.2-3.3c12.8-1.4,12.1-19.5,12.1-19.5v0c1.2,0.1,2.4,0.3,3.7,0.4
				c2.2,0.1,4.7,0.2,7.2,0.1c2.1-0.1,4.3-0.3,6.6-0.7v10.1l2.4,0.4l21.2,3.9C479.6,293.9,465.9,346.1,464,352.9z"/>
			<path class="st6" d="M451.6,191.6l0.8,4.9L450,197c0-0.3-0.4-2-0.9-4.4c-1.9-8.3-5.9-25.4-5.9-25.4v0c1.1,0.1,2.7,0.3,4.5,0.7
				L451.6,191.6z"/>
			<path class="st6" d="M428.7,194.4l1.1,6.7l-2.4,0.5c0-0.3-0.5-2.6-1.2-5.8c-2-8.8-5.7-24.4-5.7-24.4c2.1-0.5,3.6-0.6,3.6-0.6
				s0.3,1.1,1,2.6L428.7,194.4z"/>
			<g>
				<path class="st6" d="M457.6,213.8c0,0.1,0,0.1,0,0.2C457.5,213.9,457.6,213.8,457.6,213.8L457.6,213.8z"/>
				<path class="st6" d="M457.3,206.4c-1-4.5-3.6-10.2-4.9-13.1h0c-0.5-1.1-0.8-1.7-0.8-1.7h0l0.8,4.9L450,197
					c0-0.2-0.4-1.9-0.9-4.4c-8,4.6-20.4,1.9-20.4,1.9l1.1,6.7l-2.4,0.5c0-0.3-0.5-2.6-1.2-5.8l-1.8,9.7c2.9,7.1,8.5,16.6,19.4,23.6
					V217l2.2-0.4h0c0-0.7,0.1-1.4,0.4-2.1c-1.1,0.5-2.5,0.8-4.1,0.8c0,0-12.5,1.2-10.9-13.6c0,0,12,3.1,19.9-1c0,0,0.6,4.1-0.4,7.9
					C453,207.1,455.3,206.6,457.3,206.4z M456.1,214.1c0,0.2-0.1,0.4-0.1,0.6l1.4-0.3c0-0.2,0.1-0.4,0.1-0.5
					C457.3,214.6,456.1,214.1,456.1,214.1z M440.7,238.2l-13-5.5c-4.7-2-8.2-5.3-10.9-9c0,0-0.9,2.8-1.7,8.8
					c-0.2,1.6-0.5,3.4-0.6,5.4h0c0,0,12.5,5.8,29.2,2.9v-1.4L440.7,238.2z"/>
			</g>
			<g>
				<path class="st3" d="M443.6,240.9v4.3c-2.3,0.4-4.5,0.6-6.6,0.7c-2.6,0.1-5,0.1-7.2-0.1c-1.3-0.1-2.5-0.2-3.7-0.3
					c-7.4-0.9-12.1-2.7-12.1-2.7c0.1-1.7,0.2-3.3,0.4-4.7h0C414.4,238,427,243.8,443.6,240.9z"/>
				<path class="st6" d="M426.1,245.5c0,0,0.7,18.1-12.1,19.5c-0.4-8.9-0.3-16.3,0.1-22.2C414.1,242.8,418.8,244.6,426.1,245.5
					L426.1,245.5z"/>
				<path class="st6" d="M414.1,268.3c1.3-0.1,2.5-0.3,3.7-0.8c0.6-0.2,1.2-0.5,1.7-0.7c0.5-0.3,1.1-0.6,1.6-0.9
					c2.1-1.4,3.7-3.2,5-5.4l0.9-1.6c0.3-0.6,0.4-1.2,0.7-1.7l0.3-0.9l0.2-0.9c0.1-0.6,0.3-1.2,0.5-1.8c0.3-1.2,0.5-2.5,0.7-3.7
					c0.1-1.3,0.2-2.5,0.4-3.8c0.1,1.3,0.1,2.6,0.1,3.9c-0.1,1.3-0.2,2.6-0.4,3.9c-0.5,2.5-1.2,5.1-2.5,7.4c-1.3,2.3-3.2,4.3-5.5,5.6
					C419.3,267.9,416.6,268.5,414.1,268.3z"/>
				<path d="M414.4,238c2.4,0.8,4.8,1.4,7.2,1.8c2.4,0.4,4.8,0.9,7.3,1.1c2.4,0.2,4.9,0.4,7.4,0.3c2.5,0,4.9-0.2,7.4-0.3
					c-1.2,0.3-2.4,0.6-3.6,0.8c-1.2,0.2-2.5,0.3-3.7,0.4c-2.5,0.2-5,0.1-7.5-0.1c-2.5-0.2-5-0.7-7.4-1.3c-1.2-0.3-2.4-0.7-3.6-1.1
					C416.7,239.1,415.5,238.6,414.4,238z"/>
				<path d="M414.1,242.8c1.2,0.3,2.4,0.6,3.6,0.9c1.2,0.3,2.4,0.5,3.7,0.7c2.5,0.4,4.9,0.7,7.4,0.9c2.5,0.3,4.9,0.3,7.4,0.3
					c1.2,0,2.5,0,3.7-0.1c1.2,0,2.5-0.1,3.7-0.2c-1.2,0.3-2.5,0.5-3.7,0.7c-1.2,0.2-2.5,0.3-3.7,0.4c-2.5,0.2-5,0.2-7.5-0.1
					c-2.5-0.2-5-0.6-7.5-1.1C418.8,244.5,416.4,243.8,414.1,242.8z"/>
				<path class="st7" d="M440.7,238.2c-2.4,0.6-5,0.4-7.5,0.4c-4.2,0-7.8-1.4-11.6-2.8c-2.1-0.7-4.9-1.5-6.4-3.2
					c0.8-5.9,1.7-8.8,1.7-8.8c2.7,3.7,6.2,6.9,10.9,9L440.7,238.2z"/>
				<g>
					<g>
						<path class="st3" d="M451.2,200.6c0,0,0.6,4.1-0.4,7.9c-1.8,1.2-3.4,2.9-4.4,5.5c0,0.1-0.1,0.3-0.1,0.4
							c-1.1,0.5-2.5,0.8-4.1,0.7c0,0-12.5,1.2-10.9-13.6C431.3,201.6,443.3,204.7,451.2,200.6z"/>
					</g>
					<g>
						<path class="st3" d="M432.3,203.4c0,0,10,2.8,17.9,0"/>
						<path d="M432.3,203.4c5.9,0.9,12,1.4,17.9,0C444.5,205.9,438,205.3,432.3,203.4L432.3,203.4z"/>
					</g>
				</g>
			</g>
		</g>
		<g>
			<path class="st7" d="M468.2,204c-2,0.1-4.4,0.7-6.4,2.4c0,0-1.2-0.2-3-0.1c-0.5,0-0.9,0-1.4,0.1c-1-4.5-3.6-10.2-4.9-13.1l8-1.9
				l4-1c0,0,3,9.2,3.8,13.4L468.2,204z"/>
			<path class="st7" d="M460.4,191.4c-0.1,0.4-0.1,0.8-0.2,1.2c-0.5,2.7-1,5.4-1.4,8.1c-0.2,1.8-0.2,3.7-0.1,5.6
				c-0.5,0-0.9,0-1.4,0.1c-1-4.5-3.6-10.2-4.9-13.1L460.4,191.4z"/>
		</g>
		<g>
			<path class="st7" d="M479.2,254.2c-0.2,0.3-0.5,0.5-0.8,0.6l-0.9,0c-0.1,0-0.2-0.1-0.3-0.1l-8-4.8c0.1,0.2,1.3,3.3,3.4,5
				c0.6,0.5,1.3,0.9,2,1c0.5,0.1,0.7,0.6,0.4,0.9c-0.4,0.5-1.1,1-2.3,1.2c-1.1,0.1-2.1-0.2-3-0.8c-1.5,1-2.9,0.7-4-0.1h0
				c-2.4,1.2-4.5,0-6.2-2.1c-1.9-2.3-3.4-5.7-4.3-8.1c-0.6-1.6-0.9-2.8-1-2.9v0c0,0,0,0,0,0l-7.6-3.2l-3-1.2v0l-16-6.7
				c-4.7-2-8.2-5.3-10.9-9c-7-9.6-8.3-22.3-8.5-24.1c0-0.1,0-0.2,0-0.2l13.2-4.1c0,0,0.2,1.8,1,4.7c0.4,1.6,1,3.4,1.9,5.4
				c2.9,7.1,8.5,16.6,19.4,23.6c1.8,1.2,3.8,2.3,5.9,3.3c3.4,1.6,7.2,3,11.5,4.1c0,0,8.5-1.3,13.5,2.5c0.5,0.4,0.7,1.1,0.5,1.7
				c-0.2,0.5-0.8,0.9-1.3,0.9c-0.1,0-0.2,0-0.3,0l-4.3-1.1c-1-0.3-1.9,0.9-1.3,1.8c0.7,1,1.8,2.4,3.2,3.9c2,2.2,4.7,4.5,7.7,6.2
				C479.4,252.6,479.7,253.5,479.2,254.2z"/>
			<path class="st7" d="M469.8,257.7c-0.1,0-0.2,0-0.3-0.1c-0.5-0.3-0.9-0.7-1.2-1.1c-0.8-0.9-2.2-2.7-3-4.1
				c-0.1-0.3-0.1-0.6,0.2-0.7c0.3-0.1,0.6-0.1,0.7,0.2c0.8,1.4,2.2,3.1,2.9,4c0.3,0.3,0.6,0.6,1,0.9c0.2,0.2,0.3,0.5,0.1,0.8
				C470.1,257.7,469.9,257.7,469.8,257.7z"/>
			<path class="st7" d="M465.8,257.6c-0.1,0-0.2,0-0.3-0.1c-2.2-1.5-3.6-4.5-3.6-4.6c-0.1-0.3,0-0.6,0.3-0.7c0.3-0.1,0.6,0,0.7,0.3
				c0,0,1.4,2.9,3.3,4.2c0.2,0.2,0.3,0.5,0.1,0.8C466.1,257.6,465.9,257.6,465.8,257.6z"/>
			<path class="st7" d="M455.1,241.7c-0.1,0.6-0.4,1.1-0.6,1.7c-0.1,0.2-0.1,0.4-0.2,0.5c0,0,0,0,0,0l-7.6-3.2
				c1.9-0.1,3.8-0.1,5.8-0.3C453.9,240.3,455.4,239.9,455.1,241.7z"/>
			<path class="st7" d="M422.5,200.1c-0.2,0-0.3,0-0.5-0.1c-3.4-0.3-6.8,0.1-10.2,0.1c-0.5,0-2.5,0-3.5-0.4c0-0.1,0-0.2,0-0.2
				l13.2-4.1C421.5,195.4,421.7,197.2,422.5,200.1z"/>
		</g>
		<g>
			<g>
				<path class="st7" d="M474.9,394.6c1.8,2.6-0.4,4.2-2.7,5.1c-2.4,1-5.1,1.1-7.6,0.8c-9.9-1.5-12.6-8.5-12.6-8.5
					c-1.2-0.7-2.6-1.6-3.9-2.5c-1.6-1.1-2.9-2-2.9-2c-0.7-1.6,0.5-3,0.5-3c0.2,0.9,0.8,1.7,1.6,2.2c1.4,0.8,3.3,1.7,4.6,2.3
					c0.8,0.4,1.5,1,1.9,1.7c1.7,3,6.4,6.1,6.4,6.1c5.2,2,10.2,1,13,0C474.2,396.5,474.9,395.6,474.9,394.6z"/>
				<path class="st7" d="M474.9,394.6c0,1-0.6,1.9-1.6,2.2c-2.8,0.9-7.8,1.9-13,0c0,0-4.7-3.1-6.4-6.1c-0.4-0.8-1.1-1.4-1.9-1.7
					c-0.1-0.1-0.3-0.1-0.5-0.2c-1.2-0.6-2.8-1.4-4.1-2.1c-0.9-0.5-1.4-1.3-1.6-2.2c-0.1-0.5-0.1-1,0-1.6c0.9-3.5,2.6-11,3.3-20.1
					c0.2-2.9,0.4-5.9,0.4-9.1H466l-4.6,17.4c-0.7,2.6-0.5,5.3,0.7,7.7l4.5,9.9l0,0.2c2.4,0.4,5.9,1.4,7.9,4.5
					C474.8,393.7,474.9,394.1,474.9,394.6z"/>
				<path class="st7" d="M466.6,389.4C466.6,389.4,466.6,389.4,466.6,389.4c-1.4-0.2-2.4-0.2-2.4-0.2c-0.2,0-0.5-0.2-0.5-0.5
					c0-0.3,0.2-0.5,0.5-0.5c0,0,1,0,2.5,0.2c0.3,0,0.5,0.3,0.5,0.6C467.1,389.2,466.9,389.4,466.6,389.4z"/>
				<path class="st7" d="M452.2,387.5c-0.2,0.6-0.5,1-0.8,1.2c-1.2-0.6-2.8-1.4-4.1-2.1c-0.9-0.5-1.4-1.3-1.6-2.2
					c-0.1-0.5-0.1-1,0-1.6c0.9-3.5,2.6-11,3.3-20.1c0.8,1.4,1.4,3.1,1.9,4.4c0.8,2,0.8,3.9,0.6,6c-0.2,2.9-1.4,5.8-1.3,8.6
					C450.4,383.8,452.8,385.5,452.2,387.5z"/>
			</g>
			<g>
				<path class="st7" d="M447.7,394.8c1.5,3.7-3,3.8-4.4,3.7c-0.3,0-0.5,0-0.8-0.1c-4.6-1.1-7.6-0.3-7.6-0.3c-3,0.7-5.1,0.9-6.5,0.8
					c-1.9,0-3.2-1.9-2.6-3.6c0.1-0.4,0.3-0.7,0.3-0.7c1.7,3.1,6.9,1.4,6.9,1.4c0.7-0.1,1.5-0.2,2.3-0.3c2.7-0.3,5.5-0.1,8.2,0.3
					c1.4,0.2,2.5,0,3.2-0.3C447,395.5,447.4,395.2,447.7,394.8L447.7,394.8z"/>
				<path class="st7" d="M447.6,394.8c-0.2,0.4-0.5,0.7-1,0.9c-0.7,0.3-1.8,0.5-3.2,0.3c-2.7-0.4-5.5-0.6-8.2-0.3
					c-0.8,0.1-1.6,0.2-2.3,0.3c0,0-5.2,1.7-6.9-1.4c-0.2-0.4-0.3-0.8-0.4-1.2c0,0-0.4-4.2-1-10.9c0-0.6-0.1-1.1-0.2-1.7l-5.5-27.1
					h17.5c0,0,0.6,9.4,2.1,18.7c1,6.3,2.3,12.6,4.1,16l-0.1,0.3c0.1,0,0.1,0,0.2,0c0.9,0.2,1.8,0.6,2.6,1.2c0.9,0.7,1.7,1.7,2.4,3.1
					C447.9,393.6,447.9,394.3,447.6,394.8z"/>
				<path class="st7" d="M442.6,388.7c-1.4,0.1-2.6-0.7-4.2-0.3c-1.3,0.3-2.5,1-3.3-0.5c-0.5-1.1-0.1-3.1,0-4.2
					c0.4-2.3,1.4-4.3,2.1-6.5c0.4-1.3,0.9-3,1.2-4.8c1,6.3,2.3,12.6,4.1,16l-0.1,0.3C442.5,388.6,442.6,388.7,442.6,388.7z"/>
				<path class="st7" d="M435.7,389.8c-0.2,0-0.4-0.1-0.5-0.3c-0.1-0.3,0-0.6,0.3-0.7c0.1-0.1,3.6-1.4,7.1-0.6
					c0.3,0.1,0.5,0.4,0.4,0.6c-0.1,0.3-0.4,0.5-0.6,0.4c-3.1-0.7-6.4,0.5-6.4,0.6C435.9,389.7,435.8,389.8,435.7,389.8z"/>
			</g>
		</g>
		<g>
			<g>
				<path d="M443.8,141.5c0.7-14.2-10.2-12.7-11.9-12.5c-0.1,0-0.3,0-0.4,0.1c-17.8,4.5-11.4,18.8-10.8,20.1c0,0.1,0,0.1,0,0.1
					c-0.7,0-1.4,0.2-1.9,0.6c-10.8-22.7,14.3-24.4,14.3-24.4c16.5-1,11,17.6,11,17.6c-0.1-0.5-0.2-0.9-0.3-1.4
					C443.8,141.6,443.8,141.5,443.8,141.5z"/>
				<g>
					<path class="st7" d="M461.6,146.1c-0.5,1.2-1.2,2-1.3,3.4c-0.1,0.5-0.1,1.1-0.2,1.6l0,0.3c-0.2,1.1-0.6,2.1-1.6,2.8
						c-1.5,1.1-3.3,1.1-4.8,2.1c0,0-0.1,0.1-0.2,0.1l-0.2,0.1c-0.9,0.8-1.5,1.9-2.5,2.6c-2.1,1.4-5.7,0.5-7-1.6
						c0.1-0.2,0.1-0.4,0.1-0.5c0.7-3,1.4-8,0.2-14.1c0,0,5.1-17.2-9.2-17.6c-0.1,0-0.3,0-0.4,0c-0.5,0-0.9,0-1.4,0c0,0-0.2,0-0.4,0
						c-0.1,0-0.2,0-0.3,0c-4.1,0.5-23.1,4-13.5,24.3c-0.7,0.6-1.2,1.4-1.2,2.4c0,1.7,1.4,3.1,3.1,3.1c0.4,0,0.8-0.1,1.2-0.2l1.2,8.5
						l-0.1,0c-1.1,0.6-2.5,1-3.9,0.9c-0.2,0-0.3,0-0.5-0.1c-0.1,0-0.3-0.1-0.4-0.1c-0.8-0.2-1.5-0.5-2-1.1c-0.8-0.8-1.1-1.9-1.9-2.7
						c-1.9-1.9-4.6,0.4-6.7-1.4c-0.3-0.3-0.6-0.6-0.9-1c-0.1-0.1-0.1-0.2-0.2-0.3c-0.5-0.7-0.8-1.4-0.8-2.2c0-1.4,0.7-2.9,0.2-4.3
						c-0.6-1.8-2.3-3-2.9-4.9c-0.8-2.4-0.4-4.6,0.6-6.8c0.5-1.1,1.2-1.9,2-2.7c0.1-0.1,0.3-0.3,0.4-0.4l0,0c1.4-1.4,2.9-2.6,3.3-4.8
						c0.6-3.4,1.6-6.6,5-8.2c2.3-1.1,5-0.4,7.1-1.9c2.4-1.7,4.6-2.4,7.5-1.7c1.8,0.4,3.4,1.1,4.8,2.2c1.5-1.1,3.3-2.4,5.2-2.6
						c2-0.2,3.1,1.6,4.9,2c1,0.2,1.9,0,2.9-0.2c0.1,0,0.3,0,0.4,0c0.1,0,0.3,0,0.4,0c1.4,0,2.9,0.5,4,1.2c1.8,1.1,3,2.3,3.5,4.3
						c0.4,1.3,0.2,2.5,0.9,3.7c0.8,1.5,2.5,2.2,3.2,3.8c0.7,1.5,0.4,2.5,0.5,4C459.8,141.2,462.9,143.1,461.6,146.1z"/>
					<path class="st7" d="M431.9,129c1.8-0.2,12.6-1.7,11.9,12.5c-0.7-0.3-1.1-0.8-1.5-1.6c-0.6-1.6-0.5-2.7-2.1-3.6
						c-1.2-0.7-1.6-2.5-3.2-2.6c-0.7-0.1-1.2,0.2-1.9-0.1c-0.8-0.3-0.9-0.8-1.4-1.4c-0.5-0.6-0.7-0.5-1.3,0c-0.7,0.6-1.2,1.2-2,1.6
						c-0.7,0.3-1.4,0.1-2.1,0.4c-0.8,0.3-1,1-1.5,1.7c-0.9,1.1-2.3,1.1-2.9,2.5c-0.5,1.4-0.5,2.6-1.5,3.9c-0.8,1.1-1.3,1.6-1.2,2.9
						c0.1,0.7,0.2,1.4,0.1,2.1c0,0.4-0.5,1.5-0.4,1.6l-0.1,0.1c-0.6-1.2-7.1-15.5,10.8-20.1C431.6,129,431.7,129,431.9,129z"/>
					<path class="st7" d="M429.8,123.7c1.2,0.4,2,1,2.9,1.8c-0.1,0-0.2,0-0.3,0c-0.8-0.7-1.6-1.2-2.7-1.6c-2.8-1-4.8-0.6-6.5,1.3
						c-0.8,0.8-1,0.9-1.9,1c-0.1,0-0.3,0.1-0.5,0.1c-2.7,0.5-4.3,2-5.6,5.2l-0.1,0.2c-0.4,1.1-0.5,1.4-1.4,2.2
						c-2.1,1.9-2.6,5.8-1.8,8.3c0.1,0.3,0.3,0.6,0.5,1c0.3,0.5,0.6,1.1,0.6,1.5c0,0.4-0.1,0.6-0.2,0.9c-0.1,0.1-0.1,0.2-0.2,0.4
						c-0.8,2.4-0.1,6.1,1.6,8c0.2,0.3,0.6,0.5,1,0.8c0.6,0.5,1.2,1,1.5,1.6c0.2,0.4,0.1,0.8,0,1.2c0,0.2-0.1,0.4-0.1,0.5
						c-0.2,2.4,0.5,4.6,2,6.2c-0.1,0-0.3-0.1-0.4-0.1c-1.4-1.7-2.1-3.8-1.9-6.2c0-0.2,0-0.3,0.1-0.5c0.1-0.4,0.2-0.8,0-1.1
						c-0.2-0.5-0.8-1-1.4-1.4c-0.4-0.3-0.7-0.6-1-0.9c-1.7-2-2.5-5.7-1.6-8.2c0-0.2,0.1-0.3,0.2-0.4c0.1-0.2,0.2-0.5,0.2-0.8
						c0-0.4-0.3-0.9-0.6-1.4c-0.2-0.4-0.4-0.7-0.5-1.1c-0.9-2.6-0.3-6.6,1.8-8.6c0.9-0.8,0.9-1,1.3-2.1l0.1-0.2
						c0.9-2.3,2.3-4.8,5.8-5.4c0.2,0,0.4-0.1,0.5-0.1c0.8-0.1,1-0.2,1.8-0.9C424.7,123.2,426.9,122.8,429.8,123.7z"/>
					<path class="st7" d="M453.4,156.4l-0.2,0.1c-0.6-1.6-1.7-2.9-3-3.4c0,0-0.1-0.1-0.1-0.1c0.1-0.6,0.2-1.1,0.3-1.6
						c0.3-1.4,0.6-2.7,0.2-4.2c-0.3-1.4-1-2.8-1.8-3.8c-0.1-0.1-0.2-0.2-0.3-0.3c-0.3-0.2-0.5-0.4-0.5-0.8c-0.1-0.7,0.3-1.6,0.6-2.4
						c0.2-0.5,0.4-1,0.5-1.4c0.4-1.9,0.2-3.8-0.4-5.4c-0.5-1.3-1.7-4.5-3.5-4.7c-0.1,0-0.1-0.1-0.1-0.1c0-0.3,0-0.6,0-0.8
						c0-0.6,0.1-1.2-0.2-1.8c-0.9-1.7-2.9-1.9-4.7-1.9h-0.1c-2,0-3.8,0.6-5.3,1.8c-0.1,0-0.3,0-0.4,0c1.6-1.3,3.5-2,5.7-2h0.1
						c1.8,0,3.9,0.3,4.9,2c0.4,0.7,0.3,1.3,0.2,2c0,0.2,0,0.5,0,0.7c1.9,0.4,3.1,3.5,3.6,4.9c0.6,1.7,0.8,3.7,0.4,5.6
						c-0.1,0.4-0.3,0.9-0.5,1.4c-0.3,0.8-0.7,1.7-0.6,2.3c0,0.3,0.2,0.5,0.5,0.7c0.1,0.1,0.2,0.2,0.3,0.3c0.9,1,1.6,2.4,1.9,3.9
						c0.3,1.6,0,2.9-0.2,4.3c-0.1,0.5-0.2,1-0.3,1.5C451.7,153.5,452.8,154.9,453.4,156.4z"/>
					<path class="st7" d="M460,151.1l0,0.3c-0.1-0.1-0.2-0.2-0.3-0.3c-0.1-0.1-0.2-0.1-0.2-0.2c-0.5-0.5-1.1-1.1-1.8-0.8
						c0,0-0.1,0-0.1,0c0,0,0,0-0.1-0.1c-0.2-0.5-0.2-1.1-0.1-1.7c0-0.2,0-0.4,0-0.6c0-1.9-0.8-3.7-2.2-5c-0.2-0.2-0.5-0.4-0.6-0.5
						c-0.3-0.2-0.6-0.4-0.7-1c-0.1-0.6,0-1.2,0.1-1.8c0.1-0.4,0.1-0.8,0.2-1.1c0-1,0-2-0.3-3c-0.5-2.1-1.3-3.4-2.7-4.6
						c-0.1-0.1-0.1-0.1-0.2-0.1c-0.4-0.3-0.4-0.4-0.3-0.8c0-0.1,0-0.3,0.1-0.6c0.1-1.6-0.3-3.3-1.2-5.1c-0.6-1.2-1.4-1.9-2.3-2.5
						c0.1,0,0.3,0,0.4,0c0.8,0.6,1.5,1.3,2.1,2.4c1,1.8,1.4,3.6,1.3,5.2c0,0.3-0.1,0.5-0.1,0.6c0,0.3,0,0.3,0.2,0.6
						c0,0,0.1,0.1,0.2,0.2c1.4,1.2,2.2,2.6,2.8,4.8c0.3,1.1,0.4,2.1,0.3,3.1c0,0.4-0.1,0.8-0.2,1.1c-0.1,0.6-0.2,1.2-0.1,1.7
						c0.1,0.5,0.2,0.6,0.6,0.8c0.2,0.1,0.4,0.2,0.7,0.5c1.5,1.3,2.2,3.2,2.2,5.2c0,0.2,0,0.4,0,0.6c0,0.5,0,1.1,0.1,1.5
						c0.7-0.2,1.4,0.4,1.9,0.9c0.1,0.1,0.2,0.2,0.2,0.2C459.9,150.9,459.9,151,460,151.1z"/>
					<path class="st7" d="M409.3,153.5c0,0.5-0.5,1-0.9,1.4c-0.2,0.2-0.4,0.4-0.5,0.6c-0.5,0.8-0.9,1.7-1.1,2.7
						c-0.1-0.1-0.1-0.2-0.2-0.3c0.2-1,0.6-1.9,1.1-2.6c0.1-0.2,0.4-0.4,0.6-0.7c0.4-0.4,0.9-0.9,0.9-1.3c0-0.2-0.2-0.5-0.3-0.7
						c-0.1-0.1-0.1-0.2-0.2-0.3c-0.5-1-0.8-1.9-1-2.8c-0.2-1-0.1-1.7,0.1-2.6c0-0.3,0.1-0.5,0.2-0.8c0.1-0.4,0-0.6-0.1-1
						c-0.1-0.2-0.3-0.5-0.5-0.7c-0.1-0.2-0.3-0.4-0.4-0.6c-0.4-0.8-0.8-1.9-1.2-3.2c-0.4-1.2-0.4-2.4,0-3.7c0.1-0.1,0.3-0.3,0.4-0.4
						c-0.5,1.4-0.6,2.7-0.2,4c0.4,1.3,0.8,2.3,1.2,3.2c0.1,0.2,0.2,0.4,0.4,0.6c0.2,0.2,0.4,0.5,0.5,0.8c0.2,0.4,0.2,0.7,0.1,1.2
						c0,0.3-0.1,0.6-0.2,0.8c-0.2,0.8-0.3,1.5-0.1,2.5c0.2,0.9,0.5,1.7,1,2.7c0,0.1,0.1,0.2,0.2,0.3
						C409.1,152.9,409.3,153.2,409.3,153.5z"/>
				</g>
			</g>
			<g>
				<g>
					<path class="st7" d="M441.2,167.1c2.6,9.2-5.1,11.4-5.1,11.4c-6.4,0.9-9.6-2.7-11-5.3c-0.8-1.4-1-2.6-1-2.6l-1-7.1l-1.2-8.5
						c-0.4,0.2-0.8,0.2-1.2,0.2c-1.7,0-3.1-1.4-3.1-3.1c0-1,0.5-1.9,1.2-2.4c0.5-0.4,1.2-0.6,1.9-0.6c0,0,0,0,0-0.1l0.1-0.1
						c-0.1-0.1,0.4-1.2,0.4-1.6c0.1-0.7,0-1.4-0.1-2.1c-0.1-1.4,0.4-1.9,1.2-2.9c0.9-1.2,0.9-2.5,1.5-3.9c0.6-1.5,2-1.4,2.9-2.5
						c0.5-0.6,0.7-1.4,1.5-1.7c0.7-0.3,1.4-0.1,2.1-0.4c0.9-0.4,1.3-1,2-1.6c0.6-0.5,0.9-0.6,1.3,0c0.5,0.6,0.6,1.1,1.4,1.4
						c0.7,0.3,1.2,0,1.9,0.1c1.6,0.1,2,1.9,3.2,2.6c1.6,0.9,1.5,2,2.1,3.6c0.3,0.8,0.8,1.3,1.5,1.6c0,0.1,0,0.1,0,0.1
						c0.1,0.5,0.2,0.9,0.3,1.4c1.2,6,0.5,11.1-0.2,14.1c0,0.2-0.1,0.4-0.1,0.5c-0.6,1.9-1.8,3.4-3.5,4.4
						C439.7,162.3,441,166.2,441.2,167.1 M440.3,145.4c0-0.7-0.6-1.3-1.3-1.3c-0.7,0-1.3,0.6-1.3,1.3c0,0.7,0.6,1.3,1.3,1.3
						C439.7,146.7,440.3,146.1,440.3,145.4z M429.6,146c0-0.7-0.6-1.3-1.3-1.3c-0.7,0-1.3,0.6-1.3,1.3c0,0.7,0.6,1.3,1.3,1.3
						C429,147.3,429.6,146.7,429.6,146z"/>
				</g>
				<g>
					<path d="M438.9,144c0.7,0,1.3,0.6,1.3,1.3c0,0.7-0.6,1.3-1.3,1.3c-0.7,0-1.3-0.6-1.3-1.3C437.6,144.6,438.2,144,438.9,144z"/>
					<circle cx="428.2" cy="146" r="1.3"/>
					<path d="M429.8,154.8c1.7,0.7,3.3,1.2,5,1c0.8-0.1,1.6-0.2,2.4-0.6c0.4-0.1,0.8-0.4,1.2-0.6c0.4-0.2,0.8-0.5,1.2-0.7
						c-0.5,0.8-1.1,1.5-2,2c-0.8,0.5-1.8,0.8-2.7,0.9c-1,0.1-1.9-0.1-2.8-0.5C431.2,156.1,430.4,155.5,429.8,154.8z"/>
					<path d="M436,141.9c0.1-0.2,0.4-0.4,0.6-0.6c0.2-0.1,0.5-0.2,0.7-0.3c0.5-0.2,1-0.3,1.5-0.3c1,0,2.1,0.3,2.9,1.1
						c-1.1,0-2,0-2.9,0c-0.5,0-0.9,0-1.4,0l-0.7,0C436.5,141.9,436.3,141.9,436,141.9z"/>
					<path d="M432.8,151.4c0.9-0.3,1.9-0.5,2.9-0.6l-0.3,0.4c-0.2-1-0.3-1.9-0.4-2.9c-0.1-1-0.1-1.9,0-2.9c0.3,0.9,0.5,1.9,0.7,2.8
						c0.2,1,0.3,1.9,0.4,2.9v0c0,0.2-0.1,0.4-0.3,0.4h0C434.8,151.5,433.8,151.5,432.8,151.4z"/>
					<path d="M423.9,143.8c0.3-0.5,0.8-0.9,1.3-1.2c0.5-0.3,1.1-0.5,1.7-0.7c0.6-0.1,1.2-0.2,1.8,0c0.6,0.1,1.2,0.3,1.7,0.7
						c-0.6,0.1-1.1,0.1-1.7,0.1c-0.5,0.1-1,0.1-1.6,0.2C426,143.2,425,143.5,423.9,143.8z"/>
					<path d="M419.1,151.2c0.7-0.1,1.4,0.2,1.9,0.6c0.5,0.5,0.8,1.1,0.8,1.8c-0.4-0.5-0.7-1-1.2-1.4
						C420.2,151.8,419.7,151.5,419.1,151.2z"/>
					<path d="M429.5,149.5c0.1,0.6-0.8,1.2-1.9,1.3c-1.1,0.2-2.1-0.1-2.2-0.7c-0.1-0.6,0.8-1.2,1.9-1.3
						C428.5,148.6,429.5,148.9,429.5,149.5z"/>
					<path d="M443.3,148.3c0,0.6-0.9,1.1-2,1.2c-1.1,0.1-2.1-0.3-2.2-0.9c0-0.6,0.9-1.1,2-1.2C442.3,147.3,443.3,147.7,443.3,148.3z
						"/>
				</g>
			</g>
		</g>
		<g>
			<polygon class="st3" points="524.1,250.1 524.1,260.3 492.8,254.6 492.8,244.7 			"/>
			<polygon points="524.1,242.2 524.1,250.1 492.8,244.7 492.8,237.2 			"/>
			<polygon class="st3" points="524.1,234.5 524.1,242.2 492.8,237.2 492.8,228.1 			"/>
			<polygon points="524.1,225.9 524.1,234.5 492.8,228.1 492.8,217.7 			"/>
			<polygon class="st3" points="524.1,219.1 524.1,225.9 492.8,217.7 492.8,208 495,208.8 505.6,212.5 516.1,216.2 516.1,216.2 			
				"/>
			<path d="M524.1,260.3l-15.1,1c-1-1.3-2.2-1.2-2.4-1.1c-0.5,0.3-0.7,0.7-0.7,1c0,0-2.1-2.7-3.6-1.8c0,0-0.9,0.6-0.7,1.6h0
				c0,0-1.2-2.2-2.5-1.4c0,0-0.8,0.4-0.8,1.4c0,0-1.5-0.2-1.5,1.1h0l-11.9,0.8l-17.7-3.2l-21.2-3.9l-2.4-0.4l15.8-0.2l0.1-0.1
				c1.7,2.1,3.9,3.3,6.2,2.1h0c1.2,0.8,2.5,1.1,4,0.1c0.9,0.6,1.9,0.9,3,0.8c1.2-0.1,1.9-0.7,2.3-1.2c0.3-0.4,0.1-0.9-0.4-1
				c-0.8-0.1-1.4-0.5-2-1l4.9-0.1c0.1,0.1,0.3,0.1,0.4,0.1c0.2,0,0.3,0,0.5-0.1l14.3-0.2L524.1,260.3z"/>
			<path class="st6" d="M518.2,214.4c-0.1,0.1-0.2,0.3-0.3,0.4c-0.4,0.6-1,1.1-1.8,1.5h0l-10.5-3.7c0.2-0.2,0.4-0.5,0.6-0.7
				c0.2-0.3,0.5-0.6,0.6-0.9c0.7-1.2,0.9-2.4,0.9-3.5c0,0,0.1-0.1,0.2-0.2c3.4-3.4,9.2-1.9,10.5,2.7
				C518.9,211.3,519,213,518.2,214.4z"/>
			<path class="st6" d="M507.8,207.4c0,1.1-0.2,2.3-0.9,3.5c-0.2,0.3-0.4,0.6-0.6,0.9c-0.2,0.2-0.4,0.5-0.6,0.7l-10.6-3.8
				c0-0.5,0.1-1,0.1-1.5c0-0.1,0-0.1,0-0.1c0.1-1.2,0.1-2.3,0.2-3.4c0,0,3.1-4.2,7.5-3.2c2,0.5,3.7,2.1,4.4,4
				C507.5,205.4,507.8,206.4,507.8,207.4z"/>
			<path class="st6" d="M495.4,203.8c0,1.1-0.1,2.2-0.2,3.4c0,0.1,0,0.1,0,0.1c0,0.5-0.1,1-0.1,1.5l-2.2-0.8l-8.9,1.6
				c0,0-0.2-2.5-0.2-5.8c0-1,0-2.1,0.1-3.1c0-0.2,0-0.5,0-0.8c0.3-5.8,1.7-12.1,5.7-12.5C489.5,187.4,496.1,185.5,495.4,203.8z"/>
			<path class="st3" d="M492.8,244.7v9.9l-11.2,0.1l-3.1,0c0.3-0.1,0.6-0.3,0.8-0.6c0.4-0.7,0.2-1.6-0.5-2c-3-1.7-5.7-4-7.7-6.2
				l9.2-0.5L492.8,244.7z"/>
			<path d="M492.8,237.2v7.6l-12.6,0.7L471,246c-1.4-1.5-2.5-2.9-3.2-3.9c-0.6-0.9,0.2-2.1,1.3-1.8l4.3,1.1c0.1,0,0.2,0,0.3,0
				c0.5,0,1.1-0.3,1.3-0.9c0.3-0.6,0.1-1.3-0.5-1.7l1.9-0.2L492.8,237.2z"/>
			<path class="st3" d="M492.8,228.1v9.1l-16.4,1.5l-1.9,0.2c-4.9-3.8-13.5-2.5-13.5-2.5c-4.3-1.1-8.1-2.4-11.5-4.1l15.9-1.6
				L492.8,228.1z"/>
			<path d="M492.8,217.6v10.5l-27.3,2.7l-15.9,1.6c-2.1-1-4.1-2.1-5.9-3.3v-4.6l13-1.8l0.1,0c0.3,2.2,1,5.4,2.7,5c0,0,0.7-1.8,1-5.6
				h0l6-0.8L492.8,217.6z"/>
			<path class="st3" d="M492.8,208v9.7l-26.2,3.6l-6,0.8h0c0.1-0.9,0.1-1.9,0.1-3c0,0,4.5,3.4,5-4.4c0,0,0,0,0,0c0-0.1,0-0.1,0-0.2
				c0,0,4.1,3.3,6.7-2.8c0,0,0-0.1,0-0.1l7-1.3l4.5-0.8L492.8,208z"/>
			<path class="st6" d="M483.9,209.6l-4.5,0.8c-0.1-0.1-0.2-0.2-0.3-0.3c-0.3-0.2-0.5-0.5-0.8-0.7c-0.3-0.3-0.6-0.5-0.9-0.8
				c-1.6-1.5-3-2.9-4.2-4.2c-8.1-9-5-12.5-4.3-13.1c0,0,0,0,0,0c0,0,0,0,0,0c0.5-0.5,6-4.4,14.1,8.5c0.2,0.3,0.4,0.6,0.5,0.9h0.1
				c0,1.1-0.1,2.2-0.1,3.1C483.7,207.1,483.9,209.6,483.9,209.6z"/>
			<path class="st3" d="M477.5,254.8l-4.9,0.1c-2-1.6-3.3-4.7-3.4-5l8,4.8C477.3,254.8,477.4,254.8,477.5,254.8z"/>
			<path class="st3" d="M459.5,255L459.5,255l-15.9,0.3v-7.7l11.6-0.7C456.1,249.3,457.6,252.7,459.5,255z"/>
			<path class="st3" d="M456.7,220.7c0,0,0,0.9,0.2,1.9l-0.1,0l-13,1.8V217l2.2-0.4h0c0,0.7,0.1,1.4,0.3,2.1
				c0.5,1.5,1.6,2.5,3.9-0.4c0,0,3.8,4,5.8-3.6l1.4-0.3h0C457,216.3,456.7,218.3,456.7,220.7z"/>
			<path d="M455.2,246.9l-11.6,0.7v-8.1l10.6,4.5C454.2,243.9,454.6,245.1,455.2,246.9z"/>
			<path class="st6" d="M472.5,211.7C472.5,211.7,472.5,211.8,472.5,211.7c-2.6,6.1-6.7,2.8-6.7,2.8c-0.5,8.1-5.1,4.6-5.1,4.6
				c0,1.1,0,2.1-0.1,3c-0.3,3.8-1,5.6-1,5.6c-1.7,0.4-2.4-2.8-2.7-5c-0.1-1.1-0.2-2-0.2-2c0.1-2.4,0.3-4.4,0.7-6.2
				c0-0.2,0.1-0.4,0.1-0.5l0,0c0.9-3.7,2.5-6,4.3-7.6c2-1.7,4.4-2.3,6.4-2.4c2.8-0.1,5,0.6,5,0.6l0.1-0.1c1.3,1.5,3,3.2,5,5
				c-1.3-0.7-2.9-0.2-4.1,0.4C473.5,210.2,472.8,210.9,472.5,211.7z"/>
			<path class="st6" d="M457.3,206.4c2.5-0.3,4.5,0,4.5,0c-1.8,1.5-3.4,3.9-4.3,7.6l0,0c-0.2,0.6-1.4,0.2-1.4,0.2
				c0,0.2-0.1,0.4-0.1,0.6c-2,7.6-5.8,3.6-5.8,3.6c-2.4,2.9-3.4,1.9-3.9,0.4c-0.2-0.7-0.3-1.4-0.3-2.1c0-0.7,0.1-1.4,0.4-2.1
				c0-0.1,0.1-0.3,0.1-0.4c1-2.6,2.6-4.3,4.4-5.5C453,207.2,455.3,206.6,457.3,206.4z"/>
			<path class="st8" d="M454.2,243.9l-10.6-4.5v15.8l15.8-0.2l0.1-0.1c-1.9-2.3-3.4-5.7-4.3-8.1
				C454.6,245.1,454.2,243.9,454.2,243.9z M469.2,249.9c0.1,0.2,1.3,3.3,3.4,5l4.9-0.1c-0.1,0-0.2-0.1-0.3-0.1L469.2,249.9z
				 M478.5,254.8l3.1,0c0-2.9-14.1-38.1-15.7-39.8c-0.1-0.1-0.1-0.1-0.2-0.2c-0.5,7.8-5,4.4-5,4.4c0,1.1,0,2.1-0.1,3
				c-0.3,3.8-1,5.6-1,5.6c-1.7,0.4-2.4-2.8-2.7-5c-0.1-1.1-0.2-1.9-0.2-1.9c0.1-2.4,0.3-4.4,0.7-6.2h0l-1.4,0.3
				c-2,7.6-5.8,3.6-5.8,3.6c-2.4,2.9-3.4,1.9-3.9,0.4c-0.2-0.7-0.3-1.4-0.3-2.1h0l-2.2,0.4v12.1c1.8,1.2,3.8,2.3,5.9,3.3
				c3.4,1.6,7.2,3,11.5,4.1c0,0,8.5-1.3,13.5,2.5c0.5,0.4,0.7,1.1,0.5,1.7c-0.2,0.5-0.8,0.9-1.3,0.9c-0.1,0-0.2,0-0.3,0l-4.3-1.1
				c-1-0.3-1.9,0.9-1.3,1.8c0.7,1,1.8,2.4,3.2,3.9c2,2.2,4.7,4.5,7.7,6.2c0.7,0.4,1,1.3,0.5,2C479,254.5,478.8,254.7,478.5,254.8z"
				/>
			<path class="st9" d="M517.9,214.7c-0.4,0.6-1,1.1-1.8,1.5h0l-10.5-3.7l-10.6-3.8l-2.2-0.8l-8.9,1.6l-4.5,0.8
				c-0.1-0.1-0.2-0.2-0.3-0.3c0.1-2.2,1.1-4.9,1.7-6.8c0.4-1.4,1-2.9,2.3-3.6c0.2-0.1,0.4-0.2,0.6-0.3c0,0.1,0,0.3,0.1,0.4
				c0.3,1.2,1.7,3,2.4,3.9c1.3,1.7,3.3,2.6,5.4,3c1.2,0.2,2.5,0.4,3.6,0.4c0.1,0,0.3,0,0.4-0.1c2-0.3,4.2-0.2,5.9,1
				c0.8,0.5,1.6,1.2,2.2,1.8c0.5,0.4,0.8,1.3,1.3,1.7c0.6,0.4,0.6,0.4,1.2,0.2c0.1,0,0.2-0.1,0.4-0.1c1-0.2,2.2-0.4,3.2-0.6
				c2.8-0.5,5.6,0.1,7.4,2.5C517.5,214,517.8,214.4,517.9,214.7z"/>
		</g>
		<g>
			<path class="st7" d="M443.2,167.2L443.2,167.2c-1.2-0.1-1.9-0.1-1.9-0.1c2.6,9.2-5.1,11.4-5.1,11.4c-6.4,0.9-9.6-2.7-11-5.3
				l3.6,21.2c0,0,12.4,2.7,20.4-1.9C447.2,184.2,443.2,167.2,443.2,167.2z M425,190.9c-2-8.7-4.6-19.5-4.6-19.5
				c-7.2,1.7-22.1,7.9-13.4,28.5l1.3-0.4l13.2-4.1c0,0,0,0.2,0.1,0.5c0.2,1.3,0.9,4.9,2.8,9.6l1.8-9.7
				C425.8,194.3,425.4,192.7,425,190.9z M447.6,167.9l2.5,15.2c0,0,0,0,0,0l1.4,8.5h0c0,0,0.3,0.6,0.8,1.7h0l4.6-1.1l7.3-1.8
				l1.3-0.3C464,174.5,454.3,169.5,447.6,167.9z"/>
			<path class="st10" d="M429.2,188.4c3.6,0.6,6.4-0.4,9.3-2.6c2.5-2,4.1-5,6.4-6.9c0,4.3-4.2,8.7-7.5,11.1
				C433.6,192.6,431.9,190.6,429.2,188.4z"/>
			<path class="st10" d="M457.1,192.2l-4.6,1.1h0c-0.5-1.1-0.8-1.7-0.8-1.7h0l-1.4-8.5c0.1,0.3,0.2,0.5,0.4,0.8c0.8,1.6,1.9,2.7,3,4
				C454.7,189.3,456,190.7,457.1,192.2z"/>
			<path class="st10" d="M426.1,195.8l-1.8,9.7c-1.9-4.7-2.6-8.4-2.8-9.6c0.2-0.3,0.4-0.6,0.7-1c0.9-0.9,2-2.4,2.7-4
				C425.4,192.7,425.8,194.3,426.1,195.8z"/>
			<path class="st11" d="M421.5,195.9c-0.2,0-0.5-0.2-0.5-0.4l-4.2-16.7c-0.1-0.3,0.1-0.6,0.4-0.6c0.3-0.1,0.6,0.1,0.6,0.4l4.2,16.7
				c0.1,0.3-0.1,0.6-0.4,0.6C421.6,195.9,421.6,195.9,421.5,195.9z"/>
		</g>
	</g>
	<path d="M347.2,399.3c0,3.8-21.3,6.9-47.6,6.9s-47.6-3.1-47.6-6.9c0-3.8,21.3-6.9,47.6-6.9C325.9,392.4,347.2,395.5,347.2,399.3z"
		/>
	<path class="st6" d="M318.2,111.6c-0.1-2.2-1.8-4-4-4.2c-1.1-0.1-2.2,0.3-3.1,0.9c-1-1.8-2.8-3.1-5-3.4c-3.7-0.6-7.1,1.8-7.9,5.4
		c-0.2,0-0.3,0-0.5,0c-13.4,0.2-14.5,11.2-13.8,18.4c-1.3,1.1-2,2.9-1.7,4.7c0.5,2.6,2.8,4.3,5.4,4.1l0.1,1.6l27.8-1.5
		c3-0.2,5.2-2.7,5-5.6l-0.3-6.2c2.1-1.3,3.5-3.4,3.7-6.1C324.3,115.9,321.8,112.5,318.2,111.6z"/>
	<g>
		<path class="st7" d="M314,123.6c-1.8-0.1-3.4-1.1-4.4-2.4c-0.7,1.2-1.9,2.1-3.4,2.4c-2.5,0.4-4.8-1-5.6-3.3c-0.3,0-0.6,0-0.9,0
			c-0.7,0.7-1.6,1.2-2.6,1.3c-0.6,0.1-1.1,0.1-1.6,0c-1.1,0.8-1.9,1.9-2.3,3.2c-0.6,1.9-0.4,3.9-0.4,5.8c0,0.9,0,1.8-0.1,2.7
			c0,0.3,0.1,1-0.1,1.3c-1.4,2.2-0.3-0.6-2.2-3l0,0.4l-2.2,0.1c-1.8,0.1-3.2,1.7-3.1,3.5l0.1,2.3c0.1,1.8,1.7,3.2,3.5,3.1l2.2-0.1
			l0.2,3.7c0.1,1.1,0.3,2.1,0.6,3v14.1c0,3.8,3.1,6.9,6.9,6.9h6.1c3.8,0,6.9-3.1,6.9-6.9v-6.9c4.6-1.9,7.7-6.5,7.4-11.7l-0.1-2.6
			l0,0l-0.9-16.5c0-0.4-0.1-0.9-0.1-1.3C316.6,123.4,315.3,123.7,314,123.6z"/>
		<g>
			<circle class="st12" cx="303.1" cy="155" r="6.3"/>
			<path class="st6" d="M299.6,156.3l11.1-0.1c4.8,0,8.6-3.9,8.6-8.6l-0.7-15.4l-0.4,6.6L295,139l-4.2-9.3l0.2,18.1
				C291,152.5,294.8,156.3,299.6,156.3z"/>
			<path d="M288.4,138c-0.1,0-0.2,0-0.3-0.1c-0.1-0.1-0.1-0.4,0-0.5l0.7-0.7l-1.3-1.4c-0.1-0.1-0.1-0.4,0-0.5c0.1-0.1,0.4-0.1,0.5,0
				l1.9,1.9l-1.3,1.3C288.6,137.9,288.5,138,288.4,138z"/>
			<g>
				<g>
					<path class="st3" d="M302.8,139.9c0,0,2.8,0.5,5.3,0.5c2.6,0,1.7,2.9-2.2,3C302.1,143.6,300.7,139.8,302.8,139.9z"/>
				</g>
			</g>
			<g>
				<path d="M299,128.3c0.5,0.1,1-0.1,1.5-0.2c0.5-0.2,1-0.3,1.5-0.4s1-0.2,1.5-0.3c0.5-0.1,1.1-0.2,1.4-0.5
					c0.4-0.3,0.4-0.8-0.2-1.2c-0.6-0.5-1.9-0.8-3.3-0.4c-1.5,0.4-2.5,1.3-2.7,1.9C298.2,127.8,298.5,128.2,299,128.3z"/>
			</g>
			<g>
				<g>
					<path d="M316.1,130.4c-0.3,0.1-0.8,0.1-1.2,0.1c-0.4,0-0.9,0-1.2,0c-0.4,0-0.8,0-1.2,0.1c-0.4,0-0.9,0.1-1.2-0.1
						c-0.3-0.1-0.5-0.5-0.1-1c0.4-0.5,1.3-1,2.5-1c1.2,0,2.2,0.5,2.5,1C316.6,129.8,316.4,130.2,316.1,130.4z"/>
				</g>
			</g>
			<path d="M304.2,133c0.2,0.5,0.1,1-0.4,1.3s-1,0.1-1.3-0.4s-0.1-1,0.4-1.3C303.4,132.3,304,132.5,304.2,133z"/>
			<path d="M314.9,132.8c0.2,0.5,0.1,1-0.4,1.3s-1,0.1-1.3-0.4s-0.1-1,0.4-1.3S314.6,132.3,314.9,132.8z"/>
			<path d="M312.8,134.6c-0.1,0-0.2-0.1-0.3-0.2c-0.1-0.2-0.1-0.4,0.1-0.5c0,0,1.2-0.9,2.9-0.1c0.2,0.1,0.3,0.3,0.2,0.5
				c-0.1,0.2-0.3,0.3-0.5,0.2c-1.2-0.6-2,0-2.1,0C313,134.6,312.9,134.6,312.8,134.6z"/>
			<path d="M302.3,134.9c-0.1,0-0.2-0.1-0.3-0.2c-0.1-0.2-0.1-0.4,0.1-0.5c0,0,1.2-0.9,2.9-0.1c0.2,0.1,0.3,0.3,0.2,0.5
				c-0.1,0.2-0.3,0.3-0.5,0.2c-1.2-0.6-2,0-2.1,0C302.5,134.9,302.4,134.9,302.3,134.9z"/>
			<path d="M304.2,137h-1.9c-2.5,0-4.5-2-4.5-4.5v-0.9c0-0.6,0.5-1.1,1.1-1.1h7.1c0.6,0,1,0.5,1,1.1v2.6
				C307.1,135.7,305.8,137,304.2,137z M298.9,131.2c-0.2,0-0.3,0.1-0.3,0.3v0.9c0,2.1,1.7,3.8,3.8,3.8h1.9c1.2,0,2.1-0.9,2.1-2.1
				v-2.6c0-0.2-0.1-0.3-0.3-0.3H298.9z"/>
			<path d="M315.2,137h-1.9c-1.6,0-2.9-1.3-2.9-2.9v-2.6c0-0.6,0.5-1.1,1-1.1h7.1c0.6,0,1.1,0.5,1.1,1.1v0.9
				C319.8,135,317.7,137,315.2,137z M311.5,131.2c-0.2,0-0.3,0.1-0.3,0.3v2.6c0,1.2,0.9,2.1,2.1,2.1h1.9c2.1,0,3.8-1.7,3.8-3.8v-0.9
				c0-0.2-0.1-0.3-0.3-0.3H311.5z"/>
			<g>
				<path d="M307.8,137.6c-0.3,0-0.6,0-0.9,0c-0.2,0-0.4-0.2-0.3-0.4c0-0.2,0.2-0.4,0.4-0.3c0.5,0.1,1,0.1,1.4,0
					c0.7-0.1,1.3-0.4,1.6-0.9c0.1-0.2,0.3-0.6,0.1-1l-2.2-4.9c-0.1-0.2,0-0.4,0.2-0.5c0.2-0.1,0.4,0,0.5,0.2l2.2,4.9
					c0.3,0.6,0.2,1.2-0.1,1.7c-0.4,0.7-1.2,1.2-2.2,1.3C308.2,137.6,308,137.6,307.8,137.6z"/>
			</g>
			<path d="M310.7,132.5c0,0-0.1,0-0.1,0l-0.2-0.1c-1.1-0.4-2.2-0.4-3.3,0.1c-0.2,0.1-0.4,0-0.5-0.2s0-0.4,0.2-0.5
				c1.2-0.5,2.6-0.6,3.8-0.1l0.2,0.1c0.2,0.1,0.3,0.3,0.2,0.5C311,132.4,310.8,132.5,310.7,132.5z"/>
			<path d="M298,132C298,132,298,132,298,132l-8.1-0.5c-0.2,0-0.4-0.2-0.4-0.4c0-0.2,0.2-0.4,0.4-0.4l8.1,0.5c0.2,0,0.4,0.2,0.4,0.4
				C298.4,131.9,298.2,132,298,132z"/>
		</g>
	</g>
	<g>
		<g>
			<path class="st7" d="M312.8,384.9V400h32.5l0,0c0-2.9-2-5.4-4.8-6.1l-8.2-2.1c-0.6-0.2-1.2-0.5-1.7-1l-3.2-6.1L312.8,384.9z"/>
			<path class="st13" d="M326.6,389.8c-0.1,0-0.2-0.1-0.3-0.2c-0.1-0.1,0-0.3,0.1-0.4l2.9-1.3c0.1-0.1,0.3,0,0.4,0.1
				c0.1,0.1,0,0.3-0.1,0.4l-2.9,1.3C326.6,389.8,326.6,389.8,326.6,389.8z"/>
			<path class="st13" d="M327.6,392.3c-0.1,0-0.2-0.1-0.3-0.2c-0.1-0.1,0-0.3,0.1-0.4l2.9-1.3c0.1-0.1,0.3,0,0.4,0.1
				c0.1,0.1,0,0.3-0.1,0.4l-2.9,1.3C327.7,392.3,327.6,392.3,327.6,392.3z"/>
		</g>
		<rect x="312.8" y="399.3" width="32.5" height="1.9"/>
	</g>
	<g>
		<g>
			<path class="st7" d="M292.5,384.9V400H260l0,0c0-2.9,2-5.4,4.8-6.1l8.2-2.1c0.6-0.2,1.2-0.5,1.7-1l3.2-6.1L292.5,384.9z"/>
			<path class="st13" d="M278.8,389.8c0,0-0.1,0-0.1,0l-2.9-1.3c-0.1-0.1-0.2-0.2-0.1-0.4c0.1-0.1,0.2-0.2,0.4-0.1l2.9,1.3
				c0.1,0.1,0.2,0.2,0.1,0.4C279,389.8,278.9,389.8,278.8,389.8z"/>
			<path class="st13" d="M277.7,392.3c0,0-0.1,0-0.1,0l-2.9-1.3c-0.1-0.1-0.2-0.2-0.1-0.4c0.1-0.1,0.2-0.2,0.4-0.1l2.9,1.3
				c0.1,0.1,0.2,0.2,0.1,0.4C277.9,392.3,277.8,392.3,277.7,392.3z"/>
		</g>
		<rect x="260" y="399.3" class="st13" width="32.5" height="1.9"/>
	</g>
	<path d="M331.5,256.6l-5.2,0.2v-12.4h-48.9v12.4l-4.5-0.1l0.3,126.6c0,1,0.9,1.9,2,1.9l18.8,0c1.1,0,2-0.8,2-1.8l5-110.2h2.1
		l4.5,110.2c0,1,0.9,1.9,2,1.9l21,0c1.1,0,2-0.9,2-1.9L331.5,256.6z"/>
	<g>
		<g>
			<g>
				<polygon class="st3" points="290,164.4 290,161 290,160.7 291.3,160.9 301.7,169.4 312.8,161.1 314.3,164 314.3,164.2 
					314.3,258.4 314.3,258.4 314.3,258.7 290,258.7 290,258.3 290,258.3 				"/>
			</g>
		</g>
	</g>
	<g>
		<g>
			<g>
				<g>
					<path class="st7" d="M332,224l0-5.4l0.6-2.8l0.2,0c8.9-0.7,15.4-8.7,14.2-17.6l-3.4-41.7c-0.1-1.3-1.1-2.3-2.4-2.4l-0.2,0
						l-14.4-1.1l-0.6,0c-1-0.1-1.9,0.7-1.9,1.8l-0.1,8.9l-9-2.2l-3.3-1.1l-0.2,16.7l-1.1,61.4l4.9,45.2c0.3,3.1,3.1,5.3,6.2,5
						l16-1.5c3-0.3,6.5-3.4,5.8-6.4L332,224z"/>
					<g>
						<path class="st7" d="M341.5,153c2.3-2.5,2.9-7.3,3-10.7l-2.4-0.1c0,0-4-8.9-13.2-6.5c-2.2,0.5-3.8,13-2.3,17.4l0.1,0l14.4,1.1
							L341.5,153z"/>
						<path class="st14" d="M341.5,139.5c0,0,2.7,9.2-7.3,9.3C324.2,148.9,327.8,132.6,341.5,139.5z"/>
						<g>
							<g>
								<path class="st7" d="M329.7,156.8L329.7,156.8c2.1,0.4,4.1-0.9,4.6-2.9l5.5-25l-7.5-1.6l-5.5,25
									C326.3,154.3,327.6,156.3,329.7,156.8z"/>
								<path class="st15" d="M330.1,155L330.1,155c1.7,0.4,3.4-0.9,3.9-2.8l5.1-23.4l-6.1-1.3l-5.1,23.5
									C327.3,152.7,328.4,154.6,330.1,155z"/>
								<path d="M330.4,153.6L330.4,153.6c1.5,0.3,3.1-0.6,3.4-2.2l4.1-18.8l-5.6-1.2l-4.1,18.8
									C327.8,151.8,328.8,153.3,330.4,153.6z"/>
								<path class="st7" d="M332.4,127.7l6.9,1.5c0.8,0.2,1.6-0.3,1.8-1.2l0,0c0.2-0.8-0.3-1.7-1.2-1.8l-6.9-1.5
									c-0.8-0.2-1.6,0.3-1.8,1.2l0,0C331.1,126.7,331.6,127.5,332.4,127.7z"/>
							</g>
							<path class="st16" d="M332.9,137.8c0,0.2,0.1,0.4,0.3,0.4s0.4-0.1,0.4-0.3s-0.1-0.4-0.3-0.4
								C333.1,137.5,332.9,137.6,332.9,137.8z"/>
							<path class="st16" d="M333.7,142.6c0,0.2,0.1,0.4,0.3,0.4s0.4-0.1,0.4-0.3s-0.1-0.4-0.3-0.4
								C333.9,142.3,333.7,142.4,333.7,142.6z"/>
							<path class="st16" d="M330.5,143.9c0,0.2,0.1,0.4,0.3,0.4s0.4-0.1,0.4-0.3s-0.1-0.4-0.3-0.4
								C330.7,143.6,330.5,143.8,330.5,143.9z"/>
						</g>
						<g>
							<g>
								<path class="st7" d="M345.1,136L345.1,136c0.6,0.9,0.2,2.2-0.7,2.7l-5.8,3.4c-0.9,0.6-2.2,0.2-2.7-0.7l0,0
									c-0.6-0.9-0.2-2.2,0.7-2.7l5.8-3.4C343.3,134.7,344.5,135,345.1,136z"/>
								<path class="st7" d="M343.1,132.6L343.1,132.6c0.6,0.9,0.2,2.2-0.7,2.7l-5.8,3.4c-0.9,0.6-2.2,0.2-2.7-0.7l0,0
									c-0.6-0.9-0.2-2.2,0.7-2.7l5.8-3.4C341.3,131.3,342.5,131.6,343.1,132.6z"/>
								<path class="st7" d="M345.5,140.3L345.5,140.3c0.6,0.9,0.2,2.2-0.7,2.7l-3.5,2.1c-0.9,0.6-2.2,0.2-2.7-0.7l0,0
									c-0.6-0.9-0.2-2.2,0.7-2.7l3.5-2.1C343.7,139,345,139.3,345.5,140.3z"/>
							</g>
						</g>
						<path class="st7" d="M326.6,145.5c-2-2.5-1.3-6.3,1.6-7.7c1.2-0.6,2.5-0.9,4-0.7c0,0,2.3,0.6,0.7,2.6c-1.6,1.9-4.8,4.9-5,6.5
							s-0.3,0.6-0.3,0.6L326.6,145.5z"/>
						<g>
							<path class="st17" d="M344.5,142.3C344.5,142.3,344.5,142.3,344.5,142.3"/>
						</g>
					</g>
					<polygon class="st18" points="324,163.8 324.4,197.7 321.8,163.2 					"/>
					<path class="st18" d="M332.7,215.9c0,0-3.7,1.7-7.5-2.2l6.9,8.9l0-3.9L332.7,215.9z"/>
					<path class="st19" d="M311.8,206.4c0,0-0.1,0-0.1,0c-0.2-0.1-0.3-0.3-0.2-0.5l9.1-30.2c0-0.1,0-0.1,0-0.2s0-0.1-0.1-0.1
						l-4.1-1.4l4.6-4.1l0-0.1l-5-2.8c-0.2-0.1-0.2-0.3-0.1-0.5c0.1-0.2,0.3-0.2,0.5-0.1l5,2.8c0.2,0.1,0.4,0.4,0.4,0.6
						c0,0.3-0.1,0.5-0.3,0.7l-3.6,3.2l2.9,1c0.2,0.1,0.4,0.2,0.5,0.5s0.1,0.5,0,0.7l-9.1,30.1C312.2,206.3,312,206.4,311.8,206.4z"
						/>
					<g class="st20">
						<g>
							<path d="M327.7,240.8l-9.8,1.7c-0.4,0.1-0.7-0.2-0.8-0.6l-0.1-0.4c-0.1-0.4,0.2-0.7,0.5-0.8l9.8-1.7c0.4-0.1,0.7,0.2,0.8,0.6
								l0.1,0.4C328.3,240.3,328,240.7,327.7,240.8z"/>
						</g>
					</g>
				</g>
			</g>
		</g>
		<g>
			<g>
				<g>
					<path class="st7" d="M291.3,198.1l-1.4-38l-21.4,8.1l0,0.1l-0.9,0.3c-5.8,2.1-10.2,6.9-11.7,12.9l-6.9,29.4l0.1,0.1
						c-0.8,2.6-0.5,5.4,1.6,7.8c3.2,3.8,8.8,5.5,14.2,4.2l8.6-4.4l0.2,1.8l-12.5,60.8c-0.6,3,1.4,5.8,4.4,6.1l16,1.5
						c3.1,0.3,5.8-1.9,6.2-5l4.9-45.2l-1.3-35.4c0,0,3.1-6.3,3-6.3c-0.8,0.5-1.6,1.1-1.9,1.2C292.1,198.1,291.7,198.1,291.3,198.1z
						 M271.7,199.5l0.1-0.3l0,0.3C271.8,199.5,271.7,199.5,271.7,199.5z"/>
					<path class="st7" d="M295.7,196c-0.1,0-0.4,0.2-0.9,0.5C295.5,196.3,296.4,196.1,295.7,196z"/>
					<path class="st7" d="M294.4,196.9c0.1-0.1,0.3-0.2,0.4-0.3C294.5,196.7,294.2,196.8,294.4,196.9z"/>
				</g>
				<g class="st20">
					<g>
						<path d="M286.2,242.3l-9.9-1.2c-0.4-0.1-0.6-0.4-0.6-0.8l0-0.4c0-0.4,0.4-0.6,0.8-0.6l9.9,1.2c0.4,0.1,0.6,0.4,0.6,0.8l0,0.4
							C286.9,242.1,286.5,242.4,286.2,242.3z"/>
					</g>
				</g>
				<path class="st19" d="M289.2,207.5c-0.2,0-0.3-0.1-0.4-0.3l-7.9-30.5c-0.1-0.2,0-0.5,0.1-0.7c0.1-0.2,0.3-0.4,0.6-0.5l2.9-0.9
					l-3.5-3.4c-0.2-0.2-0.3-0.4-0.2-0.7c0-0.3,0.2-0.5,0.4-0.6l5-2.6c0.2-0.1,0.4,0,0.5,0.2c0.1,0.2,0,0.4-0.2,0.5l-5,2.6l0,0.1
					l4.4,4.3l-4.2,1.2c-0.1,0-0.1,0.1-0.1,0.1c0,0,0,0.1,0,0.1l7.9,30.5c0,0.2-0.1,0.4-0.3,0.5C289.3,207.5,289.3,207.5,289.2,207.5
					z"/>
				<g>
					<polygon class="st18" points="287.3,198.2 274.6,197.4 272.7,191.4 272,199.4 					"/>
					<polygon class="st18" points="273.5,218.6 289.2,212.3 273.3,222.1 273.5,220.1 					"/>
					<g>
						<g>
							
								<rect x="298.8" y="188.9" transform="matrix(0.9947 -0.1032 0.1032 0.9947 -18.5139 32.2052)" class="st21" width="6.3" height="12.2"/>
							<path class="st7" d="M299.5,197l-7.2,16.1c-0.9,2.1,0.7,4.4,3,4.2l17.6-1.8c2.3-0.2,3.4-2.9,2.1-4.7l-10.4-14.3
								C303.2,194.6,300.4,194.9,299.5,197z"/>
							<path class="st15" d="M313.6,210.9l-8.9-12.2l-1-9.5l-4.7,0.5l1,9.4l-6.2,13.9c-0.8,1.8,0.6,3.9,2.6,3.6l15.4-1.6
								C313.8,214.8,314.8,212.5,313.6,210.9z"/>
							<path d="M305.5,204.8c0.9-0.5,2.1-0.2,2.7,0.6l1.1,1.4l2.4,3.3c1.3,1.8,0.1,4.3-2.1,4.5l-11.4,1.1c-2.2,0.2-3.8-2-2.9-4
								l2-4.4c0.8-1.8,3.1-2.2,5-1.7C303.3,205.8,304.3,205.4,305.5,204.8z"/>
							<path class="st7" d="M304.3,189l-5.7,0.6c-0.7,0.1-1.3-0.4-1.4-1.1l0,0c-0.1-0.7,0.4-1.3,1.1-1.4l5.7-0.6
								c0.7-0.1,1.3,0.4,1.4,1.1l0,0C305.5,188.3,305,189,304.3,189z"/>
						</g>
						<g>
							<path class="st7" d="M285.4,203l2.8-7.2c0.5-1.3,1.6-2.2,2.9-2.5l7.9-1.8c1.6-0.4,3.2,0.7,3.4,2.3l0.3,1.7l-5.3-0.4l7.6,0.6
								c0.9,0.1,1.4,0.9,1,1.7l0,0c-0.3,0.7-0.9,1.2-1.7,1.3l-7.9,1.2l9.1-0.2c0.6,0,1,0.8,0.6,1.2l0,0c-1.7,1.8-3.9,3-6.4,3.4
								l-2.1,0.3c0,0,2,6-2.6,11.3C294.9,216,282.9,217.8,285.4,203z"/>
							<g class="st22">
								<path class="st6" d="M302.6,195c0-0.1-0.2-0.2-0.3-0.2l-5.6-0.2c-0.2,0-0.3,0.1-0.3,0.3c0,0.2,0.1,0.3,0.3,0.3l5.6,0.2
									c0.2,0,0.3-0.1,0.3-0.3C302.6,195.1,302.6,195,302.6,195z"/>
								<path class="st6" d="M297.2,198.9c-0.1-0.1-0.2-0.2-0.3-0.2c-0.2,0-0.3,0.2-0.3,0.4c0,0,0.1,0.7,0.2,1.4
									c0,0.2,0.2,0.3,0.4,0.3s0.3-0.2,0.3-0.4c-0.1-0.7-0.2-1.4-0.2-1.4C297.2,198.9,297.2,198.9,297.2,198.9z"/>
								<path class="st6" d="M296.8,194.2c-0.1-0.1-0.2-0.2-0.3-0.2c-0.2,0-0.3,0.2-0.3,0.4c0,0,0.1,0.7,0.2,1.4
									c0,0.2,0.2,0.3,0.4,0.3s0.3-0.2,0.3-0.4c-0.1-0.7-0.2-1.4-0.2-1.4C296.8,194.2,296.8,194.2,296.8,194.2z"/>
								<path class="st6" d="M298.2,204.3c-0.1-0.1-0.2-0.2-0.4-0.2c-0.5,0.1-1.2,0-1.2,0c-0.2,0-0.4,0.1-0.4,0.3
									c0,0.2,0.1,0.4,0.3,0.4c0,0,0.8,0.1,1.4,0C298.1,204.8,298.2,204.6,298.2,204.3C298.2,204.4,298.2,204.4,298.2,204.3z"/>
							</g>
						</g>
					</g>
				</g>
			</g>
		</g>
	</g>
	<path class="st7" d="M313.9,160.3l0.9,6.4l-5,8.4c-0.5,0.8-1.6,0.9-2.2,0.2l-5.7-6.5l9.6-9.4C312.3,158.7,313.7,159.1,313.9,160.3z
		"/>
	<path class="st7" d="M290.9,159l11,9.8l-6.1,6.7c-0.6,0.6-1.6,0.6-2.1-0.1L287,167l2.8-7.7C289.9,158.9,290.5,158.7,290.9,159z"/>
	<g>
		<g>
			<path class="st7" d="M314.7,166.7l-5,8.4c-0.5,0.8-1.6,0.9-2.2,0.2l-5.7-6.5"/>
			<path class="st7" d="M308.6,176.2c-0.5,0-1-0.2-1.3-0.6l-5.7-6.5c-0.1-0.2-0.1-0.4,0-0.5c0.2-0.1,0.4-0.1,0.5,0l5.7,6.5
				c0.2,0.2,0.5,0.4,0.8,0.3s0.6-0.2,0.7-0.5l5-8.4c0.1-0.2,0.3-0.2,0.5-0.1s0.2,0.3,0.1,0.5l-5,8.4c-0.3,0.5-0.8,0.8-1.3,0.8
				C308.7,176.2,308.7,176.2,308.6,176.2z"/>
		</g>
		<g>
			<path class="st7" d="M301.9,168.8l-6.1,6.7c-0.6,0.6-1.6,0.6-2.1-0.1L287,167"/>
			<path class="st7" d="M294.8,176.4C294.7,176.4,294.7,176.4,294.8,176.4c-0.6,0-1.1-0.3-1.4-0.7l-6.7-8.5
				c-0.1-0.2-0.1-0.4,0.1-0.5s0.4-0.1,0.5,0.1l6.7,8.5c0.2,0.2,0.5,0.4,0.8,0.4c0.3,0,0.6-0.1,0.8-0.3l6.1-6.7
				c0.1-0.2,0.4-0.2,0.5,0c0.2,0.1,0.2,0.4,0,0.5l-6.1,6.7C295.7,176.1,295.2,176.4,294.8,176.4z"/>
		</g>
	</g>
</g>
<g id="Calque_2">
	<linearGradient id="SVGID_1_" gradientUnits="userSpaceOnUse" x1="-115.6422" y1="-76.4954" x2="13.1651" y2="-76.4954">
		<stop  offset="0" style="stop-color:#606060"/>
		<stop  offset="1" style="stop-color:#000000"/>
	</linearGradient>
	<rect x="-115.6" y="-103.2" class="st23" width="128.8" height="53.5"/>
	<rect x="-109.3" y="-132.1" class="st24" width="35" height="22.5"/>
	
		<linearGradient id="SVGID_00000176752207631526781960000004370112257854308273_" gradientUnits="userSpaceOnUse" x1="-48.9266" y1="-148.6606" x2="-22.1743" y2="-148.6606">
		<stop  offset="0" style="stop-color:#606060"/>
		<stop  offset="1" style="stop-color:#000000"/>
	</linearGradient>
	
		<rect x="-48.9" y="-162" style="fill:url(#SVGID_00000176752207631526781960000004370112257854308273_);" width="26.8" height="26.8"/>
</g>
</svg>
