<?xml version="1.0" encoding="utf-8"?>
<!-- Generator: Adobe Illustrator 26.2.1, SVG Export Plug-In . SVG Version: 6.00 Build 0)  -->
<svg version="1.1" id="Calque_1" xmlns="http://www.w3.org/2000/svg" xmlns:xlink="http://www.w3.org/1999/xlink" x="0px" y="0px"
	 viewBox="0 0 300 400" style="enable-background:new 0 0 300 400;" xml:space="preserve">
<style type="text/css">
	.st0{fill:#000;}
</style>
<g>
	<path class="st0" d="M79.38,320.89c3.03-29.4-6.49-56.38-15.97-83.4c-6.15-17.54-11.76-35.25-13.51-53.88
		c-2.11-22.47,0.63-43.85,14.91-62.43c6.65-8.65,14.98-15.36,24.66-20.31c20.86-10.67,43.26-15.25,66.38-13.04
		c24.86,2.38,39.47,27.82,30.36,51.09c-7.17,18.33-15.07,36.37-22.19,54.72c-3,7.74-4.99,15.88-7.14,23.93
		c-1.21,4.53-3.38,6.74-6.95,5.99c-3.56-0.74-4.88-3.59-4.14-8.24c2.49-15.57,9.33-29.64,15.14-44.07
		c4.65-11.55,9.46-23.05,14.14-34.59c8.12-20.04-4.61-38.65-26.34-38.19c-19.17,0.41-37.81,3.5-54.91,12.81
		c-20.71,11.27-31.28,29.04-33.04,52.24c-1.6,21.07,3.72,41.03,10,60.85c5.86,18.51,11.94,36.97,17.02,55.69
		c2.12,7.83,2.42,16.27,2.67,24.45c0.43,13.83-0.1,27.7,0.26,41.54c0.49,18.67,16.14,34.21,34.87,35.12
		c24.88,1.22,43.66-20.99,38.37-45.38c-1.24-5.72-2.56-11.43-3.82-17.14c-0.27-1.21-0.55-2.45-0.58-3.68
		c-0.07-2.86,1.39-4.82,4.14-5.48c2.89-0.69,5.73,0.31,6.37,3.19c3.12,14.01,8.42,27.75,4.8,42.61
		c-5.69,23.34-28.09,39.53-51.67,37.01c-24.6-2.64-43.23-22.41-43.81-46.69C79.22,337.36,79.38,329.12,79.38,320.89z"/>
	<path class="st0" d="M201.28,237.29c18.04-0.08,32.72,14.45,32.73,32.41c0.02,17.95-14.66,32.61-32.63,32.58
		c-17.8-0.03-32.46-14.56-32.57-32.29C168.69,252.03,183.25,237.37,201.28,237.29z M222.76,269.88c0.06-11.71-9.28-21.2-21.02-21.36
		c-11.9-0.16-21.62,9.29-21.69,21.09c-0.06,11.77,9.64,21.48,21.42,21.43C213.15,291,222.7,281.51,222.76,269.88z"/>
	<path class="st0" d="M109.43,266.93c0.35-9.71,5.66-19.32,16.38-25.39c10.7-6.06,21.71-5.81,32.49,0.18
		c3.93,2.19,5.15,5.56,3.3,8.58c-1.77,2.89-4.96,3.31-8.85,1.18c-7.97-4.37-15.87-4.24-23.28,1.03c-7.18,5.1-10.05,12.43-8.45,20.98
		c1.63,8.71,7.1,14.46,15.8,16.64c6.43,1.61,12.35,0.62,17.23-4.42c2.96-3.06,6.05-3.23,8.55-0.84c2.51,2.4,2.24,5.73-0.71,8.89
		c-9.56,10.24-27.1,11.07-39.42,1.87C114.14,289.39,109.4,279.92,109.43,266.93z"/>
	<path class="st0" d="M149.51,47.78c-0.07,8.01-2.14,15.31-7.94,21.13c-7.28,7.31-17.74,7.32-25.13,0.15
		c-10.88-10.54-10.89-31.95-0.03-42.52c7.56-7.36,18.46-7.15,25.67,0.63C147.44,32.97,149.48,40.03,149.51,47.78z M134.89,58.92
		c3.71-6.86,3.76-15.25,0.08-22.12c-0.2-0.37-0.41-0.74-0.63-1.1c-2.77-4.51-7.58-4.34-10.88-0.25c-5.19,6.43-5.14,18.53,0.11,24.8
		c3.26,3.89,7.99,4.1,10.66-0.2C134.47,59.69,134.69,59.31,134.89,58.92z"/>
	<path class="st0" d="M210.87,43.76c-0.09,10.93-2.78,20.89-10.31,28.83c-9.45,9.98-23.02,9.99-32.62,0.21
		c-14.12-14.38-14.14-43.59-0.04-58.02c9.81-10.04,23.95-9.75,33.32,0.86C208.19,23.54,210.84,33.19,210.87,43.76z M191.91,58.96
		c4.81-9.36,4.88-20.8,0.11-30.18c-0.26-0.51-0.53-1.01-0.81-1.49c-3.59-6.16-9.84-5.92-14.12-0.34
		c-6.73,8.77-6.66,25.29,0.14,33.84c4.23,5.31,10.37,5.59,13.83-0.27C191.35,60.01,191.64,59.49,191.91,58.96z"/>
	<path class="st0" d="M32.41,102.46c-2.12-6.7-1.21-14.1,2.88-19.81c0.22-0.3,0.44-0.6,0.68-0.9c7-8.83,19.07-8.68,25.97,0.29
		c5.51,7.16,6.03,17.77,1.25,25.65c-7.02,11.57-21.85,11.67-28.62-0.05C33.64,106.04,32.98,104.28,32.41,102.46z M42.53,95.91
		c0.04,5.14,2.83,9.18,6.33,9.17c3.34-0.01,6.14-3.89,6.36-8.83c0.22-4.96-2.75-9.64-6.21-9.8C45.49,86.29,42.49,90.67,42.53,95.91z
		"/>
	<path class="st0" d="M98.11,53.67c3.47,5.42,4.13,12.17,2.28,18.33c-0.52,1.73-1.11,3.43-1.92,5.02c-2.96,5.8-7.87,9.3-14.66,9.29
		c-6.8-0.01-11.48-3.69-14.71-9.32c-4.91-8.57-3.51-19.89,3.18-26.71c7.25-7.38,19.47-5.81,25.36,2.7
		C97.81,53.21,97.97,53.44,98.11,53.67z M90.16,65.92c0.04-5.26-2.91-9.62-6.44-9.5c-3.33,0.11-6.31,4.57-6.29,9.4
		c0.02,4.93,2.98,9.22,6.38,9.26C87.29,75.12,90.11,71.05,90.16,65.92z"/>
	<path class="st0" d="M258.07,303.91c2.58,0,4.17-0.14,5.74,0.03c3.03,0.34,4.76,2.16,4.88,5.18c0.13,3.2-1.54,5.5-4.73,5.66
		c-5.72,0.28-11.5,0.4-17.2-0.04c-4.77-0.36-6.64-5.06-3.84-9.21c3.27-4.86,6.89-9.48,10.28-14.25c1-1.41,2.02-2.92,2.51-4.54
		c0.26-0.85-0.6-2.04-0.95-3.07c-1,0.46-2.03,0.87-2.99,1.41c-0.26,0.14-0.29,0.66-0.45,1c-1.42,2.99-3.68,4.38-6.96,3.34
		c-3.06-0.97-4.34-3.78-3.51-7.26c1.61-6.75,8.96-11.18,15.96-9.63c7.16,1.59,12.03,8.48,10.31,15.32c-0.8,3.18-2.56,6.16-4.16,9.08
		C261.76,299.08,260.13,301,258.07,303.91z"/>
</g>
</svg>
