<?xml version="1.0" encoding="utf-8"?>
<!-- Generator: Adobe Illustrator 26.3.0, SVG Export Plug-In . SVG Version: 6.00 Build 0)  -->
<svg version="1.1" id="Calque_1" xmlns="http://www.w3.org/2000/svg" xmlns:xlink="http://www.w3.org/1999/xlink" x="0px" y="0px"
	 viewBox="0 0 200 200" style="enable-background:new 0 0 200 200;" xml:space="preserve">
<style type="text/css">
	.st0{fill:#FFFFFF;}
</style>
<g>
	<path class="st0" d="M52.01,177.76c-0.67-0.21-1.35-0.4-2.01-0.62c-4.77-1.59-8.03-5.88-8.27-10.91c-0.01-0.3-0.02-0.61-0.02-0.91
		c0-38.66-0.01-77.33,0-115.99c0-5.87,3.4-10.52,8.83-12c1.3-0.35,2.69-0.47,4.04-0.48c6.17-0.05,12.34-0.02,18.6-0.02
		c0.09-0.31,0.19-0.58,0.26-0.86c0.63-2.61,2.3-3.98,4.96-4c4.2-0.02,8.4-0.01,12.6-0.01c0.55,0,1.1,0,1.85,0
		c0-0.92-0.03-1.71,0-2.5c0.17-4.15,3.15-7.2,7.07-7.23c3.99-0.04,7.04,3.01,7.22,7.23c0.03,0.75,0,1.51,0,2.49c0.63,0,1.16,0,1.7,0
		c3.85,0,7.69,0,11.54,0c4.14,0,5.28,0.84,6.43,4.86c2.53,0,5.1,0,7.67,0c3.8,0,7.59-0.03,11.39,0.01
		c7.26,0.06,12.41,5.22,12.42,12.49c0.01,38.66,0.01,77.33,0,115.99c0,6.21-3.68,10.75-9.75,12.2c-0.19,0.05-0.36,0.16-0.54,0.24
		C116,177.76,84,177.76,52.01,177.76z M72.97,41.39c-6.13,0-12.45-0.02-18.77,0.01c-4.83,0.02-7.94,3.18-7.94,8.04
		c-0.01,38.57-0.01,77.14,0,115.71c0,4.94,3.12,8.06,8.06,8.06c30.47,0.01,60.94,0.01,91.41,0c4.84,0,7.99-3.13,7.99-7.98
		c0.01-38.62,0.01-77.24,0-115.86c0-4.82-3.16-7.95-8.01-7.97c-5.92-0.02-11.84-0.01-17.77,0c-0.4,0-0.79,0.04-1.22,0.07
		c-0.08,0.51-0.16,0.95-0.23,1.4c-0.73,4.82-4.54,8.23-9.38,8.25c-11.44,0.03-22.88,0.04-34.32-0.01c-3.57-0.01-6.36-1.67-8.09-4.77
		C73.93,44.91,73.6,43.22,72.97,41.39z M77.9,36.6c0,1.54,0,2.9,0,4.25c0,0.4,0,0.81,0.06,1.21c0.34,2.57,2.24,4.47,4.74,4.48
		c11.53,0.04,23.05,0.03,34.58,0c2.22-0.01,4.22-1.57,4.56-3.73c0.31-2.01,0.23-4.09,0.32-6.21C107.3,36.6,92.71,36.6,77.9,36.6z
		 M102.54,31.89c-0.01-1.72,0.59-3.57-1.17-4.59c-0.71-0.41-2.06-0.4-2.77,0.01c-1.77,1.03-1.1,2.89-1.19,4.58
		C99.16,31.89,100.75,31.89,102.54,31.89z"/>
	<path class="st0" d="M143.88,51.12c-2.3,0-4.56,0-6.82,0c-1.42,0-2.83,0.01-4.25,0c-1.64-0.02-2.67-0.92-2.65-2.28
		c0.02-1.29,1.02-2.25,2.55-2.26c4.45-0.03,8.91-0.04,13.36,0c1.57,0.02,2.38,0.91,2.48,2.48c0.03,0.4,0.01,0.81,0.01,1.21
		c0,38.02,0,76.03,0,114.05c0,3.14-0.56,3.69-3.72,3.69c-29.92,0-59.83,0-89.75,0c-3.07,0-3.66-0.57-3.66-3.6
		c0-38.12,0-76.23,0-114.35c0-2.85,0.65-3.51,3.45-3.51c3.85,0,7.69,0,11.54,0c0.3,0,0.61-0.01,0.91,0.01
		c1.51,0.09,2.51,1.03,2.49,2.32c-0.02,1.31-1.01,2.21-2.55,2.22c-3.14,0.02-6.28,0.01-9.42,0.01c-0.55,0-1.1,0-1.76,0
		c0,37.44,0,74.77,0,112.22c29.19,0,58.42,0,87.77,0C143.88,126.03,143.88,88.66,143.88,51.12z"/>
	<path class="st0" d="M63.79,141.09c0-2.43-0.04-4.86,0.01-7.28c0.09-4.09,3.06-7.06,7.14-7.09c4.85-0.04,9.71-0.04,14.57,0
		c3.98,0.03,7.07,2.99,7.14,6.96c0.1,4.95,0.09,9.91,0,14.87c-0.07,4.03-3.2,7-7.25,7.03c-4.8,0.03-9.61,0.03-14.41,0
		c-4.07-0.03-7.1-3-7.19-7.05C63.75,146.04,63.79,143.57,63.79,141.09z M78.13,151.03c2.33,0,4.65,0.02,6.98,0
		c2-0.02,3-0.98,3.01-2.98c0.03-4.6,0.03-9.2,0-13.8c-0.01-2.01-0.99-2.97-3-2.98c-4.6-0.02-9.2-0.02-13.8,0
		c-2.05,0.01-2.96,0.91-2.97,2.96c-0.02,4.6-0.02,9.2,0,13.8c0.01,2.1,0.95,2.98,3.11,2.99C73.68,151.04,75.9,151.03,78.13,151.03z"
		/>
	<path class="st0" d="M78.32,58.66c2.43,0,4.86-0.04,7.28,0.01c3.91,0.08,6.96,2.99,7.04,6.9c0.11,5,0.11,10.01,0,15.02
		c-0.08,3.95-3.21,6.9-7.18,6.94c-4.85,0.05-9.71,0.05-14.56,0c-4-0.05-7.03-3.02-7.09-7c-0.07-4.96-0.07-9.91,0-14.87
		c0.06-4,3.05-6.92,7.08-6.99C73.36,58.62,75.84,58.66,78.32,58.66z M78.13,63.21c-2.33,0-4.65-0.03-6.98,0.01
		c-1.86,0.03-2.79,0.96-2.8,2.83c-0.03,4.7-0.03,9.4,0,14.1c0.01,1.84,0.98,2.82,2.82,2.83c4.7,0.03,9.4,0.03,14.1,0
		c1.81-0.01,2.82-1.02,2.84-2.84c0.04-4.7,0.04-9.4,0-14.1c-0.01-1.82-1.03-2.78-2.86-2.81C82.88,63.18,80.5,63.21,78.13,63.21z"/>
	<path class="st0" d="M63.79,107c0-2.38-0.04-4.75,0.01-7.13c0.08-4.14,3.1-7.12,7.26-7.15c4.75-0.03,9.51-0.03,14.26,0
		c4.21,0.03,7.3,3.05,7.35,7.26c0.05,4.8,0.06,9.61,0,14.41c-0.05,4.15-3.09,7.16-7.22,7.19c-4.85,0.04-9.71,0.04-14.57,0
		c-4-0.04-6.98-2.99-7.07-7C63.74,112.06,63.79,109.53,63.79,107z M78.1,117.04c2.38,0,4.75,0.02,7.13-0.01
		c1.83-0.02,2.87-0.98,2.88-2.78c0.04-4.7,0.04-9.4,0-14.1c-0.01-1.89-1.04-2.87-2.96-2.87c-4.65-0.02-9.3-0.03-13.95,0
		c-1.85,0.01-2.83,0.97-2.84,2.8c-0.03,4.7-0.03,9.4,0,14.1c0.01,1.94,0.95,2.83,2.92,2.85C73.55,117.06,75.83,117.04,78.1,117.04z"
		/>
	<path class="st0" d="M116.86,80.33c-5.41,0-10.82,0.01-16.23,0c-1.87,0-2.82-0.74-2.87-2.16c-0.05-1.47,0.98-2.38,2.86-2.38
		c10.97-0.01,21.94-0.01,32.91,0c1.75,0,2.83,0.92,2.83,2.29c0.01,1.39-1.04,2.25-2.82,2.25C127.99,80.34,122.42,80.33,116.86,80.33
		z"/>
	<path class="st0" d="M117,109.92c5.61,0,11.22-0.01,16.83,0.01c1.54,0.01,2.53,0.94,2.53,2.23c0,1.28-0.98,2.19-2.51,2.3
		c-0.4,0.03-0.81,0.01-1.21,0.01c-3.74,0-7.48,0-11.22,0c-6.72,0-13.45,0-20.17-0.01c-0.6,0-1.22,0-1.8-0.15
		c-1.2-0.3-1.76-1.16-1.66-2.36c0.09-1.15,0.77-1.85,1.92-1.99c0.5-0.06,1.01-0.04,1.51-0.05
		C106.48,109.92,111.74,109.92,117,109.92z"/>
	<path class="st0" d="M117.17,144c5.41,0,10.82-0.01,16.23,0c1.91,0,2.97,0.83,2.96,2.27c-0.01,1.42-1.11,2.28-2.99,2.28
		c-10.92,0.01-21.84,0.01-32.76,0c-1.75,0-2.72-0.74-2.84-2.08c-0.13-1.47,0.85-2.46,2.56-2.47C105.95,143.99,111.56,144,117.17,144
		z"/>
	<path class="st0" d="M111.01,70.59c-3.49,0-6.98,0.01-10.48,0c-1.81-0.01-2.79-0.83-2.78-2.27c0.01-1.41,1.03-2.27,2.82-2.28
		c6.93-0.02,13.87-0.02,20.8,0c1.74,0,2.81,0.94,2.8,2.32c-0.01,1.41-1.03,2.22-2.84,2.22C117.9,70.6,114.45,70.59,111.01,70.59z"/>
	<path class="st0" d="M110.9,138.82c-3.49,0-6.99,0.02-10.48-0.01c-1.79-0.02-2.82-1.07-2.64-2.57c0.15-1.27,1.01-1.96,2.6-1.96
		c6.18-0.02,12.35-0.01,18.53-0.01c0.96,0,1.92-0.03,2.88,0.01c1.44,0.06,2.37,0.96,2.38,2.22c0.01,1.29-0.98,2.28-2.5,2.3
		c-3.39,0.04-6.78,0.02-10.17,0.02C111.3,138.82,111.1,138.82,110.9,138.82z"/>
	<path class="st0" d="M110.93,100.18c3.59,0,7.19-0.04,10.78,0.02c1.9,0.03,3.09,1.68,2.2,3.14c-0.4,0.65-1.41,1.31-2.15,1.32
		c-7.18,0.1-14.37,0.08-21.56,0.04c-1.58-0.01-2.47-0.96-2.44-2.32c0.03-1.34,0.94-2.18,2.54-2.2
		C103.85,100.15,107.39,100.17,110.93,100.18z"/>
	<path class="st0" d="M76.91,73.77c1.59-1.65,2.87-3.02,4.19-4.33c1.19-1.18,2.48-1.23,3.47-0.22c0.9,0.93,0.86,2.29-0.21,3.38
		c-1.83,1.88-3.69,3.75-5.58,5.57c-1.23,1.19-2.34,1.16-3.58-0.02c-1.13-1.08-2.24-2.19-3.32-3.32c-1-1.05-1.05-2.33-0.19-3.25
		c0.91-0.98,2.27-1.01,3.36,0.03C75.66,72.18,76.16,72.89,76.91,73.77z"/>
	<path class="st0" d="M76.87,107.86c1.63-1.67,2.92-3.03,4.25-4.34c1.14-1.12,2.56-1.17,3.48-0.2c0.88,0.93,0.8,2.29-0.26,3.38
		c-1.8,1.84-3.63,3.67-5.47,5.47c-1.3,1.27-2.41,1.27-3.7,0.04c-1.1-1.05-2.17-2.12-3.22-3.22c-1.07-1.12-1.13-2.43-0.23-3.37
		c0.98-1.02,2.27-0.98,3.47,0.2C75.76,106.37,76.21,107.06,76.87,107.86z"/>
</g>
</svg>
