<?xml version="1.0" encoding="utf-8"?>
<!-- Generator: Adobe Illustrator 26.3.0, SVG Export Plug-In . SVG Version: 6.00 Build 0)  -->
<svg version="1.1" id="Calque_1" xmlns="http://www.w3.org/2000/svg" xmlns:xlink="http://www.w3.org/1999/xlink" x="0px" y="0px"
	 viewBox="0 0 200 200" style="enable-background:new 0 0 200 200;" xml:space="preserve">
<style type="text/css">
	.st0{fill:none;stroke:#FFFFFF;stroke-width:3;stroke-miterlimit:10;}
	.st1{fill:none;stroke:#FFFFFF;stroke-width:3;stroke-linecap:round;stroke-miterlimit:10;}
	.st2{fill:none;stroke:#FFFFFF;stroke-width:3;stroke-linecap:round;stroke-linejoin:round;stroke-miterlimit:10;}
</style>
<g>
	<circle class="st0" cx="100.77" cy="65.57" r="32.47"/>
	<path class="st1" d="M64.54,166.91c-9.16,0-15.81-8.7-13.45-17.55c7.84-29.38,17.94-51.3,49.66-51.3s41.83,21.9,49.67,51.3
		c2.37,8.85-4.27,17.55-13.45,17.55"/>
	<path class="st2" d="M160.14,152.82c7.6,0,13.1-7.21,11.14-14.55c-6.5-24.36-14.88-42.5-41.16-42.5l0.01-0.01
		c14.86,0,26.91-12.05,26.91-26.91S145,41.94,130.14,41.94"/>
	<path class="st2" d="M39.86,152.82c-7.6,0-13.1-7.21-11.14-14.55c6.5-24.36,14.88-42.5,41.16-42.5l-0.01-0.01
		c-14.86,0-26.91-12.05-26.91-26.91S55,41.94,69.86,41.94"/>
</g>
</svg>
