<?xml version="1.0" encoding="utf-8"?>
<!-- Generator: Adobe Illustrator 26.2.1, SVG Export Plug-In . SVG Version: 6.00 Build 0)  -->
<svg version="1.1" id="Calque_1" xmlns="http://www.w3.org/2000/svg" xmlns:xlink="http://www.w3.org/1999/xlink" x="0px" y="0px"
	 viewBox="0 0 100 100" style="enable-background:new 0 0 100 100;" xml:space="preserve">
<style type="text/css">
	.st0{fill:none;stroke:#FFFFFF;stroke-width:3;stroke-miterlimit:10;}
</style>
<path class="st0" d="M41.7,70.41v14.93c0,1.27-1.03,2.3-2.3,2.3H28.88c-3.85,0-6.97-3.12-6.97-6.97V58.05
	c0-3.85-3.12-6.97-6.97-6.97h0c-6.79,0-9.57-8.73-4.02-12.65l35.05-24.79c2.41-1.7,5.63-1.7,8.04,0l35.05,24.79
	c5.55,3.92,2.77,12.65-4.02,12.65h0c-3.85,0-6.97,3.12-6.97,6.97v22.62c0,3.85-3.12,6.97-6.97,6.97H60.6c-1.27,0-2.3-1.03-2.3-2.3
	V70.41c0-1.27-1.03-2.3-2.3-2.3H43.99C42.73,68.11,41.7,69.14,41.7,70.41z"/>
</svg>
