<?xml version="1.0" encoding="utf-8"?>
<!-- Generator: Adobe Illustrator 26.2.1, SVG Export Plug-In . SVG Version: 6.00 Build 0)  -->
<svg version="1.1" id="Calque_1" xmlns="http://www.w3.org/2000/svg" xmlns:xlink="http://www.w3.org/1999/xlink" x="0px" y="0px"
	 viewBox="0 0 100 100" style="enable-background:new 0 0 100 100;" xml:space="preserve">
<style type="text/css">
	.st0{fill:none;stroke:#FFFFFF;stroke-width:3;stroke-miterlimit:10;}
	.st1{fill:#FFFFFF;}
</style>
<path class="st0" d="M70.86,80.76H29.14c-4.95,0-8.96-4.01-8.96-8.96V58.91c0-4.95,4.01-8.96,8.96-8.96h41.73
	c4.95,0,8.96,4.01,8.96,8.96v12.89C79.82,76.75,75.81,80.76,70.86,80.76z"/>
<path class="st0" d="M50,15.23L50,15.23c-9.59,0-17.36,7.77-17.36,17.36v17.36h34.72V32.6C67.36,23.01,59.59,15.23,50,15.23z"/>
<g>
	<path class="st1" d="M29.59,68.18c-0.09,0-0.18-0.04-0.28-0.12c-0.1-0.08-0.14-0.17-0.14-0.26s0.03-0.17,0.1-0.25l1.36-1.89
		l-1.87-0.61c-0.18-0.05-0.27-0.15-0.27-0.29s0.03-0.25,0.11-0.33c0.07-0.08,0.15-0.12,0.24-0.12c0.03,0,0.05,0,0.09,0
		c0.03,0,0.06,0.01,0.09,0.02l1.89,0.61v-2.01c0-0.26,0.13-0.38,0.38-0.38c0.25,0,0.38,0.13,0.38,0.38v2.01l1.89-0.61
		c0.03-0.01,0.05-0.02,0.09-0.02s0.06,0,0.09,0c0.08,0,0.15,0.04,0.23,0.11c0.08,0.08,0.11,0.18,0.11,0.32
		c0,0.15-0.09,0.26-0.27,0.31l-1.89,0.61l1.38,1.89c0.06,0.08,0.1,0.16,0.1,0.25s-0.05,0.18-0.14,0.26
		c-0.1,0.08-0.19,0.12-0.28,0.12c-0.11,0-0.21-0.06-0.29-0.17l-1.4-1.93l-1.4,1.93C29.8,68.12,29.71,68.18,29.59,68.18z"/>
	<path class="st1" d="M42.08,68.18c-0.09,0-0.18-0.04-0.28-0.12c-0.1-0.08-0.14-0.17-0.14-0.26s0.03-0.17,0.1-0.25l1.36-1.89
		l-1.87-0.61c-0.18-0.05-0.27-0.15-0.27-0.29s0.03-0.25,0.11-0.33c0.07-0.08,0.15-0.12,0.24-0.12c0.03,0,0.05,0,0.09,0
		s0.06,0.01,0.09,0.02l1.89,0.61v-2.01c0-0.26,0.13-0.38,0.38-0.38s0.38,0.13,0.38,0.38v2.01l1.89-0.61
		c0.03-0.01,0.05-0.02,0.09-0.02c0.03,0,0.06,0,0.09,0c0.08,0,0.15,0.04,0.23,0.11c0.08,0.08,0.11,0.18,0.11,0.32
		c0,0.15-0.09,0.26-0.27,0.31l-1.89,0.61l1.38,1.89c0.06,0.08,0.1,0.16,0.1,0.25s-0.05,0.18-0.14,0.26
		c-0.1,0.08-0.19,0.12-0.28,0.12c-0.11,0-0.21-0.06-0.29-0.17l-1.4-1.93l-1.4,1.93C42.29,68.12,42.19,68.18,42.08,68.18z"/>
	<path class="st1" d="M54.56,68.18c-0.09,0-0.18-0.04-0.28-0.12c-0.1-0.08-0.14-0.17-0.14-0.26s0.03-0.17,0.1-0.25l1.36-1.89
		l-1.87-0.61c-0.18-0.05-0.27-0.15-0.27-0.29s0.04-0.25,0.1-0.33c0.07-0.08,0.15-0.12,0.24-0.12c0.03,0,0.05,0,0.09,0
		c0.03,0,0.06,0.01,0.09,0.02l1.89,0.61v-2.01c0-0.26,0.13-0.38,0.38-0.38s0.38,0.13,0.38,0.38v2.01l1.89-0.61
		c0.03-0.01,0.05-0.02,0.09-0.02c0.03,0,0.06,0,0.09,0c0.08,0,0.15,0.04,0.23,0.11c0.08,0.08,0.11,0.18,0.11,0.32
		c0,0.15-0.09,0.26-0.27,0.31l-1.89,0.61l1.38,1.89c0.06,0.08,0.1,0.16,0.1,0.25s-0.05,0.18-0.14,0.26
		c-0.1,0.08-0.19,0.12-0.28,0.12c-0.11,0-0.21-0.06-0.29-0.17l-1.4-1.93l-1.4,1.93C54.77,68.12,54.67,68.18,54.56,68.18z"/>
	<path class="st1" d="M67.04,68.18c-0.09,0-0.18-0.04-0.28-0.12c-0.1-0.08-0.14-0.17-0.14-0.26s0.03-0.17,0.1-0.25l1.36-1.89
		l-1.87-0.61c-0.18-0.05-0.27-0.15-0.27-0.29s0.04-0.25,0.1-0.33c0.07-0.08,0.15-0.12,0.24-0.12c0.03,0,0.05,0,0.09,0
		c0.03,0,0.06,0.01,0.09,0.02l1.89,0.61v-2.01c0-0.26,0.13-0.38,0.38-0.38c0.26,0,0.38,0.13,0.38,0.38v2.01L71,64.32
		c0.03-0.01,0.05-0.02,0.09-0.02c0.03,0,0.06,0,0.09,0c0.08,0,0.15,0.04,0.23,0.11c0.08,0.08,0.11,0.18,0.11,0.32
		c0,0.15-0.09,0.26-0.27,0.31l-1.89,0.61l1.38,1.89c0.06,0.08,0.1,0.16,0.1,0.25s-0.05,0.18-0.14,0.26
		c-0.1,0.08-0.19,0.12-0.28,0.12c-0.11,0-0.21-0.06-0.29-0.17l-1.4-1.93l-1.4,1.93C67.25,68.12,67.16,68.18,67.04,68.18z"/>
</g>
</svg>
