<?xml version="1.0" encoding="utf-8"?>
<!-- Generator: Adobe Illustrator 26.2.1, SVG Export Plug-In . SVG Version: 6.00 Build 0)  -->
<svg version="1.1" id="Calque_1" xmlns="http://www.w3.org/2000/svg" xmlns:xlink="http://www.w3.org/1999/xlink" x="0px" y="0px"
	 viewBox="0 0 430 430" style="enable-background:new 0 0 430 430;" xml:space="preserve">
<style type="text/css">
	.st0{fill:#FFFFFF;}
	.st1{fill:none;stroke:#EAEAEA;stroke-width:16;stroke-linecap:round;stroke-linejoin:round;stroke-miterlimit:10;}
</style>
<g>
	<g>
		<path class="st0" d="M166.28,182.78c-1.35,0.57-2.57,0.99-3.7,1.58c-12.34,6.39-25.38,9.5-39.35,9.74
			c-15.15,0.26-29.57-1.88-43.2-8.88c-14.76-7.58-24.82-19.46-32.1-33.98c-9.45-18.87-14.56-39.06-16.6-59.92
			C29.64,74,28.01,31.45,28.2,30.91c1.66-4.55,3.89-6.39,8.7-6.21c15.46,0.6,30.92,1.2,46.36,2.15c18.81,1.15,37.2,4.73,55.01,10.95
			c14.19,4.95,27.34,11.74,38.27,22.32c11.16,10.8,16.84,24.36,19.35,39.36c3.66,21.79,0.89,42.72-9.34,62.46
			c-1.45,2.8-3.67,5.19-5.11,7.99"/>
		<path class="st0" d="M240.13,189.92c-6.11-13.7-8.61-28.25-8.04-43.12c0.6-15.78,4.16-30.91,13.39-44.19
			c7.44-10.71,17.67-18.09,29.07-23.99c16.43-8.51,34.07-13.3,52.26-15.76c13.85-1.87,27.85-2.78,41.8-3.79
			c8.02-0.58,16.08-0.6,24.13-0.68c5.79-0.06,9.24,3.77,9.07,9.57c-0.23,7.93-0.21,15.87-0.64,23.78
			c-1.4,25.83-3.86,51.51-12.41,76.19c-3.94,11.36-9.04,22.14-16.35,31.75c-11.77,15.49-27.83,24.13-46.65,26.97
			c-17.9,2.69-35.86,1.99-52.71-5.8c-6.05-2.79-11.62-6.63-17.38-10.04c-1.13-0.67-2.16-1.52-3.59-2.55"/>
	</g>
	<path class="st1" d="M86.88,88.25c0,0,115.02,35.45,129.47,317.06c0,0-23.12-130.13,100.57-262.08"/>
</g>
</svg>
