<?xml version="1.0" encoding="utf-8"?>
<!-- Generator: Adobe Illustrator 26.2.1, SVG Export Plug-In . SVG Version: 6.00 Build 0)  -->
<svg version="1.1" id="Calque_1" xmlns="http://www.w3.org/2000/svg" xmlns:xlink="http://www.w3.org/1999/xlink" x="0px" y="0px"
	 viewBox="0 0 500 500" style="enable-background:new 0 0 500 500;" xml:space="preserve">
<style type="text/css">
	.st0{fill:none;stroke:#FFFFFF;stroke-width:5;stroke-linejoin:round;stroke-miterlimit:10;}
</style>
<line class="st0" x1="129.76" y1="360.99" x2="162.8" y2="336.14"/>
<path class="st0" d="M433.16,128.14L60.1,238.72c-4.35,2.37-4.93,8.39-1.11,11.55l57.04,47.18l-0.51-3.09L349.39,182.7
	c1.01-0.69,2.1,0.73,1.18,1.53L139.74,313.52l-0.52,3.12l65.9,54.51c3.35,2.77,8.38,1.85,10.54-1.91l226.93-231.46
	C446.1,131.64,439.36,124.76,433.16,128.14z"/>
<path class="st0" d="M115.52,294.36l10.48,63.93c0.59,3.59,5.75,3.6,6.35,0l7.39-44.78l210.83-129.29c0.92-0.8-0.18-2.22-1.18-1.53
	L115.52,294.36z"/>
</svg>
